<svg xmlns="http://www.w3.org/2000/svg" width="1376" height="192" fill="none"><path stroke="url(#a)" stroke-linecap="round" stroke-linejoin="round" stroke-miterlimit="10" d="M1353.2 1.402 1342.51 0m10.69 1.402h-31.68m31.68 0 11.04 1.449m-11.04-1.449h22.43M1342.51 0h3.89l3.85.004 3.77.008 3.65.017 3.49.027 3.3.041 3.06.057 2.84.073 2.44.1 2.22.117.61.041v.917M1342.51 0h-31.17m0 0h-31.17m31.17 0 10.18 1.402M1280.17 0h-31.16m31.16 0 9.67 1.402M1249.01 0h-31.17m31.17 0 9.16 1.402M1217.84 0h-31.17m31.17 0 8.65 1.402M1186.67 0h-31.16m31.16 0 8.15 1.402M1155.51 0h-31.17m31.17 0 7.63 1.402M1124.34 0h-31.17m31.17 0 7.12 1.402M1093.17 0H1062m31.17 0 6.62 1.402M1062 0h-31.16M1062 0l6.11 1.402M1030.84 0h-31.17m31.17 0 5.6 1.402M999.67 0h-31.166m31.166 0 5.09 1.402M968.504 0h-31.168m31.168 0 1.13.346 1.715.525 1.735.531M937.336 0h-31.167m31.167 0 1.006.346 3.066 1.056M906.169 0h-31.167m31.167 0 3.563 1.402M875.002 0h-31.167m31.167 0 1.133.52 1.149.527.385.177.388.178M843.835 0h-31.167m31.167 0 .945.52.318.175.318.176.964.531M812.668 0h-31.167m31.167 0 2.036 1.402M781.501 0l.189.173.188.173.956.878.194.178M781.501 0h-31.167m0 0h-31.167m31.167 0 1.018 1.402M719.167 0H688m31.167 0 .189.52.32.882M688 0h-31.167M688 0v1.402M656.833 0h-31.167m31.167 0-.189.52-.32.882M625.666 0h-31.167m31.167 0-1.018 1.402M594.499 0l-.189.173-.188.173-.956.878-.194.178M594.499 0h-31.167m0 0h-31.168m31.168 0-1.778 1.224-.258.178M532.164 0h-31.166m31.166 0-.944.52-.318.175-.638.352-.321.177-.323.178M500.998 0h-31.167m31.167 0-1.133.52-1.149.527-.385.177-.388.178M469.831 0h-31.167m31.167 0-3.563 1.402M438.664 0h-31.168m31.168 0-1.006.346-3.066 1.056M407.496 0H376.33m31.166 0-4.58 1.402M376.33 0h-31.167m31.167 0-5.09 1.402M345.163 0h-31.168m31.168 0-5.599 1.402M313.995 0h-31.166m31.166 0-6.107 1.402M282.829 0h-31.167m31.167 0-6.617 1.402M251.662 0h-31.167m31.167 0-7.127 1.402M220.495 0h-31.168m31.168 0-7.636 1.402M189.327 0h-31.166m31.166 0-8.144 1.402M158.161 0h-31.167m31.167 0-8.654 1.402M126.994 0H95.826m31.168 0-9.163 1.402M95.826 0H64.66m31.167 0-9.67 1.402M64.659 0H33.493m31.166 0L54.48 1.402M33.494 0h-3.89l-3.85.004-3.768.008-3.651.017-3.493.027-3.297.041-3.062.057L5.64.227l-2.439.1-2.22.117-.61.041v.917M33.492 0l-10.69 1.402m63.353 0h31.675m-31.675 0H54.48m31.676 0-9.993 1.449m41.668-1.449-9.466 1.449m9.466-1.449h31.676m63.352 0h31.676m-31.676 0h-31.676m31.676 0-1.947.358-5.941 1.09m39.564-1.448-7.362 1.449m7.362-1.449h31.677m63.352 0h31.676m-31.676 0h-31.676m31.676 0-1.429.358-.719.18-3.638.91m37.462-1.448-.648.178-.651.18-3.96 1.09m5.259-1.448h31.676m63.352 0-.454.178-3.228 1.27m3.682-1.448h31.675m-31.675 0h-31.676m63.351 0-.778.358-.393.18-.393.18-1.591.73m3.155-1.448h31.677m63.352 0h31.676m-31.676 0h-31.676m31.676 0-1.577 1.449m33.253-1.449-.13.178-.129.18-.132.18-.395.544-.266.367m1.052-1.449h31.676m63.352 0h31.676m-31.676 0H688m31.676 0 .526 1.449m31.15-1.449.13.178.129.18.132.18.661.91m-1.052-1.448h31.676m63.352 0h31.677m-31.677 0h-31.676m31.676 0 .649.358 1.316.724.331.183.334.184m29.047-1.449.778.358.393.18.393.18 1.591.73m-3.155-1.448h31.675m63.352 0h31.676m-31.676 0h-31.676m31.676 0 1.169.358.588.18 2.976.91m26.943-1.448.65.178.65.18 3.96 1.09m-5.26-1.448h31.68m63.35 0h31.67m-31.67 0h-31.68m31.68 0 1.69.358.85.18 4.3.91m24.83-1.448 7.37 1.449m-7.37-1.449h31.68m63.35 0h31.68m-31.68 0h-31.67m31.67 0 8.94 1.449m22.74-1.449 9.47 1.449m-9.47-1.449h31.67M.26 14.515h.11m31.772 0 12.093-1.851m-12.093 1.85-12.557 1.922m12.557-1.921h36.436m-36.436 0H.37m43.865-1.851H8.471m35.764 0 11.656-1.784m-11.656 1.784H80m-71.53 0 12.304-1.784M8.471 12.664H.37m8.1 0-8.1 1.174M44.09 7.5h33.89m-33.89 0 11.058-1.603M44.09 7.5H10.2m33.89 0L32.639 9.16M77.981 7.5l10.476-1.603M77.981 7.5 67.133 9.16M77.98 7.5h33.89M55.149 5.897h33.308m-33.308 0 10.684-1.549M55.15 5.897H21.84m66.616 0h33.308m-33.308 0L98.58 4.348M.02 43.724h.35m29.051 0 15.595-3.068m-15.595 3.068-16.37 3.22m16.37-3.22h47.042m-47.042 0H.37m44.647-3.068 14.873-2.927m-14.873 2.927h45.927m-45.927 0H.37m14.655-2.927H59.89m-44.865 0 15.216-2.793m-15.216 2.793H.37m14.655 0L.37 40.42m44.413-8.155h42.88m-42.88 0 13.913-2.555m-13.913 2.555H1.902m42.88 0-14.541 2.67m57.422-2.67 12.987-2.555m-12.987 2.555-13.572 2.67m13.573-2.67h42.881m-71.85-2.555h41.955m-41.954 0H16.742m41.954 0 13.324-2.446m28.63 2.447 12.435-2.447M100.65 29.71h41.953m-45.56-7.042h39.398m-39.397 0 11.765-2.16m-11.765 2.16H57.647m39.397 0-12.253 2.25m51.65-2.25 10.98-2.16m-10.98 2.16-11.436 2.25m11.436-2.25h39.397m-67.029-2.16h38.612m-38.612 0H70.196m38.613 0 11.306-2.076m27.306 2.075 10.553-2.075m-10.553 2.075h38.614m-44.584-5.993h36.437m-36.437 0 10.078-1.851m-10.078 1.85h-36.436m36.436 0-10.464 1.922m46.901-1.921 9.406-1.851m-9.406 1.85-9.767 1.922m9.767-1.921h36.436m-62.795-1.851h35.765m-35.765 0h-35.764m35.764 0 9.714-1.784m26.051 1.784 9.066-1.784m-9.066 1.784h35.764M179.65 7.5h33.891m-33.891 0 8.73-1.603M179.65 7.5h-33.889m33.889 0-9.04 1.66m42.931-1.66 8.147-1.603M213.541 7.5l-8.438 1.66m8.438-1.66h33.89M188.38 5.897h33.308m-33.308 0 8.436-1.549m-8.436 1.549h-33.307m66.615 0h33.309m-33.309 0 7.874-1.549M24.471 96.915l21.948-6.045m-21.948 6.045L.967 103.39m23.504-6.474h66.353m-66.353 0H.371m46.048-6.045 20.544-5.658M46.419 90.87h64.158m-64.158 0H.37m45.604-15.954h58.366m-58.366 0L64.73 70.22m-18.756 4.696-19.92 4.988m19.92-4.988H.37m103.97 0 17.05-4.696m-17.05 4.696-18.11 4.988m18.11-4.988h58.366M64.73 70.22h56.66m-56.66 0H8.069m56.66 0 17.692-4.43m38.969 4.43 16.084-4.43m-16.084 4.43h56.662m-63.1-12.576h52.095m-52.095 0 14.989-3.753m-14.989 3.753H62.856m52.096 0-15.817 3.961m67.912-3.96 13.627-3.754m-13.627 3.753-14.379 3.961m14.379-3.96h52.096m-89.202-3.754h50.733m-50.733 0H79.208m50.733 0 14.225-3.562m36.508 3.562 12.932-3.562m-12.932 3.562h50.732m-60.86-10.167h47.042m-47.042 0 12.253-3.068m-12.253 3.068h-47.041m47.041 0-12.862 3.22m59.904-3.22 11.138-3.068m-11.138 3.068-11.694 3.22m11.694-3.22h47.041m-81.83-3.068h45.927m-45.927 0h-45.927m45.927 0 11.686-2.927m34.241 2.927 10.624-2.927m-10.624 2.927h45.928m-58.346-8.39h42.88m-42.88 0 10.202-2.555m-10.202 2.554h-42.882m42.882 0-10.665 2.67m53.545-2.67 9.276-2.555m-9.276 2.555-9.694 2.67m9.694-2.67h42.881M226.51 29.71h41.954m-41.954 0h-41.953m41.953 0 9.771-2.446m32.183 2.447 8.883-2.447m-8.883 2.447h41.954m-55.786-7.042h39.397m-39.397 0 8.628-2.16m-8.628 2.16h-39.397m39.397 0-8.985 2.25m48.382-2.25.999-.275 6.844-1.886m-7.843 2.16-8.168 2.25m8.168-2.25h39.398m-70.167-2.16h38.612m-38.612 0h-38.613m38.613 0 8.291-2.075m30.321 2.075 7.538-2.075m-7.538 2.075h38.614m-53.289-5.993h36.437m-36.437 0 7.391-1.851m-7.391 1.85h-36.436m36.436 0-7.673 1.922m44.11-1.921 6.719-1.851m-6.719 1.85-2.585.713-4.391 1.209m6.976-1.921h36.437m-65.483-1.851h35.765m-35.765 0h-35.764m35.764 0 7.123-1.784m28.642 1.784 6.475-1.784m-6.475 1.784h35.765M315.21 7.5h33.89m-33.89 0 6.402-1.603M315.21 7.5h-33.889m33.889 0-6.629 1.66M349.1 7.5l4.385-1.207.719-.199.717-.197M349.1 7.5l-6.027 1.66M349.1 7.5h33.89m-61.378-1.603h33.309m-33.309 0 6.186-1.549m-6.186 1.549h-33.308m66.617 0h33.308m-33.308 0 5.623-1.549M48.512 165.782h91.355m-91.355 0 28.765-11.319m-28.765 11.319-31.61 12.438m31.61-12.438H.37m139.497 0 24.657-11.319m-24.657 11.319-27.094 12.438m27.094-12.438h91.356M77.277 154.463h87.247m-87.247 0 26.29-10.344m-26.29 10.344H.37m164.154 0 22.533-10.344m-22.533 10.344h87.246M149.894 125.89h76.873m-76.873 0 20.514-8.072m-20.514 8.072H73.022m76.872 0-22.208 8.738m99.081-8.738 17.583-8.072m-17.583 8.072-19.035 8.738m19.035-8.738h76.872m-133.231-8.072h73.942m-73.942 0H96.467m73.941 0 19.008-7.479m54.934 7.479 16.292-7.479m-16.292 7.479h73.942M223.53 96.915h66.352m-66.352 0 15.364-6.045m-15.364 6.045h-66.354m66.354 0-16.453 6.474m82.805-6.474 13.17-6.045m-13.17 6.045-14.102 6.474m14.102-6.474h66.353M238.894 90.87h64.158m-64.158 0h-64.159m64.159 0 14.38-5.658m49.778 5.658 12.326-5.658m-12.326 5.658h64.158m-87.772-15.954h58.366m-58.366 0 11.936-4.696m-11.936 4.696h-58.366m58.366 0-12.676 4.988m71.042-4.988 10.23-4.696m-10.23 4.696-10.865 4.988m10.865-4.988h58.366M291.374 70.22h56.66m-56.66 0h-56.662m56.662 0 11.258-4.43m45.402 4.43 9.65-4.43m-9.65 4.43h56.661m-81.362-12.576h52.096m-52.096 0 9.538-3.753m-9.538 3.753h-52.095m52.095 0-10.065 3.961m62.161-3.96 8.175-3.754m-8.175 3.753-8.628 3.961m8.628-3.96h52.095m-94.653-3.754h50.733m-50.733 0h-50.732m50.732 0 9.053-3.562m41.68 3.562 7.759-3.562m-7.759 3.562h50.733m-75.626-10.167h47.041m-47.041 0 7.798-3.068m-7.798 3.068H311.67m47.041 0-8.185 3.22m55.226-3.22 6.684-3.068m-6.684 3.068-7.016 3.22m7.016-3.22h47.041m-86.284-3.068h45.927m-45.927 0h-45.928m45.928 0 7.436-2.927m38.491 2.927 6.374-2.927m-6.374 2.927h45.927m-70.531-8.39h42.881m-42.881 0 6.493-2.555m-6.493 2.554h-42.881m42.881 0-6.786 2.67m49.667-2.67 5.565-2.555m-5.565 2.555-5.817 2.67m5.817-2.67h42.881m-79.269-2.555h41.953m-41.953 0h-41.954m41.954 0 6.218-2.446m35.735 2.447 5.33-2.447m-5.33 2.447h41.954m-66.012-7.042h39.398m-39.398 0 5.491-2.16m-5.491 2.16h-39.396m39.396 0-5.718 2.25m45.116-2.25-.602.276-4.3 1.974m4.902-2.25 4.705-2.16m-4.705 2.16h39.397m-73.304-2.16h38.612m-38.612 0h-38.613m38.613 0 5.276-2.076m33.336 2.075 4.523-2.075m-4.523 2.075h38.614m-61.993-5.993h36.436m-36.436 0 4.703-1.851m-4.703 1.85h-36.437m36.437 0-4.883 1.922m41.319-1.921 4.032-1.851m-4.032 1.85-1.55.713-1.047.48-1.588.729m4.185-1.921h36.437m-68.17-1.851h35.765m-35.765 0h-35.765m35.765 0 4.533-1.784m31.232 1.784 1.474-.677.971-.446 1.44-.66m-3.885 1.783h35.764M450.771 7.5h33.889m-33.889 0 3.068-1.207 1.005-.396M450.771 7.5h-33.89m33.89 0-3.684 1.45-.535.21M484.66 7.5l2.631-1.207.431-.199.431-.197M484.66 7.5l-1.792.823-1.824.837m3.616-1.66h33.89m-63.706-1.603h33.309m-33.309 0 3.937-1.549m-3.937 1.549h-33.308m66.617 0h33.307m-33.307 0 3.373-1.549m-77.592 161.434h91.355m-91.355 0 12.328-11.319m-12.328 11.319h-91.355m91.355 0-13.547 12.438m104.902-12.438 8.219-11.319m-8.219 11.319-9.031 12.438m9.031-12.438h91.356m-170.383-11.319h87.246m-87.246 0h-87.246m87.246 0 11.267-10.344m75.979 10.344 7.511-10.344m-7.511 10.344h87.246M457.383 125.89h76.872m-76.872 0 8.792-8.072m-8.792 8.072h-76.872m76.872 0-9.518 8.738m86.39-8.738 5.862-8.072m-5.862 8.072-6.344 8.738m6.344-8.738h76.873m-144.953-8.072h73.942m-73.942 0h-73.942m73.942 0 8.146-7.479m65.796 7.479 5.431-7.479m-5.431 7.479h73.941M488.941 96.915h66.353m-66.353 0 6.585-6.045m-6.585 6.045h-66.352m66.352 0-7.051 6.474m73.404-6.474 4.39-6.045m-4.39 6.045-4.7 6.474m4.7-6.474h66.353M495.526 90.87h64.158m-64.158 0h-64.158m64.158 0 6.163-5.658m57.995 5.658 4.109-5.658m-4.109 5.658h64.158m-110.94-15.954h58.366m-58.366 0 5.115-4.696m-5.115 4.696h-58.366m58.366 0-5.433 4.988m63.799-4.988 3.41-4.696m-3.41 4.696-3.622 4.988m3.622-4.988h58.366M518.017 70.22h56.661m-56.661 0h-56.66m56.66 0 4.825-4.43m51.836 4.43 3.217-4.43m-3.217 4.43h56.661m-99.625-12.576h52.096m-52.096 0 4.088-3.753m-4.088 3.753h-52.095m52.095 0-4.313 3.961m56.409-3.96 2.725-3.754m-2.725 3.753-2.876 3.961m2.876-3.96h52.095M535.802 53.89h50.733m-50.733 0H485.07m50.732 0 3.88-3.562m46.853 3.562 2.586-3.562m-2.586 3.562h50.732m-90.391-10.167h47.041m-47.041 0 3.342-3.068m-3.342 3.068h-47.041m47.041 0-3.507 3.22m50.548-3.22 2.229-3.068m-2.229 3.068-2.338 3.22m2.338-3.22h47.042m-90.741-3.068h45.928m-45.928 0H504.29m45.928 0 1.213-1.114 1.974-1.813m42.741 2.927 2.124-2.927m-2.124 2.927h45.927m-82.716-8.39h42.881m-42.881 0 2.782-2.555m-2.782 2.554h-42.882m42.882 0-2.169 1.992-.74.679m45.79-2.67.705-.972 1.15-1.584m-1.855 2.555-1.939 2.67m1.939-2.67h42.881m-82.98-2.555.339-.311 2.326-2.135m-2.665 2.447h41.954m-41.954 0h-41.954m83.908 0 .675-.93.222-.307.222-.305.657-.905m-1.776 2.447h41.954m-76.238-7.042h39.397m-39.397 0 1.188-1.091.294-.27.291-.268.291-.266.289-.266m-2.353 2.16h-39.397m39.397 0-2.451 2.25m41.848-2.25 1.182-1.628.194-.266.192-.266m-1.568 2.16-1.634 2.25m1.634-2.25h39.397m-76.441-2.16h38.612m-38.612 0h-38.613m38.613 0 1.424-1.307.28-.257.557-.511m36.351 2.075.949-1.307.188-.257.185-.257.186-.255m-1.508 2.076h38.613m-70.696-5.993h36.436m-36.436 0 2.015-1.851m-2.015 1.85h-36.438m36.438 0-.517.474-.783.719-.793.729m38.529-1.921-.172.236-1.046 1.44-.177.245m1.395-1.921 1.344-1.851m-1.344 1.85h36.437m-70.858-1.85h35.765m-35.765 0h-35.764m35.764 0 1.943-1.784m33.822 1.784.491-.677.162-.223.162-.223.48-.66m-1.295 1.783h35.764M586.33 7.5h33.89m-33.89 0 1.316-1.207.43-.396M586.33 7.5h-33.89m33.89 0-.671.616-.225.207-.227.208-.685.63M620.22 7.5l.148-.203.293-.405.292-.4.431-.595M620.22 7.5l-.598.823-.15.208-.304.418-.153.211m1.205-1.66h33.89m-66.034-1.603h33.308m-33.308 0 1.479-1.358.209-.19m-1.688 1.548h-33.308m66.616 0 .143-.197.142-.195.142-.195.14-.194.419-.577.139-.19m-1.125 1.548h33.308m124.663 159.885h91.356m-91.356 0-4.109-11.319m4.109 11.319H688m91.355 0 4.516 12.438m86.84-12.438-8.219-11.319m8.219 11.319 9.031 12.438m-9.031-12.438h91.355m-186.82-11.319h87.246m-87.246 0H688m87.246 0-3.756-10.344m91.002 10.344-7.511-10.344m7.511 10.344h87.246M764.872 125.89h76.873m-76.873 0-2.93-8.072m2.93 8.072H688m76.872 0 3.173 8.738m73.7-8.738-5.862-8.072m5.862 8.072 6.344 8.738m-6.344-8.738h76.872m-156.675-8.072h73.941m-73.941 0H688m73.942 0-2.716-7.479m76.657 7.479-5.43-7.479m5.43 7.479h73.942M754.353 96.915h66.353m-66.353 0-2.195-6.045m2.195 6.045H688m66.353 0 2.351 6.474m64.002-6.474-4.39-6.045m4.39 6.045 4.7 6.474m-4.7-6.474h66.353M752.158 90.87h64.158m-64.158 0H688m64.158 0-2.054-5.658m66.212 5.658-4.109-5.658m4.109 5.658h64.158M746.366 74.916h58.366m-58.366 0-1.705-4.696m1.705 4.696H688m58.366 0 1.811 4.988m56.555-4.988-3.41-4.696m3.41 4.696 3.622 4.988m-3.622-4.988h58.366M744.661 70.22h56.661m-56.661 0H688m56.661 0-1.608-4.43m58.269 4.43-3.217-4.43m3.217 4.43h56.661M740.095 57.644h52.095m-52.095 0-1.362-3.753m1.362 3.753H688m52.095 0 1.438 3.961m50.657-3.96-2.725-3.754m2.725 3.753 2.876 3.961m-2.876-3.96h52.096M738.733 53.89h50.732m-50.732 0H688m50.733 0-1.294-3.562m52.026 3.562-2.586-3.562m2.586 3.562h50.733M735.041 43.724h47.042m-47.042 0-1.114-3.068m1.114 3.068H688m47.041 0 1.17 3.22m45.872-3.22-2.229-3.068m2.229 3.068 2.338 3.22m-2.338-3.22h47.041m-95.197-3.068h45.927m-45.927 0H688m45.927 0-1.062-2.927m46.989 2.927-2.124-2.927m2.124 2.927h45.928m-94.901-8.39h42.881m-42.881 0-.928-2.555m.928 2.554H688m42.881 0 .97 2.67m41.911-2.67-1.628-2.241-.227-.314m1.855 2.555 1.939 2.67m-1.939-2.67h42.881m-86.69-2.555-.112-.311-.776-2.135m.888 2.447h41.954m-41.954 0H688m83.907 0-.675-.93-.222-.307-.222-.305-.657-.905m1.776 2.447h41.954m-86.464-7.042h39.397m-39.397 0-.784-2.16m.784 2.16H688m39.397 0 .302.833.103.28.101.282.207.568.104.287m38.58-2.25-1.182-1.629-.387-.532m1.569 2.16 1.634 2.25m-1.634-2.25h39.397m-79.578-2.16h38.612m-38.612 0H688m38.613 0-.754-2.075m39.366 2.075-.948-1.307-.188-.257-.185-.257-.186-.255m1.507 2.076h38.613m-79.401-5.993h36.436m-36.436 0-.672-1.851m.672 1.85H688m36.437 0 .697 1.922m35.739-1.921.172.236 1.046 1.44.177.245m-1.395-1.921-1.344-1.851m1.344 1.85h36.437m-73.545-1.85h35.764m-35.764 0H688m35.765 0-.648-1.784m36.412 1.784-.491-.677-.162-.223-.162-.223-.48-.66m1.295 1.783h35.765M721.89 7.5h33.89m-33.89 0-.582-1.603m.582 1.603H688m33.89 0 .603 1.66M755.78 7.5l-.148-.203-.294-.405-.145-.2-.29-.4-.143-.198-.144-.197M755.78 7.5l.598.823.15.208.304.418.153.211M755.78 7.5h33.89m-68.362-1.603-.071-.197-.072-.195-.07-.195-.349-.962m.562 1.549h33.308m-33.308 0H688m66.616 0h33.308m-33.308 0-.285-.392-.142-.195-.14-.194-.419-.577-.139-.19m391.289 161.433h91.35m-91.35 0-20.55-11.319m20.55 11.319h-91.36m91.36 0 22.58 12.438m68.77-12.438-24.65-11.319m24.65 11.319 27.1 12.438m-27.1-12.438h91.36m-203.26-11.319h87.25m-87.25 0h-87.25m87.25 0-18.78-10.344m106.03 10.344-22.54-10.344m22.54 10.344h87.24m-226.36-28.573h76.87m-76.87 0-14.65-8.072m14.65 8.072h-76.871m76.871 0 15.86 8.738m61.01-8.738-17.58-8.072m17.58 8.072 19.04 8.738m-19.04-8.738h76.88m-168.4-8.072h73.94m-73.94 0h-73.943m73.943 0-13.58-7.479m87.52 7.479-16.29-7.479m16.29 7.479h73.94m-185.83-20.903h66.36m-66.36 0-10.97-6.045m10.97 6.045h-66.349m66.349 0 11.76 6.474m54.6-6.474-13.17-6.045m13.17 6.045 14.1 6.474m-14.1-6.474h66.35m-143.68-6.045h64.16m-64.16 0h-64.158m64.158 0-10.271-5.658m74.431 5.658-12.33-5.658m12.33 5.658h64.16M979.83 74.916h58.37m-58.37 0-8.525-4.696m8.525 4.696h-58.366m58.366 0 9.055 4.988m49.315-4.988-10.23-4.696m10.23 4.696 10.86 4.988m-10.86-4.988h58.36M971.305 70.22h56.665m-56.665 0h-56.662m56.662 0-8.042-4.43m64.707 4.43-9.65-4.43m9.65 4.43h56.66M948.476 57.644h52.094m-52.094 0-6.813-3.753m6.813 3.753h-52.095m52.095 0 7.19 3.961m44.904-3.96-8.174-3.754m8.174 3.753 8.63 3.961m-8.63-3.96h52.1M941.663 53.89h50.733m-50.733 0H890.93m50.733 0-6.466-3.562m57.199 3.562-7.759-3.562m7.759 3.562h50.734M923.207 43.724h47.041m-47.041 0-5.57-3.068m5.57 3.068h-47.042m47.042 0 5.846 3.22m41.195-3.22-6.684-3.068m6.684 3.068 7.016 3.22m-7.016-3.22h47.042m-99.653-3.068h45.927m-45.927 0H871.71m45.927 0-5.312-2.927m51.239 2.927-6.374-2.927m6.374 2.927h45.926m-107.084-8.39.594.327.598.329 3.655 2.014m-4.847-2.67h42.881m-42.881 0-4.638-2.555m4.638 2.554h-42.881m85.762 0-5.565-2.555m5.565 2.555 5.817 2.67m-5.817-2.67h42.881m-90.4-2.555h41.954m-41.954 0h-41.953m41.953 0-4.441-2.446m46.395 2.447-5.33-2.447m5.33 2.447h41.953m-96.69-7.042h39.398m-39.398 0-3.921-2.16m3.921 2.16h-39.397m39.397 0 4.084 2.25m35.314-2.25-2.964-1.36-1.742-.8m4.706 2.16 4.9 2.25m-4.9-2.25h39.397m-82.716-2.16h38.613m-38.613 0h-38.613m38.613 0-3.305-1.822-.464-.255m42.382 2.076-4.523-2.075m4.523 2.075h38.612m-88.106-5.993h36.437m-36.437 0-.851-.47-2.508-1.381m3.359 1.85h-36.436m36.436 0 .86.474 1.744.96.884.488m32.949-1.921-4.032-1.851m4.032 1.85 1.55.713 1.047.48 1.588.729m-4.185-1.921h36.436m-76.232-1.851h35.764m-35.764 0h-35.766m35.766 0-2.44-1.344-.798-.44m39.002 1.784-1.474-.677-.971-.446-1.44-.66m3.885 1.783h35.765M857.45 7.5h33.89m-33.89 0-1.831-1.008-1.079-.595m2.91 1.603h-33.89m33.89 0 3.013 1.66M891.34 7.5l-2.631-1.207-.431-.199-.431-.197M891.34 7.5l1.792.823 1.824.837M891.34 7.5h33.889M854.54 5.897h33.307m-33.307 0-1.418-.781-.7-.386-.348-.191-.346-.19m2.812 1.548h-33.308m66.615 0h33.309m-33.309 0-3.373-1.549m469.006 113.47h-73.95m73.95 0-24.44-7.479m24.44 7.479h22.15m-22.15 0 22.15 6.78m-90.45-27.683h66.35m-66.35 0-19.76-6.045m19.76 6.045h-66.36m66.36 0 21.15 6.474m45.2-6.474-21.95-6.045m21.95 6.045 23.5 6.474m-23.5-6.474h24.1m-110.21-6.045h64.16m-64.16 0h-64.16m64.16 0-18.49-5.658m82.65 5.658-20.54-5.658m20.54 5.658h46.05m-162.34-15.954h58.37m-58.37 0-15.34-4.696m15.34 4.696h-58.36m58.36 0 16.3 4.988m42.07-4.988-17.05-4.696m17.05 4.696 18.11 4.988m-18.11-4.988h58.37m-132.08-4.696h56.66m-56.66 0h-56.66m56.66 0-14.48-4.43m71.14 4.43-16.08-4.43m16.08 4.43h56.66m-154.41-12.576h52.09m-52.09 0-12.27-3.753m12.27 3.753h-52.1m52.1 0 12.94 3.961m39.15-3.96-13.62-3.754m13.62 3.753 14.38 3.961m-14.38-3.96h52.1m-116.46-3.754h50.74m-50.74 0h-50.73m50.73 0-11.63-3.562m62.37 3.562-12.94-3.562m12.94 3.562h50.73m-134.69-10.167h47.04m-47.04 0-10.02-3.068m10.02 3.068h-47.04m47.04 0 10.53 3.22m36.51-3.22-11.14-3.068m11.14 3.068 11.7 3.22m-11.7-3.22h47.04m-104.1-3.068h45.92m-45.92 0h-45.93m45.93 0-9.57-2.927m55.49 2.927-10.62-2.927m10.62 2.927h45.93m-119.27-8.39h42.88m-42.88 0-8.35-2.555m8.35 2.554h-42.88m42.88 0 8.73 2.67m34.15-2.67-9.27-2.555m9.27 2.555 9.7 2.67m-9.7-2.67h42.88m-94.11-2.555h41.96m-41.96 0h-41.95m41.95 0-7.99-2.446m49.95 2.447-8.89-2.447m8.89 2.447h41.95m-106.92-7.042h39.4m-39.4 0-7.06-2.16m7.06 2.16h-39.39m39.39 0 7.36 2.25m32.04-2.25-7.84-2.16m7.84 2.16 8.17 2.25m-8.17-2.25h39.4m-85.86-2.16h38.62m-38.62 0h-38.608m38.608 0-6.78-2.076m45.4 2.075-7.54-2.075m7.54 2.075h38.61m-96.81-5.993h36.44m-36.44 0-6.05-1.851m6.05 1.85h-36.437m36.437 0 1.55.474.78.239 3.95 1.209m30.16-1.921-6.72-1.851m6.72 1.85 6.97 1.922m-6.97-1.921h36.43m-78.92-1.851h35.77m-35.77 0h-35.762m35.762 0-5.83-1.784m41.6 1.784-6.48-1.784m6.48 1.784h35.76M993.01 7.5h33.89m-33.89 0-5.239-1.603M993.01 7.5h-33.891m33.891 0 5.424 1.66M1026.9 7.5l-4.38-1.207-.72-.199-.72-.197m5.82 1.603 6.03 1.66m-6.03-1.66h33.89m-73.019-1.603h33.309m-33.309 0-4.437-1.358-.624-.19m5.061 1.548h-33.307m66.616 0h33.31m-33.31 0-5.62-1.549m349.78 53.296-17.72-3.753m17.72 3.753h-52.1m52.1 0 10.39 2.202m-10.39-2.202h10.39m-28.11-3.753h-50.73m50.73 0-16.81-3.562m16.81 3.562h28.11m-76.09-10.167h47.04m-47.04 0-14.48-3.068m14.48 3.068h-47.04m47.04 0 15.2 3.22m31.84-3.22-15.6-3.068m15.6 3.068 16.37 3.22m-16.37-3.22h29.05m-90.57-3.068h45.92m-45.92 0h-45.93m45.93 0-13.82-2.927m59.74 2.927-14.87-2.927m14.87 2.927h44.65m-130.18-8.39h42.89m-42.89 0-12.05-2.555m12.05 2.554h-42.88m42.88 0 12.61 2.67m30.28-2.67-12.99-2.555m12.99 2.555 13.57 2.67m-13.57-2.67h42.88m-97.82-2.555h41.95m-41.95 0h-41.96m41.96 0-11.55-2.446m53.5 2.447-12.43-2.447m12.43 2.447h41.95m-117.14-7.042h39.4m-39.4 0-10.19-2.16m10.19 2.16h-39.4m39.4 0 10.62 2.25m28.78-2.25-10.98-2.16m10.98 2.16 11.43 2.25m-11.43-2.25h39.4m-88.99-2.16h38.61m-38.61 0h-38.62m38.62 0-9.8-2.076m48.41 2.075-10.55-2.075m10.55 2.075h38.61m-105.51-5.993h36.43m-36.43 0-8.74-1.851m8.74 1.85h-36.44m36.44 0 9.06 1.922m27.37-1.921-9.4-1.851m9.4 1.85 9.77 1.922m-9.77-1.921h36.44m-81.61-1.851h35.77m-35.77 0h-35.76m35.76 0-8.42-1.784m44.19 1.784-9.07-1.784m9.07 1.784h35.76m-95.9-5.164h33.89m-33.89 0L1121 5.897m7.57 1.603h-33.89m33.89 0 7.83 1.66m26.06-1.66-8.15-1.603m8.15 1.603 8.44 1.66m-8.44-1.66h33.89M1121 5.897h33.31m-33.31 0-7.31-1.549m7.31 1.549h-33.3m66.61 0h33.31m-33.31 0-7.87-1.549m211.31 18.32-13.33-2.16m13.33 2.16h-39.4m39.4 0 13.89 2.25m-13.89-2.25h17.88m-31.21-2.16h-38.62m38.62 0-12.82-2.075m12.82 2.075h31.21m-68.21-5.993h36.44m-36.44 0L1296 12.663m11.42 1.85h-36.43m36.43 0 11.86 1.922m24.58-1.921-12.1-1.851m12.1 1.85 12.56 1.922m-12.56-1.921h31.77M1296 12.663h35.76m-35.76 0h-35.76m35.76 0-11.01-1.784m46.77 1.784-11.65-1.784m11.65 1.784h35.77M1264.13 7.5h33.89m-33.89 0-9.89-1.603m9.89 1.603h-33.89m33.89 0 10.24 1.66m23.65-1.66-10.48-1.603m10.48 1.603 10.85 1.66m-10.85-1.66h33.89m-77.67-1.603h33.3m-33.3 0-9.56-1.549m9.56 1.549h-33.31m66.61 0h33.31m-33.31 0-10.12-1.549m31.45 4.812 11.24 1.72m-11.24-1.72h34.49m-34.49 0h-34.5m57.54-1.66-11.06-1.603m11.06 1.603 11.45 1.66m-11.45-1.66h33.89m-44.95-1.603h33.31m-33.31 0-10.68-1.549m-32.75 0h-32.74m32.74 0h32.75m-32.75 0-9.78-1.497m75.72 6.31 11.87 1.72m-11.87-1.72h32.27M1365.8 7.5l-11.64-1.603M1365.8 7.5l9.83 1.354M1365.8 7.5h9.83m-21.47-1.603-11.25-1.549m11.25 1.549h21.47m-65.46-1.549h32.74m-32.74 0-10.33-1.497m43.07 1.497-10.87-1.497m10.87 1.497h32.72m-55.52 6.532h35.12m-35.12 0h-35.12m82.54 1.784-12.3-1.784m12.3 1.784 8.1 1.174m-8.1-1.174h8.1m-20.4-1.784h20.4m-90.64 0h-35.12m35.12 0-10.62-1.72m0 0h-34.49m116.54 7.276 13.04 1.997m-13.04-1.997h-37.14m37.14 0h19.21m.11-1.921h-.11m-6.17 3.918h-37.86m37.86 0 6.17.943m-6.17-.944h6.17m-44.03 0h-37.86m37.86 0-12.32-1.996m0 0h-37.13M1170.9 9.16l8.74 1.72m-8.74-1.72h34.49m-34.49 0h-34.5m59.95-1.66-8.73-1.603m8.73 1.603 9.04 1.66m-9.04-1.66h33.89m-42.62-1.603h33.31m-33.31 0-8.44-1.549m-32.74 0h32.74m-32.74 0-7.61-1.497m7.61 1.497h-32.75m91.7 4.812 9.37 1.72m-9.37-1.72h34.49m-9.64-1.66-9.31-1.603m9.31 1.603 9.64 1.66m-18.95-3.263-9-1.549m-32.75 0h32.75m-32.75 0-8.15-1.497m68.85 6.31 9.99 1.72m-5.19-6.533h-32.75m32.75 0-9.25-1.497m-23.5 1.497-8.7-1.497m-23.59 8.03h35.12m-35.12 0h-35.12m79.95 1.783-9.71-1.784m9.71 1.784 10.08 1.85m-10.08-1.85h35.77m-45.48-1.784h35.11m-105.35 0h-35.11m35.11 0-8.12-1.72m113.47 1.72 10.37 1.784M1136.4 9.16h-34.49m132.64 5.354 10.46 1.922m-10.46-1.921h36.44m-10.75-1.851 10.75 1.85m0 0 11.16 1.922m-74.27 0 10.15 1.997m-10.15-1.997h37.13m-37.13 0h-37.14m74.27 0 10.88 1.997m-10.88-1.997h37.14m0 0 11.59 1.997m-75.71 0h37.86m-37.86 0h-37.86m87.02 2.075-11.3-2.075m11.3 2.075 11.77 2.16m-11.77-2.16h38.61m-49.91-2.075h37.85m-113.57 0h-37.86m37.86 0-9.43-1.997m123 1.997 12.06 2.075m-135.06-4.072h-37.13m145.35 6.233 12.25 2.25m-12.25-2.25h39.39m-12.55-2.16 12.55 2.16m0 0 13.07 2.25m-80.43 0 11.93 2.345m-11.93-2.345h40.22m-40.22 0h-40.21m80.43 0 12.77 2.345m-12.77-2.345h40.21m0 0 13.63 2.345m-13.63-2.345h40.22m0 0h3.99m-3.99 0 3.99.646m-112.71 1.699h41.06m-41.06 0h-41.07m95.45 2.447-13.32-2.447m13.32 2.447 13.92 2.554m-13.92-2.555h41.96m-55.28-2.446h41.07m-123.2 0h-41.07m41.07 0-11.07-2.345m134.27 2.345 14.21 2.447m-14.21-2.447h30.58m-164.85-2.345h-40.21m160.65 7.346 14.54 2.67m-14.54-2.67h42.88m-14.84-2.555 14.84 2.555m-14.84-2.555h16.37m.21-2.446h-.21m-1.53 5.001 1.53.264m-1.53-.264h1.53m-73.72 2.67 14.2 2.794m-14.2-2.793h43.85m-43.85 0h-43.85m87.7 0 15.21 2.793m-15.21-2.793h29.87m.37-2.343-.37-.064m-59.52 5.2h44.86m-44.86 0h-44.87m89.73 0h14.66m-14.66 0 14.66 2.691m-104.39-2.69h-44.86m44.86 0-13.18-2.794m0 0h-43.85m148.74 12.008h-48.21m48.21 0 12.68 2.495m-12.68-2.495h12.68m.35-3.22h-.35m-60.89 3.22h-48.21m48.21 0 15.97 3.385m45.06-.862-.14-.028M1032.93 9.16l6.24 1.72m-6.24-1.72h34.49m-34.49 0h-34.496m62.356-1.66-6.4-1.603m6.4 1.603 6.63 1.66m-6.63-1.66h33.89m-40.29-1.603h33.31m-33.31 0-6.19-1.549m-32.74 0h32.74m-32.74 0-2.06-.567-3.38-.93m5.44 1.497h-32.75m84.71 4.812 6.87 1.72m-6.87-1.72h34.49m-7.23-1.66-6.98-1.603m6.98 1.603 7.23 1.66m-14.21-3.263-6.75-1.549m-32.75 0h32.75m-32.75 0-5.98-1.497m59.69 6.31 7.5 1.72m4.28-6.533-7.06-1.497m7.06 1.497h-32.74m0 0-.83-.19-1.65-.377-4.05-.93m-35.25 8.03h35.12m-35.12 0h-35.12m77.36 1.783-7.12-1.784m7.12 1.784 7.39 1.85m-7.39-1.85h35.77m-42.89-1.784h35.12m-105.36 0h-35.112m35.112 0-5.616-1.72m110.976 1.72 7.77 1.784M998.434 9.16h-34.493m124.859 5.354 7.68 1.922m-7.68-1.921h36.44m-8.06-1.851.99.227 7.07 1.623m0 0 8.37 1.922m-74.27 0 .89.245 6.36 1.752m-7.25-1.997h37.14m-37.14 0h-37.13m74.27 0 7.97 1.997m-7.97-1.997h37.13m0 0 8.7 1.997m-75.72 0h37.86m-37.86 0h-37.86m84.01 2.075-8.29-2.075m8.29 2.075 8.63 2.16m-8.63-2.16h38.61m-46.9-2.075h37.86m-113.58 0h-37.858m37.858 0-6.52-1.997m120.1 1.997 9.04 2.075m-129.14-4.072h-37.136m136.296 6.233 8.98 2.25m-8.98-2.25h39.39m-9.41-2.16 9.41 2.16m0 0 9.81 2.25m-80.43 0 8.51 2.345m-8.51-2.345h40.21m-40.21 0h-40.21m80.42 0 9.37 2.345m-9.37-2.345h40.22m0 0 10.21 2.345m-82.13 0h41.07m-41.07 0h-41.06m91.9 2.447-9.77-2.447m9.77 2.447 10.2 2.554m-10.2-2.555h41.95m-51.72-2.446h41.06m-123.19 0h-41.07m41.07 0-7.66-2.345m130.85 2.345 10.66 2.447m-141.51-4.792h-40.22m149.98 7.346 10.67 2.67m-10.67-2.67h42.88m-11.13-2.555 11.13 2.555m0 0 11.64 2.67m-87.7 0 10.14 2.794m-10.14-2.793h43.85m-43.85 0h-43.85m87.7 0 11.15 2.793m-11.15-2.793h43.85m0 0 12.17 2.793m-89.73 0h44.86m-44.86 0h-44.87m101.42 2.927-11.69-2.927m11.69 2.927 12.25 3.068m-12.25-3.068h45.93m-57.62-2.927h44.87m-134.6 0h-44.86m44.86 0-9.12-2.793m143.72 2.793 12.75 2.927m-156.47-5.72h-43.85m166.64 8.788 12.87 3.22m-12.87-3.22h47.05m-13.37-3.068 13.37 3.068m0 0 14.03 3.22m-96.42 0 12.28 3.385m-12.28-3.385h48.21m-48.21 0h-48.21m96.42 0 13.51 3.385m-13.51-3.385h48.21m0 0 14.74 3.385m-98.88 0h49.44m-49.44 0h-49.43m113.1 3.562-14.23-3.562m14.23 3.562 14.99 3.753m-14.99-3.753h50.73m-64.96-3.562h49.44m-148.31 0h-49.44m49.44 0-11.06-3.385m159.37 3.385 15.52 3.562m-15.52-3.562h49.44m-208.81-3.385h-48.22m187.37 10.7 15.81 3.961m-15.81-3.96h52.09m-16.35-3.754 16.35 3.753m17.57-7.315h44.92m-62.49 7.315 17.26 3.961m-107.07 0 15.2 4.185m-15.2-4.185h53.53m-53.53 0h-53.53m107.06 0 16.72 4.185m-16.72-4.185h53.54m0 0 18.23 4.185m-18.23-4.185h45.23m-137.1 4.185h55.05m-55.05 0h-55.06m127.8 4.43-17.69-4.43m17.69 4.43 18.76 4.696m-18.76-4.696h56.66m-74.35-4.43h55.05m-165.16 0h-55.05m55.05 0-13.67-4.185m178.83 4.185 19.3 4.43m-19.3-4.43h27m-205.83-4.185h-53.53m213.76 13.311 19.92 4.988m-19.92-4.988h45.6m-7.7-4.696h7.7m-7.7 0 7.7 1.767m-85.86 7.917 19.27 5.308m-19.27-5.308h60.18m-60.18 0h-60.18m120.36 0 21.19 5.308m-21.19-5.308h25.68m-66.59 5.308h62.1m-62.1 0h-62.11m124.21 0 4.49 1.123m-4.49-1.123h4.49m-128.7 0h-62.1m62.1 0-17.34-5.308m0 0h-60.17m205.61 23.485h-68.7m68.7 0h.6m-.6 0 .6.164m-69.3-.164h-68.7m68.7 0 22.71 6.95M894.956 9.16l1.389.638.467.214 1.891.868m-3.747-1.72h34.492m-34.492 0h-34.493m64.766-1.66-3.068-1.207-1.005-.396m4.073 1.603 3.684 1.45.535.21m-4.219-1.66h33.89m-37.963-1.603h33.308m-33.308 0-3.937-1.549m-32.745 0h32.745m-32.745 0-1.237-.567-2.025-.93m3.262 1.497h-32.746m77.72 4.812 1.079.424 3.293 1.296m-4.372-1.72h34.493m-4.822-1.66-4.655-1.603m4.655 1.603 4.822 1.66m-9.477-3.263-3.389-1.167-1.11-.382m-32.746 0h32.746m-32.746 0-3.805-1.497m50.527 6.31 4.997 1.72m13.772-6.533-.62-.19-4.273-1.307m4.893 1.497h-32.745m0 0-1.648-.567-2.702-.93m-46.912 8.03h35.117m-35.117 0h-35.117m74.767 1.783-4.533-1.784m4.533 1.784 4.703 1.85m-4.703-1.85h35.765M933.82 10.88h35.118m-105.352 0h-35.118m35.118 0-3.123-1.72m108.475 1.72 5.18 1.784M860.463 9.16h-34.492m117.085 5.354 3.03 1.193.615.242 1.238.487m-4.883-1.921h36.437m-5.375-1.851 5.375 1.85m0 0 5.581 1.922m-74.269 0 4.349 1.997m-4.349-1.997h37.134m-37.134 0h-37.134m74.268 0 5.074 1.997m-5.074-1.997h37.135m0 0 5.798 1.997m-75.718 0h37.859m-37.859 0h-37.859m80.994 2.075-3.322-1.307-.654-.257-1.3-.511m5.276 2.075 5.491 2.16m-5.491-2.16h38.613m-43.889-2.075h37.859m-113.577 0h-37.859m37.859 0-3.624-1.997m117.201 1.997 6.03 2.075m-123.231-4.072h-37.134m127.243 6.233 5.718 2.25m-5.718-2.25h39.4m-6.278-2.16 6.278 2.16m0 0 6.53 2.25m-80.427 0 2.528 1.16.64.294 1.941.89m-5.109-2.344h40.215m-40.215 0h-40.214m80.429 0 5.959 2.345m-5.959-2.345h40.212m0 0 6.81 2.345m-82.128 0h41.065m-41.065 0h-41.065m88.348 2.447-6.218-2.447m6.218 2.447 6.493 2.554m-6.493-2.555h41.955m-48.173-2.446h41.063m-123.193 0h-41.066m41.066 0-1.082-.596-3.176-1.75m127.451 2.346 7.11 2.447m-134.561-4.792h-40.213m139.312 7.346 6.786 2.67m-6.786-2.67h42.882m-7.42-2.555 7.42 2.555m0 0 7.76 2.67m-87.706 0 6.086 2.794m-6.086-2.793h43.85m-43.85 0h-43.851m87.701 0 7.096 2.793m-7.096-2.793h43.856m0 0 8.11 2.793m-89.73 0h44.86m-44.86 0h-44.865m97.165 2.927-7.44-2.927m7.44 2.927 7.8 3.068m-7.8-3.068h45.93m-53.37-2.927h44.87m-134.595 0H867.46m44.865 0-5.072-2.793m139.667 2.793 8.5 2.927m-148.167-5.72h-43.85m153.887 8.788 8.18 3.22m-8.18-3.22h47.04m-8.91-3.068 8.91 3.068m0 0 9.35 3.22m-96.416 0 7.373 3.385m-7.373-3.385h48.206m-48.206 0h-48.211m96.417 0 8.61 3.385m-8.61-3.385h48.21m0 0 9.84 3.385m-98.883 0h49.443m-49.443 0h-49.44m107.933 3.562-9.05-3.562m9.05 3.562 9.54 3.753m-9.54-3.753h50.73m-59.78-3.562h49.44m-148.323 0h-49.439m49.439 0-6.144-3.385m154.467 3.385 10.34 3.562m-164.807-6.947h-48.211m171.828 10.7 10.06 3.961m-10.06-3.96h52.09m-10.9-3.754 10.9 3.753m0 0 11.51 3.961m-107.07 0 9.12 4.185m-9.12-4.185h53.53m-53.53 0h-53.534m107.064 0 10.64 4.185m-10.64-4.185h53.54m0 0 12.15 4.185m-110.1 0h55.05m-55.05 0h-55.057m121.367 4.43-11.26-4.43m11.26 4.43 11.93 4.696m-11.93-4.696h56.66m-67.92-4.43h55.05m-165.157 0h-55.052m55.052 0-7.597-4.185m172.754 4.185 12.87 4.43m-185.624-8.615h-53.533m194.427 13.311 12.68 4.988m-12.68-4.988h58.37m-13.64-4.696 13.64 4.696m0 0 14.49 4.988m-120.36 0 11.56 5.308m-11.56-5.308h60.18m-60.18 0h-60.175m120.355 0 13.49 5.308m-13.49-5.308h60.18m0 0 15.41 5.308m-124.21 0h62.11m-62.11 0h-62.101m138.591 5.658-14.38-5.658m14.38 5.658 15.36 6.045m-15.36-6.045h64.15m-78.53-5.658h62.1m-186.311 0h-62.104m62.104 0-9.634-5.308m195.945 5.308 16.43 5.658M988.885 79.904h-60.177m223.762 17.011 16.45 6.474m-16.45-6.474h66.35m-17.56-6.045 17.56 6.045m0 0 18.81 6.474m-137.41 0 15.14 6.95m-15.14-6.95h68.7m-68.7 0h-68.7m137.4 0 17.66 6.95m-17.66-6.95h68.71m0 0 20.18 6.95m-142.45 0h71.22m-71.22 0h-71.23m161.46 7.479-19.01-7.479m19.01 7.479 20.52 8.072m-20.52-8.072h73.94m-92.95-7.479h71.23m-213.68 0h-71.225m71.225 0-12.61-6.95m226.29 6.95 21.72 7.479m-21.72-7.479h71.23m-297.52-6.95h-68.707m263.297 22.501 22.2 8.738m-22.2-8.738h76.87m-23.45-8.072 23.45 8.072m26.06-15.551h46.59m-72.65 15.551 25.38 8.738m-25.38-8.738h72.65m-207.36 8.738 20.67 9.491m-20.67-9.491h80.04m-80.04 0h-80.05m160.09 0 24.12 9.491m-24.12-9.491h80.05m0 0 27.56 9.491m-27.56-9.491h47.27m-186.69 9.491h83.49m-83.49 0h-83.49m193.27 10.344-26.29-10.344m26.29 10.344 28.77 11.319m-28.77-11.319h76.91m-103.2-10.344h83.49m-250.47 0h-83.49m83.49 0-17.23-9.491m267.7 9.491h19.71m-19.71 0 19.71 6.784m-287.41-16.275h-80.04m319.31 31.154 31.61 12.438m-31.61-12.438h48.14m-112.4 12.438 29.91 13.731m-29.91-13.731h95.87m-95.87 0h-95.87m191.74 0 16.53 6.505m-16.53-6.505h16.53m-82.49 13.731h-100.86m100.86 0h82.49m-183.35 0h-100.85m100.85 0-24.92-13.731m0 0h-95.88M756.985 9.16l.154.212.154.212.156.214.155.214.472.65.158.218m-1.249-1.72h34.493m-34.493 0h-34.492M789.67 7.5l-1.315-1.207-.431-.396M789.67 7.5l1.123 1.03.685.63M789.67 7.5h33.89m-35.636-1.603h33.308m-33.308 0-1.271-1.167-.417-.382m-32.745 0-.137-.19-.546-.752-.404-.555m1.087 1.497h32.745m-32.745 0h-32.745m70.732 4.812.23.212.232.212.232.214.235.214.944.868m-1.873-1.72h34.493M823.56 7.5l-1.754-1.207-.574-.396M823.56 7.5l2.411 1.66m-4.739-3.263-1.135-.781-.838-.577-.276-.19m-32.747 0-.206-.191-.411-.377-.408-.375-.202-.186-.404-.37m1.631 1.498h32.747m6.988 4.812 1.865 1.284.632.436m23.26-6.532-2.047-1.128-.671-.37m2.718 1.498h-32.745m0 0-1.907-1.313-.269-.184m-58.573 8.03h35.117m-35.117 0h-35.117m72.177 1.783-1.943-1.784m1.943 1.784 2.016 1.85m-2.016-1.85h35.764m-37.707-1.784h35.117m-105.351 0H688m35.117 0-.624-1.72m105.975 1.72 2.59 1.784M722.493 9.16H688m109.31 5.354.516.474.783.719.793.729m-2.092-1.921h36.437m-2.689-1.851.331.227 2.358 1.623m0 0 .342.237.345.237.346.239 1.757 1.209m-74.269 0 1.45 1.997m-1.45-1.997h37.134m-37.134 0h-37.134m74.268 0 2.175 1.997m-2.175-1.997h37.135m0 0 2.163 1.49.368.253.368.254m-75.718 0h37.859m-37.859 0h-37.859m77.979 2.075.289.266.291.266.291.268 1.482 1.36m-2.353-2.16-1.141-1.048-.283-.259-.28-.257-.557-.511m2.261 2.075h38.613m-40.874-2.075h37.859m-113.577 0H688m37.859 0-.725-1.997m114.302 1.997 3.015 2.075m-117.317-4.072H688m118.191 6.233 2.139 1.963.312.287m-2.451-2.25h39.397m-3.137-2.16.773.531 2.364 1.629m0 0 1.21.833 2.058 1.417m-80.428 0 .843 1.16.213.294.647.89m-1.703-2.344h40.214m-40.214 0h-40.214m80.428 0 2.554 2.345m-2.554-2.345h40.214m0 0 3.405 2.345m-82.13 0h41.065m-41.065 0h-41.066m84.796 2.447-2.665-2.447m2.665 2.447 2.782 2.554m-2.782-2.555h41.954m-44.619-2.446h41.065m-123.196 0H688m41.065 0-.216-.596-.426-1.172-.209-.577m124.047 2.345 3.554 2.447m-127.601-4.792H688m128.643 7.346 2.169 1.992.74.679m-2.909-2.67h42.882m-3.71-2.555 3.71 2.554m0 0 1.917 1.32 1.961 1.35m-87.702 0 2.029 2.794m-2.029-2.793h43.851m-43.851 0h-43.85m87.701 0 3.043 2.793m-3.043-2.793h43.851m0 0 4.057 2.793m-89.73 0h44.865m-44.865 0h-44.865m92.917 2.927-.811-.745-2.376-2.182m3.187 2.927 3.342 3.068m-3.342-3.068h45.928m-49.115-2.927h44.865m-134.595 0H688m44.865 0-1.014-2.793m135.609 2.793 4.25 2.927m-139.859-5.72H688m141.124 8.788 3.507 3.22m-3.507-3.22h47.041m-4.455-3.068 4.455 3.068m0 0 4.677 3.22m-96.421 0 2.458 3.385m-2.458-3.385h48.21m-48.21 0h-48.21m96.42 0 3.687 3.385m-3.687-3.385h48.211m0 0 4.916 3.385m-98.879 0h49.439m-49.439 0h-49.44m102.759 3.562-3.88-3.562m3.88 3.562 4.088 3.753m-4.088-3.753h50.732m-54.612-3.562h49.44m-148.319 0H688m49.439 0-1.079-2.97-.149-.415m149.547 3.385 5.172 3.562m-154.719-6.947H688m156.286 10.7 4.314 3.961m-4.314-3.96h52.095m-5.451-3.754 4.061 2.797 1.39.956m0 0 5.752 3.961m-107.067 0 3.039 4.185m-3.039-4.185H848.6m-53.534 0h-53.533m107.067 0 4.558 4.185m-4.558-4.185h53.533m0 0 6.078 4.185m-110.106 0h55.053m-55.053 0h-55.052m114.93 4.43-4.825-4.43m4.825 4.43 5.115 4.696m-5.115-4.696h56.66m-61.485-4.43h55.053m-165.158 0H688m55.053 0-1.52-4.185m166.678 4.185 6.432 4.43m-173.11-8.615H688m175.098 13.311 5.433 4.988m-5.433-4.988h58.366m-6.821-4.696 6.821 4.696m0 0 7.244 4.988m-120.354 0 3.853 5.308m-3.853-5.308h60.177m-60.177 0h-60.177m120.354 0 5.78 5.308m-5.78-5.308h60.177m0 0 7.707 5.308m-124.208 0h62.104m-62.104 0h-62.103m130.37 5.658-6.163-5.658m6.163 5.658 6.585 6.045m-6.585-6.045h64.158m-70.321-5.658h62.104m-186.311 0H688m62.104 0-1.927-5.308m188.238 5.308 8.217 5.658M748.177 79.904H688m199.059 17.011 7.051 6.474m-7.051-6.474h66.352m-8.779-6.045 8.779 6.045m0 0 9.402 6.474m-137.407 0 5.047 6.95m-5.047-6.95h68.704m-68.704 0h-68.702m137.406 0 7.569 6.95m-7.569-6.95h68.703m0 0 10.092 6.95m-142.452 0h71.226m-71.226 0h-71.227m150.599 7.479-8.146-7.479m8.146 7.479 8.792 8.072m-8.792-8.072h73.942m-82.088-7.479h71.226m-213.679 0H688m71.226 0-2.522-6.95m216.201 6.95 10.862 7.479m-227.063-14.429H688m230.617 22.501 9.518 8.738m-9.518-8.738h76.872m-11.722-8.072 11.722 8.072m0 0 12.691 8.738m-160.091 0 6.892 9.491m-6.892-9.491h80.046m-80.046 0h-80.044m160.09 0 10.336 9.491m-10.336-9.491h80.045m0 0 13.78 9.491m-166.979 0h83.49m-83.49 0H771.49m178.248 10.344-11.267-10.344m11.267 10.344 12.328 11.319m-12.328-11.319h87.242m-98.509-10.344h83.489m-250.47 0H688m83.49 0-3.445-9.491m253.915 9.491 15.02 10.344m-268.935-19.835H688m274.066 31.154 13.547 12.438m-13.547-12.438h91.354m-16.44-11.319 16.44 11.319m0 0 18.06 12.438m-191.738 0 9.971 13.731m-9.971-13.731h95.871m-95.871 0h-95.871m191.742 0 14.956 13.731m-14.956-13.731h95.867m0 0 19.95 13.731m-100.861 0H889.713m100.856 0h100.861m-201.717 0H788.857m0 0H688m100.857 0-4.986-13.731m0 0H688M619.015 9.16l-.154.212-.154.212-.155.214-.156.214-.314.432-.158.218-.158.218m1.249-1.72h34.493m-34.493 0h-34.493M654.11 7.5l.582-1.603M654.11 7.5l-.602 1.66m.602-1.66H688m-33.308-1.603.071-.197.072-.195.07-.195.35-.962m-.563 1.549H688m-65.491-1.549.138-.19.545-.752.404-.555m-1.087 1.497h32.746m-32.746 0h-32.745m63.744 4.812-.078.212-.076.212-.079.214-.392 1.082m.625-1.72H688m0-1.66V5.897m0 1.603v1.66m0-3.263V4.348m-32.745 0H688m-32.745 0 .205-.567.069-.188.269-.742M688 9.16v1.72m32.746-6.533-.206-.567-.069-.188-.067-.187-.068-.186-.067-.185-.067-.184m.544 1.497H688m0 0V2.851m-70.234 8.03h35.117m-35.117 0h-35.117m69.586 1.783-.083.227-.082.229-.506 1.395m.671-1.851.648-1.784m-.648 1.784H688m-35.117-1.784H688m-105.351 0h-35.117m35.117 0 .474-.436.236-.216.234-.216.235-.214.232-.214.232-.212.23-.212M688 10.88v1.784M584.522 9.16h-34.493m101.535 5.354-.698 1.922m.698-1.921H688m0-1.851v1.85m0 0v1.922m-74.268 0-1.45 1.997m1.45-1.997h37.134m-37.134 0h-37.134m74.268 0-.725 1.997m.725-1.997H688m0 0v1.997m-75.718 0h37.859m-37.859 0h-37.859m74.964 2.075.754-2.075m-.754 2.075-.784 2.16m.784-2.16H688m-37.859-2.075H688m-113.577 0h-37.859m37.859 0 2.175-1.997M688 18.433v2.075m-111.402-4.072h-37.135m109.14 6.233-.302.833-.307.845-.208.572m.817-2.25H688m0-2.16v2.16m0 0v2.25m-80.428 0-.843 1.16-.212.294-.648.89m1.703-2.344h40.214m-40.214 0h-40.214m80.428 0-.209.577-.426 1.172-.216.596m.851-2.345H688m0 0v2.345m-82.131 0h41.066m-41.066 0h-41.065m81.243 2.447.112-.312.776-2.135m-.888 2.447-.928 2.554m.928-2.555H688m-41.065-2.446H688m-123.196 0h-41.065m41.065 0 2.554-2.345M688 27.264v2.447m-120.642-4.792h-40.214m117.975 7.346-.97 2.67m.97-2.67H688m0-2.555v2.555m0 0v2.67m-87.701 0-2.029 2.794m2.029-2.793h43.85m-43.85 0h-43.851m87.701 0-1.014 2.793m1.014-2.793H688m0 0v2.793m-89.73 0h44.865m-44.865 0h-44.865m88.668 2.927 1.062-2.927m-1.062 2.927-1.114 3.068m1.114-3.068H688m-44.865-2.927H688m-134.595 0H508.54m44.865 0 3.043-2.793M688 37.729v2.927m-131.552-5.72h-43.851m128.362 8.788-1.17 3.22m1.17-3.22H688m0-3.068v3.068m0 0v3.22m-96.421 0-2.458 3.385m2.458-3.385h48.21m-48.21 0h-48.21m96.42 0-1.228 3.385m1.228-3.385H688m0 0v3.385m-98.879 0h49.44m-49.44 0h-49.439m97.585 3.562 1.294-3.562m-1.294 3.562-1.362 3.753m1.362-3.753H688m-49.439-3.562H688m-148.318 0h-49.44m49.44 0 3.687-3.385M688 50.33v3.562m-144.631-6.947h-48.211m140.747 10.7-1.438 3.961m1.438-3.96H688m0-3.754v3.753m0 0v3.961m-107.066 0-3.039 4.185m3.039-4.185h53.533m-53.533 0h-53.533m107.066 0-1.52 4.185m1.52-4.185H688m0 0v4.185m-110.105 0h55.052m-55.052 0h-55.053m108.497 4.43 1.608-4.43m-1.608 4.43-1.705 4.696m1.705-4.696H688m-55.053-4.43H688m-165.158 0H467.79m55.052 0 4.559-4.185M688 65.79v4.43m-160.599-8.615h-53.534m155.767 13.311-1.811 4.988m1.811-4.988H688m0-4.696v4.696m0 0v4.988m-120.354 0-3.853 5.308m3.853-5.308h60.177m-60.177 0h-60.177m120.354 0-1.927 5.308m1.927-5.308H688m0 0v5.308m-124.207 0h62.103m-62.103 0h-62.104m122.153 5.658 2.054-5.658m-2.054 5.658-2.195 6.045m2.195-6.045H688m-62.104-5.658H688m-186.311 0h-62.104m62.104 0 5.78-5.308M688 85.212v5.658M507.469 79.904h-60.177m174.355 17.011-2.35 6.474m2.35-6.474H688m0-6.045v6.045m0 0v6.474m-137.406 0-5.046 6.95m5.046-6.95h68.703m-68.703 0H481.89m137.407 0-2.523 6.95m2.523-6.95H688m0 0v6.95m-142.452 0h71.226m-71.226 0h-71.227m139.737 7.479 2.716-7.479m-2.716 7.479-2.93 8.072m2.93-8.072H688m-71.226-7.479H688m-213.679 0h-71.226m71.226 0 7.569-6.95m206.11 6.95v7.479m-206.11-14.429h-68.703m197.941 22.501-3.173 8.738m3.173-8.738H688m0-8.072v8.072m0 0v8.738m-160.089 0-6.892 9.491m6.892-9.491h80.044m-80.044 0h-80.046m160.09 0-3.445 9.491m3.445-9.491H688m0 0v9.491m-166.981 0h83.491m-83.491 0h-83.49m163.225 10.344 3.756-10.344m-3.756 10.344-4.109 11.319m4.109-11.319H688m-83.49-10.344H688m-250.471 0h-83.491m83.491 0 10.336-9.491M688 144.119v10.344m-240.135-19.835h-80.044m228.824 31.154-4.516 12.438m4.516-12.438H688m0-11.319v11.319m0 0v12.438m-191.742 0-9.971 13.731m9.971-13.731h95.871m-95.871 0h-95.871m191.742 0-4.986 13.731m4.986-13.731H688m0 0v13.731m-100.857 0H486.287m100.856 0H688m-201.713 0H385.431m0 0H284.574m100.857 0 14.956-13.731m0 0h-95.872M481.044 9.16l-1.856.852-1.891.868m3.747-1.72h34.493m-34.493 0h-34.492M518.55 7.5l2.91-1.603M518.55 7.5l-3.013 1.66m3.013-1.66h33.89m-30.98-1.603h33.308m-33.308 0 2.118-1.167.694-.382m-32.746 0h32.746m-32.746 0 1.237-.567 2.025-.93m-3.262 1.497h-32.745m56.756 4.812-3.122 1.72m3.122-1.72h34.492m2.411-1.66 2.328-1.603M552.44 7.5l-2.411 1.66m4.739-3.263 1.135-.781.838-.577.276-.19m-32.745 0h32.745m-32.745 0 2.047-1.129.671-.37m23.039 6.31-1.865 1.284-.632.436m42.232-6.532.206-.19.411-.377.61-.56.404-.37m-1.631 1.497h-32.747m0 0 .276-.19.549-.377 1.35-.93m-81.895 8.03h35.118m-35.118 0H442.18m66.996 1.783.412-.227.409-.225 1.619-.892.799-.44m-3.239 1.784-2.507 1.381-.852.47m3.359-1.851h35.766m-32.527-1.784h35.117m-105.352 0h-35.118m35.118 0 3.293-1.296 1.079-.424m100.98 1.72-2.59 1.784m-98.39-3.504h-34.493m93.758 5.354-.428.237-.432.237-1.304.719-.44.242-.884.487m3.488-1.921h36.436m2.689-1.851-.331.227-2.358 1.623m0 0-.342.237-.345.237-.346.239-1.757 1.209m-74.268 0-4.349 1.997m4.349-1.997h37.134m-37.134 0h-37.134m74.268 0-3.624 1.997m3.624-1.997h37.134m0 0-2.899 1.997m-75.718 0h37.859m-37.859 0h-37.859m71.95 2.075 3.768-2.075m-3.768 2.075-3.922 2.16m3.922-2.16h38.612m-34.844-2.075h37.859m-113.577 0h-37.859m37.859 0 5.074-1.997m108.503 1.997-3.015 2.075m-105.488-4.072h-37.135m100.089 6.233-4.084 2.25m4.084-2.25h39.397m3.137-2.16-.773.531-2.364 1.629m0 0-1.21.833-1.228.845-.83.572m-80.428 0-2.527 1.16-2.581 1.185m5.108-2.345h40.215m-40.215 0h-40.214m80.429 0-4.258 2.345m4.258-2.345h40.213m0 0-3.405 2.345m-82.131 0h41.065m-41.065 0h-41.065m77.689 2.447 4.441-2.447m-4.441 2.447-4.638 2.554m4.638-2.555h41.953m-37.512-2.446h41.066m-123.196 0h-41.066m41.066 0 5.959-2.345m117.237 2.345-3.554 2.447m-113.683-4.792h-40.213m107.305 7.346-1.192.657-3.655 2.014m4.847-2.67h42.881m3.71-2.555-3.71 2.554m0 0-.475.328-1.442.992-1.961 1.35m-87.701 0-6.086 2.794m6.086-2.793h43.851m-43.851 0h-43.85m87.701 0-5.072 2.793m5.072-2.793h43.85m0 0-4.057 2.793m-89.73 0h44.865m-44.865 0h-44.865m84.418 2.927 3.35-1.845 1.962-1.082m-5.312 2.927-5.57 3.068m5.57-3.068h45.927m-40.615-2.927h44.865m-134.595 0H329.08m44.865 0 7.101-2.793m127.494 2.793-4.25 2.927m-123.244-5.72h-43.851m115.598 8.788-5.846 3.22m5.846-3.22h47.042m4.455-3.068-4.455 3.068m0 0-4.677 3.22m-96.422 0-7.373 3.385m7.373-3.385h48.211m-48.211 0h-48.21m96.421 0-6.144 3.385m6.144-3.385h48.211m0 0-4.916 3.385m-98.879 0h49.44m-49.44 0h-49.439m92.413 3.562 6.466-3.562m-6.466 3.562-6.813 3.753m6.813-3.753h50.733m-44.267-3.562h49.439m-148.318 0h-49.439m49.439 0 8.602-3.385m139.716 3.385-5.172 3.562m-134.544-6.947h-48.21m125.208 10.7-7.19 3.961m7.19-3.96h52.095m5.451-3.754-5.451 3.753m0 0-5.752 3.961m-107.066 0-9.117 4.185m9.117-4.185h53.533m-53.533 0h-53.533m107.066 0-7.597 4.185m7.597-4.185h53.533m0 0-6.077 4.185m-110.106 0h55.053m-55.053 0h-55.052m102.063 4.43 8.042-4.43m-8.042 4.43-8.525 4.696m8.525-4.696h56.662m-48.62-4.43h55.053m-165.158 0h-55.053m55.053 0 10.636-4.185M467.79 65.79l-6.433 4.43m-148.089-8.615h-53.533M396.17 74.916l-9.055 4.988m9.055-4.988h58.366m6.821-4.696-6.821 4.696m0 0-7.244 4.988m-120.353 0-11.561 5.308m11.561-5.308h60.176m-60.176 0h-60.177m120.353 0-9.634 5.308m9.634-5.308h60.177m0 0-7.707 5.308m-124.207 0h62.103m-62.103 0h-62.104M367.21 90.87l10.271-5.658M367.21 90.87l-10.975 6.045m10.975-6.045h64.158m-53.887-5.658h62.104m-186.311 0H191.17m62.104 0 13.488-5.308m172.823 5.308-8.217 5.658M266.762 79.904h-60.177m149.65 17.011-11.751 6.474m11.751-6.474h66.354m8.779-6.045-8.779 6.045m0 0-9.402 6.474m-137.407 0-15.138 6.95m15.138-6.95h68.704m-68.704 0h-68.703m137.407 0-12.615 6.95m12.615-6.95h68.703m0 0-10.092 6.95m-142.453 0h71.227m-71.227 0h-71.226m128.876 7.479 13.577-7.479m-13.577 7.479-14.653 8.072m14.653-8.072h73.941m-60.364-7.479h71.226m-213.679 0H118.19m71.226 0 17.661-6.95m196.018 6.95-10.862 7.479m-185.156-14.429h-68.704m165.266 22.501-15.863 8.738m15.863-8.738h76.872m11.722-8.072-11.722 8.072m0 0-12.69 8.738m-160.089 0-20.675 9.491m20.675-9.491h80.044m-80.044 0h-80.046m160.09 0-17.228 9.491m17.228-9.491h80.045m0 0-13.783 9.491m-166.981 0h83.491m-83.491 0h-83.49m148.203 10.344 18.778-10.344m-18.778 10.344-20.547 11.319m20.547-11.319h87.246m-68.468-10.344h83.49m-250.471 0h-83.49m83.49 0 24.119-9.491m226.352 9.491-15.022 10.344m-211.33-19.835H47.642m183.581 31.154-22.578 12.438m22.578-12.438h91.356m16.437-11.319-16.437 11.319m0 0-18.064 12.438m-191.742 0-29.911 13.731m29.911-13.731h95.872m-95.872 0h-95.87m191.742 0-24.927 13.731m24.927-13.731h95.87m0 0-19.941 13.731m-100.856 0H82.862m100.856 0h100.856m-201.713 0H.372m16.531-13.731L.37 184.725m16.532-6.505H.37M343.073 9.16l-6.245 1.72m6.245-1.72h34.493m-34.493 0h-34.492M382.99 7.5l5.239-1.603M382.99 7.5l-5.424 1.66m5.424-1.66h33.891m-28.652-1.603h33.307m-33.307 0 5.061-1.549m-32.746 0h32.746m-32.746 0 2.06-.567 3.377-.93m-5.437 1.497h-32.746m49.768 4.812-5.621 1.72m5.621-1.72h34.493m4.822-1.66 4.655-1.603M416.881 7.5l-4.822 1.66m9.477-3.263 3.389-1.167 1.11-.382m-32.745 0 .62-.19 4.273-1.307m-4.893 1.497h32.745M412.059 9.16l-4.997 1.72m51.719-6.532 3.805-1.497m-3.805 1.497h-32.746m0 0 1.649-.567 2.701-.93m-93.557 8.03h35.117m-35.117 0h-35.117m64.407 1.783 5.827-1.784m-5.827 1.784-6.047 1.85m6.047-1.85h35.764m-29.937-1.784h35.117m-105.351 0h-35.117m35.117 0 6.87-1.72m98.481 1.72-5.18 1.784M308.581 9.16h-34.493m85.983 5.354-1.548.474-4.731 1.448m6.279-1.921h36.436m5.375-1.851-5.375 1.85m0 0-5.581 1.922m-74.268 0-.891.245-6.357 1.752m7.248-1.997h37.134m-37.134 0h-37.134m74.268 0-6.523 1.997m6.523-1.997h37.134m0 0-.712.245-5.086 1.752m-75.718 0h37.859m-37.859 0h-37.859m68.935 2.075 6.783-2.075m-6.783 2.075-7.059 2.16m7.059-2.16h38.612m-31.829-2.075h37.859m-113.577 0h-37.859m37.859 0 7.973-1.997m105.604 1.997-6.03 2.075m-99.574-4.072h-37.135m91.038 6.233-7.352 2.25m7.352-2.25h39.397m6.274-2.16-6.274 2.16m0 0-6.535 2.25m-80.428 0-8.514 2.345m8.514-2.345h40.214m-40.214 0h-40.214m80.428 0-7.663 2.345m7.663-2.345h40.214m0 0-6.812 2.345m-82.13 0h41.065m-41.065 0h-41.066m74.137 2.447 7.994-2.447m-7.994 2.447-8.349 2.554m8.349-2.555h41.953m-33.959-2.446h41.065m-123.196 0h-41.065m41.065 0 9.366-2.345m113.83 2.345-7.106 2.447m-106.724-4.792h-40.214m96.636 7.346-8.725 2.67m8.725-2.67h42.882m7.42-2.555-7.42 2.555m0 0-7.756 2.67m-87.701 0L239.35 37.73m10.144-2.793h43.85m-43.85 0h-43.851m87.701 0-9.129 2.793m9.129-2.793h43.851m0 0-8.115 2.793m-89.73 0h44.865m-44.865 0h-44.865m80.169 2.927 9.561-2.927m-9.561 2.927-10.025 3.068m10.025-3.068h45.927m-36.366-2.927h44.865m-134.595 0H149.62m44.865 0 11.158-2.793M329.08 37.73l-8.499 2.927m-114.938-5.72h-43.851m102.837 8.788-10.524 3.22m10.524-3.22h47.041m8.911-3.068-8.911 3.068m0 0-9.354 3.22m-96.422 0-12.288 3.385m12.288-3.385h48.211m-48.211 0h-48.21m96.421 0-11.06 3.385m11.06-3.385h48.211m0 0-9.831 3.385m-98.879 0h49.439m-49.439 0h-49.44m87.24 3.562 11.639-3.562m-11.639 3.562-12.263 3.753m12.263-3.753h50.733m-39.094-3.562h49.44m-148.319 0h-49.44m49.44 0 13.518-3.385m134.801 3.385-10.346 3.562m-124.455-6.947h-48.21m109.669 10.7-12.941 3.961m12.941-3.96h52.095m10.901-3.754-10.901 3.753m0 0-11.503 3.961m-107.067 0-15.194 4.185m15.194-4.185h53.534m-53.534 0H99.135m107.067 0-13.676 4.185m13.676-4.185h53.533m0 0-12.156 4.185m-110.105 0h55.052m-55.052 0H82.421m95.631 4.43 14.474-4.43m-14.474 4.43-15.346 4.696m15.346-4.696h56.66m-42.186-4.43h55.053m-165.158 0H27.368m55.053 0 16.714-4.185M247.58 65.79l-12.867 4.43M99.135 61.605H45.602m117.104 13.311-16.298 4.988m16.298-4.988h58.366m13.64-4.696-13.64 4.696m0 0-14.487 4.988m-120.354 0-19.268 5.308m19.268-5.308h60.177m-60.177 0H26.054m120.354 0-17.341 5.308m17.341-5.308h60.177m0 0-15.415 5.308m-124.207 0h62.104m-62.104 0H4.859m105.718 5.658 18.49-5.658m-18.49 5.658-19.753 6.045m19.753-6.045h64.158m-45.668-5.658h62.103m-186.31 0 21.194-5.308M4.859 85.212H.37m4.49 0L.37 86.335m190.8-1.123-16.435 5.658M26.054 79.904H.37m90.454 17.011L69.67 103.39m21.153-6.474h66.352m17.559-6.045-17.559 6.045m0 0-18.803 6.474m-137.406 0H69.67m-68.704 0H.37m.597 0-.597.164m69.3-.164-22.707 6.95m22.708-6.95h68.702m0 0-20.183 6.95m-95.665 7.479 24.438-7.479m-24.438 7.479h73.942m-73.942 0H.37m22.155 0L.37 124.598m46.593-14.259h71.227m-71.227 0H.37m117.82 0-21.723 7.479m0 0-23.445 8.072m0 0-25.38 8.738m25.38-8.738H.37m47.272 8.738-27.565 9.491m27.565-9.491H.37m19.707 9.491H.37m19.707 0L.37 150.903M205.103 9.16l-8.743 1.72m8.743-1.72h34.493m-34.493 0H170.61m76.821-1.66 7.566-1.603M247.431 7.5l-7.835 1.66m7.835-1.66h33.89m-26.324-1.603h33.307m-33.307 0 7.31-1.549m-32.745 0h32.745m-32.745 0 7.611-1.497m-7.611 1.497h-32.746m42.78 4.812-8.119 1.72m8.119-1.72h34.492m7.233-1.66 6.983-1.603M281.321 7.5l-7.233 1.66m14.216-3.263 6.749-1.549m-32.746 0 .896-.19 6.172-1.307m-7.068 1.497h32.746M274.088 9.16l-7.494 1.72m61.204-6.532 5.98-1.497m-5.98 1.497h-32.745m0 0 .827-.19 5.696-1.307M196.36 10.88h35.117m-35.117 0h-35.117m61.815 1.783 8.419-1.784m-8.419 1.784-8.734 1.85m8.734-1.85h35.766m-27.347-1.784h35.117m-105.351 0h-35.117m35.117 0 9.367-1.72m95.984 1.72-7.77 1.784M170.61 9.16h-34.492m78.206 5.354-9.069 1.922m9.069-1.921h36.437m8.063-1.851-.992.227-7.071 1.623m0 0-8.372 1.922m-74.268 0-10.147 1.997m10.147-1.997h37.134m-37.134 0h-37.134m74.268 0-9.422 1.997m9.422-1.997h37.134m0 0-8.697 1.997m-75.718 0h37.859m-37.859 0h-37.859m65.92 2.075 9.798-2.075m-9.798 2.075-10.197 2.16m10.197-2.16h38.612m-28.814-2.075h37.859m-113.577 0h-37.86m37.86 0 10.872-1.997m102.705 1.997-9.045 2.075m-93.66-4.072H93.853m81.985 6.233-10.618 2.25m10.618-2.25h39.397m9.412-2.16-9.412 2.16m0 0-9.802 2.25m-80.428 0-11.92 2.345m11.92-2.345h40.215m-40.215 0H84.791m80.429 0-11.069 2.345m11.069-2.345h40.213m0 0-10.217 2.345m-82.131 0h41.066m-41.066 0H72.02m70.583 2.447 11.548-2.447m-11.548 2.447-12.058 2.554m12.058-2.555h41.954m-30.406-2.446h41.065m-123.196 0H30.955m41.065 0 12.771-2.345m110.425 2.345-10.659 2.447m-99.766-4.792H44.578m85.967 7.346-12.604 2.67m12.604-2.67h42.881m11.131-2.555-11.131 2.555m0 0-11.634 2.67m-87.701 0-14.2 2.794m14.2-2.793h43.85m-43.85 0H30.24m87.7 0-13.186 2.793m13.186-2.793h43.851m0 0-12.172 2.793m-89.73 0h44.865m-13.811 2.927 13.811-2.927m-13.811 2.927-14.48 3.068m14.48-3.068h45.928m-32.117-2.927h44.865m0 0-12.748 2.927M30.24 34.936H.37m76.093 8.788-15.201 3.22m15.2-3.22h47.042m13.367-3.068-13.367 3.068m0 0-14.031 3.22m-96.422 0h48.21m-48.21 0H.37m12.682 0L.37 49.44m60.893-2.495L45.287 50.33m15.976-3.385h48.211m0 0L94.727 50.33m-66.251 3.562 16.81-3.562m-16.81 3.562L10.76 57.644m17.715-3.753h50.733m-50.733 0H.37m44.917-3.562h49.44m-49.44 0H.37m94.357 0-15.519 3.562M.231 49.467l.14-.028m10.39 8.205h52.095m-52.095 0H.371m10.39 0L.371 59.846m78.837-5.955-16.352 3.753m0 0-17.254 3.961m0 0L27.368 65.79m18.234-4.185H.37m7.7 8.615 19.3-4.43m-19.3 4.43H.37m7.699 0L.37 71.987m26.998-6.197H.37M67.133 9.16 55.89 10.88m11.242-1.72h34.492m-34.492 0H32.64m79.23-1.66 9.894-1.603M111.871 7.5l-10.246 1.66m10.246-1.66h33.89m-23.996-1.603h33.308m-33.308 0 9.559-1.549m-32.745 0h32.745m-32.745 0 9.786-1.497m-9.786 1.497H65.833m35.792 4.812-10.617 1.72m10.617-1.72h34.493m9.643-1.66 9.312-1.603M145.761 7.5l-9.643 1.66m18.955-3.263 8.997-1.549m-32.746 0h32.746m-32.746 0 9.243-1.497m-4.449 6.31-9.992 1.72m70.69-6.533 8.155-1.497m-8.155 1.497H164.07m0 0 8.699-1.497M55.891 10.88h35.117m-35.117 0H20.774M80 12.663l11.008-1.784M80 12.664l-11.422 1.85M80 12.665h35.765M91.008 10.88h35.118m-105.352 0L32.64 9.16m-11.865 1.72H.37m125.756 0-10.361 1.784M32.639 9.16H.37m68.208 5.354-11.86 1.922m11.86-1.921h36.437m10.75-1.851-10.75 1.85m0 0-11.162 1.922m-74.268 0L6.537 18.433m13.048-1.997h37.134m-37.134 0H.37m56.349 0-12.322 1.997m12.322-1.997h37.134m0 0-11.597 1.997m-50.672 2.075 12.813-2.075m-12.813 2.075-13.334 2.16m13.334-2.16h38.612m-38.612 0H.37m44.026-2.075H6.539m37.859 0h37.859m-75.719 0-6.167.943m6.167-.944H.37m81.886 0-12.06 2.076m-51.946 2.16-13.886 2.25m13.886-2.25h39.397m-39.397 0H.37m69.826-2.16-12.549 2.16m0 0-13.07 2.25m-40.213 0h40.214m-40.214 0-3.994.648m3.994-.647H.37m44.208 0-13.623 2.345M16.742 29.71l14.213-2.447M16.742 29.71l-14.84 2.554m14.84-2.555H.37m30.585-2.446H.37m-.215 0H.37m1.532 5.001H.37m1.532 0L.37 32.53m-.37.064.37-.064M10.201 7.5l11.64-1.603M10.2 7.5H.371m9.83 0L.371 8.854m21.47-2.957 11.247-1.549M21.84 5.897H.37m65.462-1.549 10.33-1.497m-10.33 1.497H33.088m0 0L43.96 2.851M33.088 4.348H.37m1138.46-1.497h32.2m-32.2 0h-32.2m56.51-1.449 1.95.358 5.94 1.09m-7.89-1.448h31.68m-23.79 1.449h32.2m-8.41-1.449 2.07.358 1.05.18 5.29.91m0 0h32.2m0 0h32.21m-161.01 0h-32.21m193.22 0h32.2m0 0-10-1.448m10 1.449h32.2m-42.2-1.449h31.68m-311.5 1.449h32.2m-32.2 0h-32.203m58.623-1.449 1.42.358.72.18 3.64.91m-5.78-1.448h31.67m-25.89 1.449h32.2m-6.31-1.449 6.31 1.449m-96.603 0h-32.202m-64.403 0h32.202m-32.202 0H849.01m60.722-1.449.454.178.455.18.458.18 2.315.91m-3.682-1.448h31.676m-27.994 1.449h32.201m-4.207-1.449 4.207 1.449m-96.605 0h-32.203m-64.403 0h32.201m-32.201 0h-32.202m62.826-1.449 1.577 1.449m-1.577-1.449h31.676m-30.099 1.449h32.202m-2.103-1.449.26.178.26.18.261.18 1.322.91m-96.605 0H688m-64.404 0h32.202m-32.202 0h-32.201m64.929-1.448-.526 1.449m.526-1.449H688m-32.202 1.449H688m0-1.449v1.449m-96.605 0h-32.203m-64.404 0h32.202m-32.202 0h-32.202m67.034-1.449-.649.358-1.315.724-.666.367m2.63-1.449h31.676M526.99 2.851h32.202m2.104-1.449-.26.178-.26.18-.261.18-1.323.91m-96.606 0h-32.201m-64.404 0h32.202m-32.202 0h-32.203m69.138-1.448-1.169.358-.588.18-2.976.91m4.733-1.448h31.676m-36.409 1.449h32.202m4.207-1.449-.519.178-3.688 1.27m-96.607 0h-32.202m-64.403 0h32.202m-32.202 0h-32.202m71.241-1.448-1.689.358-.849.18-4.299.91m6.837-1.448h31.676m-38.513 1.449h32.201m6.312-1.449-.778.178-5.534 1.27m-96.605 0h-32.202m-64.404 0h32.202m-32.202 0H76.163m73.344-1.448-8.94 1.449m8.94-1.449h31.676m-40.616 1.449h32.202m8.414-1.449-2.077.358-1.046.18-5.291.91m-96.606 0H43.96M22.804 1.403 11.758 2.851m11.044-1.449H54.48m-31.676 0H.37m11.39 1.449h32.2m-32.202 0L.37 4.345M11.76 2.85H.37m54.11-1.449-2.598.358-7.921 1.09M1321.52 1.403l2.6.358 7.92 1.09m0 0h32.2m0 0 11.39 1.495m-11.39-1.494h11.39m0 69.136V70.22m0 1.767v2.93m0-4.697v-4.43m0 9.126v4.988m0 0v5.308m0-47.483v-2.793m0 2.793v2.691m0-39.018v1.449m0 0v1.494m0 0 .03.003h-.03m0-.003v.003m0 0v1.549m0 0V7.5m0 0v1.354m0 0v.306m0 0v1.72m0 0v1.784m0 0v1.174m0 0v.677m0 0v1.92m0 0v1.998m0 0v.943m0 0v1.132m0 0v2.16m0 0v2.25m0 0v.648m0 0v1.698m0 0v2.447m0 0v2.554m0 0v.264m0 0v2.407m0 5.72v3.068m0-3.068v-.236m0 3.304v3.22m0 0v2.495m0 0v.89m0 0v3.562m0 0v3.753m0 0v2.202m0 0v1.759m0 0v4.185m0 19.422v1.123m0 0v4.535m0 0v6.045m0 0v6.474m0 0v.164m0 0v6.786m0 0v7.479m0 0v6.78m0 0v1.292m0 0v8.738m0 0v9.491m0 0v6.784m0 0v3.56m0 0v11.319m0 0v12.438m0 0v6.505m0 0v7.226m0 0V192H.37v-.049m0-151.295v3.068m0-3.068v-.236m0 0v-2.69m0 0v-2.794m0 0v-2.407m0 0v-.264m0 0V29.71m0 0v-2.446m0 0v-1.698m0 0v-.647m0 0v-2.25m0 0v-2.16m0 0v-1.133m0 0v-.944m0 0v-1.996m0 0v-1.921m0 0v-.677m0 0v-1.174m0 0V10.88m0 0V9.16m0 0v-.306m0 0V7.5m0 0V5.897m0 0V4.348m0 0H.342l.028-.003m0 .003v-.003m0 0V2.85m0 0V1.402m0 190.549v-7.226m0 0v-6.505m0 0v-12.438m0 0v-11.319m0 0v-3.56m0 0v-6.784m0 0v-9.491m0 0v-8.738m0 0v-1.292m0 0v-6.78m0 0v-7.479m0 0v-6.786m0 0v-.164m0 0v-6.474m0 0V90.87m0 0v-4.535m0 0v-1.123m0 0v-5.308m0 0v-4.988m0 0v-2.929m0 0V70.22m0 0v-4.43m0 0v-4.185m0 0v-1.76m0 0v-2.2m0 0V53.89m0 0v-3.56m0 0v-.89m0 0v-2.495m0 0v-3.22"/><defs><radialGradient id="a" cx="0" cy="0" r="1" gradientTransform="matrix(0 -300.551 1082.9 0 688 184.923)" gradientUnits="userSpaceOnUse"><stop stop-color="#fff"/><stop offset=".637" stop-color="#fff" stop-opacity="0"/></radialGradient></defs></svg>