<svg xmlns="http://www.w3.org/2000/svg" width="186" height="132" fill="none"><path stroke="url(#a)" stroke-opacity=".8" stroke-width=".8" d="M11.823 1H1v10.833M11.823 1v10.833m0-10.833h10.824M11.824 11.833H1m10.823 0h10.824m-10.823 0v10.834M1 11.833v10.834M22.647 1v10.833m0-10.833h10.824M22.647 11.833h10.824m-10.824 0v10.834M33.471 1v10.833M33.47 1h10.823M33.471 11.833h10.823m-10.823 0v10.834M44.294 1v10.833m0-10.833h10.824M44.294 11.833h10.824m-10.824 0v10.834M55.118 1v10.833m0-10.833H65.94M55.118 11.833H65.94m-10.823 0v10.834M65.94 1v10.833M65.94 1h10.824M65.94 11.833h10.824m-10.824 0v10.834M76.765 1v10.833m0-10.833h10.823M76.765 11.833h10.823m-10.823 0v10.834M87.588 1v10.833m0-10.833h10.824M87.588 11.833h10.824m-10.824 0v10.834M98.412 1v10.833m0-10.833h10.823M98.412 11.833h10.823m-10.823 0v10.834M109.235 1v10.833m0-10.833h10.824m-10.824 10.833h10.824m-10.824 0v10.834M120.059 1v10.833m0-10.833h10.823m-10.823 10.833h10.823m-10.823 0v10.834M130.882 1v10.833m0-10.833h10.824m-10.824 10.833h10.824m-10.824 0v10.834M141.706 1v10.833m0-10.833h10.823m-10.823 10.833h10.823m-10.823 0v10.834M152.529 1v10.833m0-10.833h10.824m-10.824 10.833h10.824m-10.824 0v10.834M163.353 1v10.833m0-10.833h10.823m-10.823 10.833h10.823m-10.823 0v10.834M174.176 1v10.833m0-10.833H185v10.833m-10.824 0H185m-10.824 0v10.834M185 11.833v10.834m-173.177 0H1m10.823 0h10.824m-10.823 0V33.5M1 22.667V33.5m21.647-10.833h10.824m-10.824 0V33.5m10.824-10.833h10.823m-10.823 0V33.5m10.823-10.833h10.824m-10.824 0V33.5m10.824-10.833H65.94m-10.823 0V33.5M65.94 22.667h10.824m-10.824 0V33.5m10.824-10.833h10.823m-10.823 0V33.5m10.823-10.833h10.824m-10.824 0V33.5m10.824-10.833h10.823m-10.823 0V33.5m10.823-10.833h10.824m-10.824 0V33.5m10.824-10.833h10.823m-10.823 0V33.5m10.823-10.833h10.824m-10.824 0V33.5m10.824-10.833h10.823m-10.823 0V33.5m10.823-10.833h10.824m-10.824 0V33.5m10.824-10.833h10.823m-10.823 0V33.5m10.823-10.833H185m-10.824 0V33.5M185 22.667V33.5m-173.177 0H1m10.823 0h10.824m-10.823 0v10.833M1 33.5v10.833M22.647 33.5h10.824m-10.824 0v10.833M33.471 33.5h10.823m-10.823 0v10.833M44.294 33.5h10.824m-10.824 0v10.833M55.118 33.5H65.94m-10.823 0v10.833M65.94 33.5h10.824m-10.824 0v10.833M76.765 33.5h10.823m-10.823 0v10.833M87.588 33.5h10.824m-10.824 0v10.833M98.412 33.5h10.823m-10.823 0v10.833M109.235 33.5h10.824m-10.824 0v10.833M120.059 33.5h10.823m-10.823 0v10.833M130.882 33.5h10.824m-10.824 0v10.833M141.706 33.5h10.823m-10.823 0v10.833M152.529 33.5h10.824m-10.824 0v10.833M163.353 33.5h10.823m-10.823 0v10.833M174.176 33.5H185m-10.824 0v10.833M185 33.5v10.833m-173.177 0H1m10.823 0h10.824m-10.823 0v10.834M1 44.333v10.834m21.647-10.834h10.824m-10.824 0v10.834m10.824-10.834h10.823m-10.823 0v10.834m10.823-10.834h10.824m-10.824 0v10.834m10.824-10.834H65.94m-10.823 0v10.834M65.94 44.333h10.824m-10.824 0v10.834m10.824-10.834h10.823m-10.823 0v10.834m10.823-10.834h10.824m-10.824 0v10.834m10.824-10.834h10.823m-10.823 0v10.834m10.823-10.834h10.824m-10.824 0v10.834m10.824-10.834h10.823m-10.823 0v10.834m10.823-10.834h10.824m-10.824 0v10.834m10.824-10.834h10.823m-10.823 0v10.834m10.823-10.834h10.824m-10.824 0v10.834m10.824-10.834h10.823m-10.823 0v10.834m10.823-10.834H185m-10.824 0v10.834M185 44.333v10.834m-173.177 0H1m10.823 0h10.824m-10.823 0V66M1 55.167V66m21.647-10.833h10.824m-10.824 0V66m10.824-10.833h10.823m-10.823 0V66m10.823-10.833h10.824m-10.824 0V66m10.824-10.833H65.94m-10.823 0V66M65.94 55.167h10.824m-10.824 0V66m10.824-10.833h10.823m-10.823 0V66m10.823-10.833h10.824m-10.824 0V66m10.824-10.833h10.823m-10.823 0V66m10.823-10.833h10.824m-10.824 0V66m10.824-10.833h10.823m-10.823 0V66m10.823-10.833h10.824m-10.824 0V66m10.824-10.833h10.823m-10.823 0V66m10.823-10.833h10.824m-10.824 0V66m10.824-10.833h10.823m-10.823 0V66m10.823-10.833H185m-10.824 0V66M185 55.167V66M11.823 66H1m10.823 0h10.824m-10.823 0v10.833M1 66v10.833M22.647 66h10.824m-10.824 0v10.833M33.471 66h10.823m-10.823 0v10.833M44.294 66h10.824m-10.824 0v10.833M55.118 66H65.94m-10.823 0v10.833M65.94 66h10.824M65.94 66v10.833M76.765 66h10.823m-10.823 0v10.833M87.588 66h10.824m-10.824 0v10.833M98.412 66h10.823m-10.823 0v10.833M109.235 66h10.824m-10.824 0v10.833M120.059 66h10.823m-10.823 0v10.833M130.882 66h10.824m-10.824 0v10.833M141.706 66h10.823m-10.823 0v10.833M152.529 66h10.824m-10.824 0v10.833M163.353 66h10.823m-10.823 0v10.833M174.176 66H185m-10.824 0v10.833M185 66v10.833m-173.177 0H1m10.823 0h10.824m-10.823 0v10.834M1 76.833v10.834m21.647-10.834h10.824m-10.824 0v10.834m10.824-10.834h10.823m-10.823 0v10.834m10.823-10.834h10.824m-10.824 0v10.834m10.824-10.834H65.94m-10.823 0v10.834M65.94 76.833h10.824m-10.824 0v10.834m10.824-10.834h10.823m-10.823 0v10.834m10.823-10.834h10.824m-10.824 0v10.834m10.824-10.834h10.823m-10.823 0v10.834m10.823-10.834h10.824m-10.824 0v10.834m10.824-10.834h10.823m-10.823 0v10.834m10.823-10.834h10.824m-10.824 0v10.834m10.824-10.834h10.823m-10.823 0v10.834m10.823-10.834h10.824m-10.824 0v10.834m10.824-10.834h10.823m-10.823 0v10.834m10.823-10.834H185m-10.824 0v10.834M185 76.833v10.834m-173.177 0H1m10.823 0h10.824m-10.823 0V98.5M1 87.667V98.5m21.647-10.833h10.824m-10.824 0V98.5m10.824-10.833h10.823m-10.823 0V98.5m10.823-10.833h10.824m-10.824 0V98.5m10.824-10.833H65.94m-10.823 0V98.5M65.94 87.667h10.824m-10.824 0V98.5m10.824-10.833h10.823m-10.823 0V98.5m10.823-10.833h10.824m-10.824 0V98.5m10.824-10.833h10.823m-10.823 0V98.5m10.823-10.833h10.824m-10.824 0V98.5m10.824-10.833h10.823m-10.823 0V98.5m10.823-10.833h10.824m-10.824 0V98.5m10.824-10.833h10.823m-10.823 0V98.5m10.823-10.833h10.824m-10.824 0V98.5m10.824-10.833h10.823m-10.823 0V98.5m10.823-10.833H185m-10.824 0V98.5M185 87.667V98.5m-173.177 0H1m10.823 0h10.824m-10.823 0v10.833M1 98.5v10.833M22.647 98.5h10.824m-10.824 0v10.833M33.471 98.5h10.823m-10.823 0v10.833M44.294 98.5h10.824m-10.824 0v10.833M55.118 98.5H65.94m-10.823 0v10.833M65.94 98.5h10.824m-10.824 0v10.833M76.765 98.5h10.823m-10.823 0v10.833M87.588 98.5h10.824m-10.824 0v10.833M98.412 98.5h10.823m-10.823 0v10.833M109.235 98.5h10.824m-10.824 0v10.833M120.059 98.5h10.823m-10.823 0v10.833M130.882 98.5h10.824m-10.824 0v10.833M141.706 98.5h10.823m-10.823 0v10.833M152.529 98.5h10.824m-10.824 0v10.833M163.353 98.5h10.823m-10.823 0v10.833M174.176 98.5H185m-10.824 0v10.833M185 98.5v10.833m-173.177 0H1m10.823 0h10.824m-10.823 0v10.834M1 109.333v10.834m21.647-10.834h10.824m-10.824 0v10.834m10.824-10.834h10.823m-10.823 0v10.834m10.823-10.834h10.824m-10.824 0v10.834m10.824-10.834H65.94m-10.823 0v10.834m10.823-10.834h10.824m-10.824 0v10.834m10.824-10.834h10.823m-10.823 0v10.834m10.823-10.834h10.824m-10.824 0v10.834m10.824-10.834h10.823m-10.823 0v10.834m10.823-10.834h10.824m-10.824 0v10.834m10.824-10.834h10.823m-10.823 0v10.834m10.823-10.834h10.824m-10.824 0v10.834m10.824-10.834h10.823m-10.823 0v10.834m10.823-10.834h10.824m-10.824 0v10.834m10.824-10.834h10.823m-10.823 0v10.834m10.823-10.834H185m-10.824 0v10.834M185 109.333v10.834m-173.177 0H1m10.823 0h10.824m-10.823 0V131M1 120.167V131h10.823m10.824-10.833h10.824m-10.824 0V131m10.824-10.833h10.823m-10.823 0V131m10.823-10.833h10.824m-10.824 0V131m10.824-10.833H65.94m-10.823 0V131m10.823-10.833h10.824m-10.824 0V131m10.824-10.833h10.823m-10.823 0V131m10.823-10.833h10.824m-10.824 0V131m10.824-10.833h10.823m-10.823 0V131m10.823-10.833h10.824m-10.824 0V131m10.824-10.833h10.823m-10.823 0V131m10.823-10.833h10.824m-10.824 0V131m10.824-10.833h10.823m-10.823 0V131m10.823-10.833h10.824m-10.824 0V131m10.824-10.833h10.823m-10.823 0V131m10.823-10.833H185m-10.824 0V131M185 120.167V131h-10.824m-162.352 0h10.823m0 0h10.824m0 0h10.823m0 0h10.824m0 0H65.94m0 0h10.824m0 0h10.823m0 0h10.824m0 0h10.823m0 0h10.824m0 0h10.823m0 0h10.824m0 0h10.823m0 0h10.824m0 0h10.823"/><defs><radialGradient id="a" cx="0" cy="0" r="1" gradientTransform="rotate(131.878 146.143 -1.611)scale(331.064 496.895)" gradientUnits="userSpaceOnUse"><stop stop-color="#fff"/><stop offset=".943" stop-color="#fff" stop-opacity="0"/></radialGradient></defs></svg>