<svg xmlns="http://www.w3.org/2000/svg" width="194" height="194" fill="none"><g fill="#fff" clip-path="url(#a)"><path d="M100.315 173.477c.027 0 .051.02.054.048.427 4.869.848 9.738 1.288 14.604.141 1.554.318 3.105.508 4.654.146 1.169-1.145.233-1.19-.945-.236-6.083-.472-12.197-.711-18.308a.05.05 0 0 1 .051-.053m55.22-130.434-.001-.002 11.976-11.769c.197-.194.465-.24.648-.033.175.197.209.558.014.734l-12.365 11.12a.164.164 0 0 1-.224-.004l-.047-.046zM38.246 150.986l-11.992 11.799c-.18.176-.382.26-.553.076-.173-.185-.245-.566-.056-.736l12.45-11.202a.05.05 0 0 1 .068-.002zM68.371 4.383l.147-.047a.98.98 0 0 1 1.241.66c1.596 5.53 3.18 11.01 4.761 16.494a.09.09 0 0 1-.058.11.086.086 0 0 1-.108-.053L68.37 4.386zM5.728 65.84c-.308-.093-.487-.394-.386-.699.101-.307.445-.496.749-.386l16.137 5.85a.092.092 0 0 1-.058.174c-5.459-1.642-10.92-3.28-16.442-4.94zm4.66-12.644c.166-.312.29-.55.437-.832a.233.233 0 0 1 .316-.097c5.132 2.716 10.22 5.411 15.31 8.103a.1.1 0 0 1-.087.18zm165.499 48.656h17.249c.349 0 .613.36.574.707-.035.312-.303.486-.616.464zm-1.39-2.835h.001c6.22-.16 12.44-.324 18.788-.49.291-.008.536.17.57.46.039.34-.229.673-.571.663l-18.808-.57a.016.016 0 0 1-.012-.026zM96.194 21.251c-.305-5.618-.7-12.99-1.107-20.488a.554.554 0 1 1 1.106-.03v20.518zm54.99 134.666.002.001c3.833 3.894 7.665 7.786 11.533 11.718.185.188.26.415.064.591-.192.173-.571.232-.743.04-3.656-4.058-7.28-8.084-10.903-12.107a.145.145 0 0 1 .002-.197l.043-.045zm42.046-60.709a.568.568 0 1 1 .031 1.135h-21.092c6.159-.33 13.53-.73 21.061-1.135m-162.594-69a1.157 1.157 0 0 1 1.622.098L42.783 38a.02.02 0 0 1-.002.031.025.025 0 0 1-.033 0l-11.47-11.782a.48.48 0 0 0-.642-.04zm58.866 149.871.002.004-.835 17.268a.32.32 0 0 1-.132.241.34.34 0 0 1-.445-.057c-.256-.274-.559-.554-.535-.799.554-5.524 1.173-11.042 1.777-16.561a.114.114 0 0 1 .127-.101l.038.004zm8.148-3.209c.301 5.585.698 12.958 1.105 20.478.016.306-.164.565-.47.579-.316.014-.635-.236-.635-.552v-20.507zM.594 98.861a.564.564 0 1 1-.03-1.127h20.883c-6.008.326-13.39.724-20.853 1.127m91.49 94.33c0 .35-.375.611-.722.565-.303-.04-.455-.3-.434-.605l1.156-16.921zM.582 95.539a.562.562 0 1 1 .003-1.124c6.101.186 12.14.37 18.177.558.025 0 .044.02.045.046a.05.05 0 0 1-.047.05zm94.343 79.565q.019.01.02.033c.161 6.026.32 12.053.486 18.206.008.292-.162.537-.452.572-.344.042-.69-.226-.68-.572.191-6.131.377-12.168.566-18.205a.04.04 0 0 1 .06-.034m30.546 14.577-.001-.001-.637.21a.484.484 0 0 1-.617-.327c-1.562-5.434-3.104-10.807-4.649-16.179a.096.096 0 0 1 .065-.119.1.1 0 0 1 .122.062l5.716 16.354zm44.08-125.854a.1.1 0 0 1 .044-.133c4.834-2.496 9.666-4.995 14.589-7.539.269-.139.579-.081.737.177.183.298.083.724-.237.867l-15 6.677a.1.1 0 0 1-.133-.049M65.524 188.775v.001l-.918-.382a.195.195 0 0 1-.109-.248c2.016-5.53 4.01-11.012 6.008-16.494a.08.08 0 0 1 .101-.05.08.08 0 0 1 .052.098c-1.697 5.645-3.393 11.293-5.134 17.074zm-47.639-99.23a.077.077 0 0 1-.08.073L2.24 88.874C1.144 88.82.12 87.519 1.21 87.64q8.302.915 16.608 1.828a.074.074 0 0 1 .067.077m165.488 51.42a.38.38 0 0 1-.228.436c-.324.136-.662.3-.859.196-4.836-2.534-9.642-5.123-14.376-7.872l15.275 7.015a.34.34 0 0 1 .188.225m-53.149 28.596.001-.001 7.601 14.7c.141.272.086.582-.177.739-.297.177-.723.079-.864-.236l-6.666-14.947a.174.174 0 0 1 .043-.202zM104.412 18.045a.08.08 0 0 1-.075-.083l.836-17.247a.32.32 0 0 1 .168-.27.36.36 0 0 1 .437.092c.243.286.534.576.508.835-.561 5.538-1.185 11.071-1.796 16.604a.076.076 0 0 1-.078.069M24.331 130.333 9.636 137.92a.563.563 0 0 1-.766-.224.593.593 0 0 1 .267-.82c5.036-2.241 10.038-4.468 15.04-6.692a.08.08 0 0 1 .102.039q.028.054.052.108l-.001.002zM102.229.088q.002 0 .003.002c.252.314.734.645.714.945-.339 5.581-.74 11.16-1.132 16.738-.004.055-.091.035-.091-.02V.805c0-.242.122-.468.325-.6l.179-.116zm-2.668.105c-.199 6.387-.397 12.729-.593 19.07a.028.028 0 0 1-.057 0c-.168-6.21-.333-12.425-.504-18.725a.34.34 0 0 1 .339-.348h.814q.002 0 .001.003M56.014 9.801a.564.564 0 0 1 .23-.767.59.59 0 0 1 .812.268l6.687 15.006c.023.05 0 .109-.049.133a.1.1 0 0 1-.132-.044zm91.057 170.227v.001c-.33.18-.587.32-.849.461a.247.247 0 0 1-.332-.094l-7.787-13.513a.13.13 0 0 1 .045-.172.13.13 0 0 1 .175.04c2.883 4.373 5.766 8.75 8.747 13.276zm-86.967-12.07a.11.11 0 0 1 .054.145c-2.266 4.93-4.535 9.858-6.834 14.855-.134.291-.456.427-.746.291-.297-.14-.44-.511-.286-.801l7.67-14.443a.11.11 0 0 1 .142-.047m73.534-141.895.001-.002c2.282-4.962 4.562-9.924 6.872-14.95.136-.296.47-.43.761-.286.293.145.427.512.274.8l-7.657 14.418a.134.134 0 0 1-.175.058l-.074-.035zm-5.339-20.761h.001q.1.04.197.076a.99.99 0 0 1 .58 1.267l-5.434 14.905a.096.096 0 0 1-.117.06.1.1 0 0 1-.068-.123l4.837-16.184q.002-.002.004 0zM8.946 56.273l.084-.188a.956.956 0 0 1 1.292-.468l13.786 6.718a.12.12 0 0 1 .057.153.115.115 0 0 1-.15.062c-4.972-2.072-9.947-4.142-15.067-6.274zm155.549 85.156h.001l13.365 7.908c.284.168.391.508.217.788-.177.284-.571.392-.848.205l-12.737-8.601a.165.165 0 0 1-.048-.222l.047-.077zM27.194 138.26c.03.058.012.13-.043.166-4.21 2.77-8.42 5.544-12.729 8.381a.576.576 0 0 1-.801-.149.6.6 0 0 1 .184-.853l13.212-7.598a.13.13 0 0 1 .177.053m162.567-13.069h-.001l-.243.689a.46.46 0 0 1-.573.283c-5.376-1.741-10.682-3.461-15.987-5.178a.1.1 0 0 1-.065-.12.1.1 0 0 1 .12-.069c5.527 1.452 11.056 2.901 16.748 4.396q.002.001.001-.001M46.791 14.077v-.001l.777-.496a.27.27 0 0 1 .378.092l7.78 13.484a.13.13 0 0 1-.042.173.13.13 0 0 1-.176-.037zm94.545 15.425.001-.001c2.634-4.443 5.265-8.888 7.918-13.363.167-.282.502-.391.78-.219.283.176.393.571.207.847l-8.605 12.738a.165.165 0 0 1-.222.048l-.077-.047zm5.943 130.598a.126.126 0 0 1 .176.014l10.316 11.708c.215.244.228.584-.015.8-.254.227-.683.223-.892-.046-3.241-4.148-6.423-8.224-9.605-12.299a.13.13 0 0 1 .02-.177M131.406 24.202h-.001l6.072-14.54c.118-.282.405-.434.693-.33.325.116.508.499.357.808l-6.859 14.06a.127.127 0 0 1-.178.053l-.083-.05zm1.533 144.69a.095.095 0 0 1 .12.042c2.382 4.231 4.762 8.464 7.176 12.756.497.883-.105 2.377-.542 1.462-2.204-4.601-4.458-9.175-6.692-13.762-.056-.117-.085-.249-.121-.377a.1.1 0 0 1 .059-.121m-70.597.894a.114.114 0 0 1 .059.149c-2 4.791-3.996 9.583-6.032 14.467a.579.579 0 1 1-1.055-.479l6.876-14.082a.116.116 0 0 1 .152-.055m-44.827-63.509c-5.282.883-10.563 1.758-15.841 2.658-1.137.195-.291-1.138.857-1.259l14.856-1.566a.084.084 0 0 1 .087.053l.042.112zm63.62 68.916a.09.09 0 0 1 .075.104l-2.315 15.032c-.162 1.057-1.534 1.831-1.304.786 1.165-5.279 2.297-10.565 3.44-15.85a.093.093 0 0 1 .104-.072m85.5-119.363a.13.13 0 0 1 .04-.176c4.214-2.777 8.429-5.552 12.744-8.394a.585.585 0 0 1 .817.17.59.59 0 0 1-.199.832c-4.477 2.576-8.853 5.095-13.23 7.612a.127.127 0 0 1-.172-.044m5.763 67.685-.001.001c5.203 1.556 10.405 3.116 15.704 4.703.308.092.488.396.392.703-.099.313-.446.503-.754.391l-15.3-5.561a.1.1 0 0 1-.065-.116zm-2.669 8.049a.12.12 0 0 1 .137-.033c4.784 1.997 9.57 3.991 14.46 6.029.289.121.439.425.325.716-.123.314-.497.482-.8.334-4.742-2.309-9.412-4.582-14.081-6.857a.124.124 0 0 1-.041-.189m1.958-95.3a.58.58 0 0 1 .808.027.6.6 0 0 1-.056.88l-12.226 9.538a.125.125 0 0 1-.17-.016.127.127 0 0 1 .011-.18c3.838-3.38 7.675-6.762 11.633-10.25zm-65.596 140.123a.103.103 0 0 1 .114.087l2.628 16.148a.56.56 0 0 1-.416.635.562.562 0 0 1-.696-.486c-.581-5.495-1.149-10.885-1.72-16.273a.1.1 0 0 1 .09-.111m9.043-173.934a.57.57 0 0 1 .704-.462.564.564 0 0 1 .411.667c-1.146 5.414-2.276 10.752-3.404 16.092a.1.1 0 0 1-.112.078.104.104 0 0 1-.087-.118c.823-5.369 1.643-10.736 2.488-16.257m13.56 186.176q0 .003-.002.003l-.462.158a.68.68 0 0 1-.868-.435l-5.013-15.42a.104.104 0 0 1 .065-.131.106.106 0 0 1 .133.061c2.029 5.2 4.055 10.402 6.147 15.763zM71.315 21.254l-.003-.002c-1.973-5.065-3.949-10.127-5.942-15.244-.114-.292-.011-.605.28-.722.308-.124.696.023.799.34 1.683 5.164 3.347 10.273 5.013 15.381a.19.19 0 0 1-.119.238l-.027.009zM18.034 92.222H.717c-.342 0-.607-.344-.583-.685.024-.324.3-.514.623-.492 5.736.392 11.405.777 17.274 1.177zm132.553-56.025a.13.13 0 0 1-.018-.184c3.122-3.908 6.243-7.817 9.427-11.8a.596.596 0 0 1 .844-.085c.26.214.284.599.059.848-3.415 3.78-6.774 7.495-10.132 11.21a.13.13 0 0 1-.18.011m25.393 68.247 15.603.756c1.115.054 2.095 1.352.986 1.226-5.491-.615-10.981-1.212-16.472-1.816a.11.11 0 0 1-.094-.082l-.019-.081q-.001-.003-.004-.003m-153.831 53.36a.584.584 0 0 1-.817-.039.59.59 0 0 1 .066-.863c4.116-3.211 8.18-6.379 12.24-9.549a.124.124 0 0 1 .17.015.13.13 0 0 1-.012.182c-3.844 3.383-7.69 6.768-11.647 10.254M60.95 24.908c.06.126-.209.156-.277.035l-7.024-12.485c-.505-.898.024-2.44.479-1.516a4089 4089 0 0 1 6.822 13.966M46.56 33.97a.127.127 0 0 1-.182-.011c-3.376-3.834-6.75-7.671-10.264-11.665-.235-.266-.225-.648.072-.843.255-.167.642-.142.83.099 3.159 4.047 6.36 8.143 9.56 12.24a.133.133 0 0 1-.017.18zm3.453-21.113c-.17-.278-.101-.629.182-.792.286-.166.676-.075.831.217l7.154 13.464a.127.127 0 0 1-.044.167.13.13 0 0 1-.179-.042zM11.13 140.943a.57.57 0 0 1-.801-.23.6.6 0 0 1 .258-.804c4.779-2.325 9.508-4.624 14.235-6.925a.11.11 0 0 1 .145.046c.03.055.01.123-.043.154-4.584 2.576-9.164 5.155-13.794 7.759m141.599 35.354-.001.003-.318.235a.783.783 0 0 1-1.116-.193c-2.753-4.088-5.481-8.14-8.206-12.191a.136.136 0 0 1 .222-.158l9.419 12.302zM33.84 169.865c-.213.266-.633.274-.886.046-.242-.219-.234-.569-.015-.812l10.13-11.219a.135.135 0 0 1 .183-.014.13.13 0 0 1 .02.184c-3.114 3.898-6.226 7.8-9.432 11.815m135.948-9.786a.58.58 0 0 1 .101.819.595.595 0 0 1-.861.08c-3.768-3.395-7.491-6.753-11.215-10.109a.13.13 0 0 1-.015-.181.134.134 0 0 1 .187-.021zM1.734 112.274c-.334.067-.653-.216-.676-.555-.02-.294.194-.511.485-.552 5.435-.765 10.834-1.529 16.234-2.292a.103.103 0 0 1 .036.204zm-.011 3.463v-.001l-.035-.394a.85.85 0 0 1 .698-.915l15.688-2.769a.11.11 0 0 1 .124.085.106.106 0 0 1-.08.125c-5.399 1.276-10.798 2.548-16.394 3.87q-.002 0-.001-.001m191.385-30.703q.003 0 .003.003l.095.495a.61.61 0 0 1-.536.72l-16.241 1.709a.103.103 0 0 1-.027-.204c5.505-.897 11.011-1.792 16.706-2.722zm-17.933 27.784a.1.1 0 0 1 .109-.066l16.277 2.49c.309.047.53.28.481.589-.049.319-.366.589-.682.522l-16.11-3.403a.1.1 0 0 1-.075-.132M24.048 33.987c-.264-.211-.27-.632-.043-.884.217-.243.564-.233.806-.015 3.768 3.4 7.498 6.763 11.227 10.126a.134.134 0 0 1 .014.184.13.13 0 0 1-.184.02c-3.901-3.113-7.801-6.226-11.82-9.43zm1.778 101.807a.13.13 0 0 1-.052.161l-13.072 7.959c-.282.171-.637.1-.8-.187-.165-.287-.073-.677.219-.831l13.528-7.165a.126.126 0 0 1 .177.063M82.208 18.375a.104.104 0 0 1-.121-.078c-1.238-5.239-2.473-10.478-3.728-15.79a.576.576 0 0 1 .453-.69.56.56 0 0 1 .661.461l2.815 15.98a.1.1 0 0 1-.08.117m101.293 34.958c.155.29.053.68-.244.825-4.837 2.355-9.531 4.64-14.223 6.926a.114.114 0 0 1-.149-.047.115.115 0 0 1 .044-.155l13.787-7.756c.285-.16.632-.082.785.207M74.837 191.61q0 .002 0 0c-.183-.369-.588-.793-.513-1.099 1.281-5.231 2.624-10.447 4.123-15.634l-3.076 16.27a.47.47 0 0 1-.263.337l-.27.126zM87.674 17.668s-.002 0-.002-.002c-.884-5.277-1.76-10.554-2.66-15.828-.194-1.132 1.132-.292 1.253.85l1.57 14.762a.2.2 0 0 1-.126.205zm-58.757 34.55a.136.136 0 0 1-.185.048c-4.223-2.495-8.447-4.992-12.738-7.525-.284-.167-.388-.514-.217-.795.175-.289.569-.391.848-.202l12.252 8.29c.06.041.078.122.04.184m80.045 123.834v.002c1.06 5.33 2.12 10.66 3.202 16.092a.577.577 0 0 1-.51.674.55.55 0 0 1-.603-.484c-.771-5.469-1.528-10.843-2.284-16.22a.06.06 0 0 1 .057-.066h.138zm3.326-174.94c.221.368.682.773.627 1.093-.923 5.444-1.912 10.876-3.055 16.289l2.019-17.028a.2.2 0 0 1 .09-.146l.317-.209zM48.124 31.618q.001 0 0 0L38.75 20.221c-.2-.243-.216-.563.017-.774.26-.237.71-.233.916.051 2.893 3.99 5.748 7.92 8.6 11.854a.09.09 0 0 1-.009.114l-.15.15v.001zm-6.993-13.823v-.001l.682-.553a.31.31 0 0 1 .453.068l8.488 12.609c.04.06.025.142-.033.185a.136.136 0 0 1-.189-.027c-3.094-4.044-6.191-8.089-9.4-12.28zm136.1 75.525c5.207-.51 10.41-1.037 15.622-1.501.283-.026.591.23.894.444a.38.38 0 0 1 .144.443.35.35 0 0 1-.311.222l-16.264.582a.093.093 0 0 1-.096-.105l.008-.082.003-.002zm-61.612 98.817-.099.019a1.053 1.053 0 0 1-1.239-.85l-2.727-15.494a.1.1 0 0 1 .081-.118.105.105 0 0 1 .121.078l3.865 16.362q.001.003-.002.003m39.471-18.299c.206.251.199.598-.048.808-.263.226-.689.2-.892-.081-2.879-3.974-5.72-7.893-8.559-11.815a.14.14 0 0 1 .027-.193.143.143 0 0 1 .199.021c3.06 3.713 6.121 7.43 9.273 11.26M32.095 47.675 19.839 39.23c-.258-.178-.35-.5-.187-.767.185-.304.61-.406.89-.187l11.661 9.141a.066.066 0 0 1 .013.09zm-9.301 17.288a.12.12 0 0 1-.154.068c-4.808-1.81-9.62-3.62-14.497-5.454-.3-.113-.461-.427-.347-.727.119-.311.482-.48.786-.344l14.148 6.3c.06.027.088.096.064.157m137.558 83.94.002.001 11.57 8.581a.61.61 0 0 1 .112.847.58.58 0 0 1-.848.086l-10.877-9.162a.2.2 0 0 1-.02-.288l.058-.063zm-75.436 44.473c-.242-.353-.729-.741-.685-1.058.746-5.482 1.555-10.955 2.508-16.415l-1.421 17.022a.42.42 0 0 1-.199.325zm-65.284-37.842v-.001l-.208-.233a.824.824 0 0 1 .131-1.215l11.597-8.403a.15.15 0 0 1 .202.027c.05.062.04.151-.021.201-3.88 3.194-7.762 6.385-11.7 9.625zM175.103 79.48l.002-.002 15.674-4.286a.56.56 0 0 1 .698.378.59.59 0 0 1-.43.738c-5.295 1.124-10.507 2.229-15.72 3.333a.187.187 0 0 1-.221-.142l-.003-.018zm.713 27.812a.08.08 0 0 1 .087-.073l17.02 1.42c.089.008.17.054.221.127a.33.33 0 0 1-.059.432c-.279.251-.565.551-.806.518-5.47-.739-10.93-1.543-16.392-2.335a.084.084 0 0 1-.071-.089M76.432 18.38a.13.13 0 0 1-.174-.078c-1.478-4.719-2.953-9.44-4.458-14.248a.56.56 0 0 1 .315-.702c.327-.135.716.046.801.39l3.59 14.487a.13.13 0 0 1-.074.152zM27.167 57.73a.113.113 0 0 1-.15.048L12.54 50.502a.575.575 0 0 1-.264-.768.585.585 0 0 1 .814-.253l14.036 8.097a.11.11 0 0 1 .042.152zm12.374-18.645c-3.611-3.316-7.222-6.635-10.907-10.018-.231-.212-.284-.534-.085-.777.225-.274.665-.322.911-.067l10.218 10.616c.03.03.03.08 0 .11zm151.879 79.661a.32.32 0 0 1-.079.396c-.279.241-.575.543-.782.492-5.264-1.281-10.515-2.622-15.727-4.135l16.383 3.099a.3.3 0 0 1 .205.148m-26.143 46.315c.251.23.249.631.008.87a.59.59 0 0 1-.842-.017l-10.246-10.657a.133.133 0 0 1 .001-.186.135.135 0 0 1 .189-.006zm-81.305 10.528-1.803 15.251c-.123 1.033-1.462 1.946-1.28.921.957-5.375 1.939-10.745 2.912-16.115a.08.08 0 0 1 .085-.063l.083.009q.002 0 .003-.003M2.264 78.822a.553.553 0 0 1-.46-.688.576.576 0 0 1 .665-.42c5.404 1.142 10.785 2.28 16.166 3.415.05.01.083.06.075.11a.1.1 0 0 1-.112.082c-5.398-.826-10.8-1.651-16.334-2.499m173.354 3.511a.11.11 0 0 1 .083-.127l15.779-3.715c.319-.075.642.174.693.498.049.304-.161.554-.464.608l-15.967 2.822a.107.107 0 0 1-.124-.086M3.886 122.144c-.302.094-.632-.093-.731-.393-.107-.322.09-.644.419-.725 4.872-1.206 9.68-2.394 14.483-3.585a.126.126 0 0 1 .151.087.125.125 0 0 1-.083.155c-4.706 1.473-9.41 2.949-14.239 4.461M190.487 71.76l.34.943a.176.176 0 0 1-.123.23l-14.949 3.703a.127.127 0 0 1-.153-.09.126.126 0 0 1 .084-.155c4.905-1.536 9.811-3.07 14.8-4.63h.001zM175.953 85v.001l16.133-3.2a.566.566 0 0 1 .663.467.554.554 0 0 1-.475.638l-16.24 2.29a.026.026 0 0 1-.029-.018l-.051-.177h-.001zM2.51 119.03v-.001l-.12-.4a.7.7 0 0 1 .523-.887l15.652-3.328a.107.107 0 0 1 .126.079.106.106 0 0 1-.076.128zm.156-33.456C1.52 85.48.64 84.16 1.776 84.328c5.397.8 10.8 1.579 16.191 2.523-5.08-.425-10.157-.849-15.301-1.277m111.823 89.615 4.29 15.672c.081.298-.054.595-.348.687-.321.1-.693-.087-.763-.417-1.129-5.313-2.246-10.56-3.36-15.807a.09.09 0 0 1 .064-.105l.115-.032zm-78.413-2.697v-.001l-.724-.549a.306.306 0 0 1-.049-.442c3.159-3.742 6.287-7.446 9.415-11.153a.143.143 0 0 1 .196-.02.146.146 0 0 1 .028.201zm79.403-153.283a.09.09 0 0 1-.07-.105q1.539-8.14 3.076-16.283a.3.3 0 0 1 .145-.206.34.34 0 0 1 .433.093c.23.298.509.608.453.836-1.272 5.209-2.607 10.401-3.931 15.599a.09.09 0 0 1-.106.066m48.307 31.557-.001-.001c3.96-3.028 7.922-6.053 11.963-9.142.248-.19.574-.184.778.053.23.269.201.71-.092.907l-12.319 8.28a.21.21 0 0 1-.267-.03zm-17.37-18.453a.144.144 0 0 1-.027-.194l8.37-12.124a.577.577 0 0 1 .81-.16c.279.194.353.593.143.86-3.065 3.91-6.08 7.754-9.094 11.596a.14.14 0 0 1-.202.022M108.685.875a.4.4 0 0 1 .53.12c.204.29.425.583.388.84-.743 5.447-1.549 10.887-2.496 16.316l1.413-17.005a.35.35 0 0 1 .165-.271m53.69 47.392.001-.003c3.773-3.101 7.544-6.203 11.386-9.359.252-.206.607-.19.815.059.222.264.188.68-.091.882l-11.754 8.511a.225.225 0 0 1-.291-.023l-.065-.065zm23.318 86.222a.58.58 0 0 1 .332.761.58.58 0 0 1-.771.31c-4.748-2.114-9.43-4.196-14.11-6.278a.124.124 0 0 1-.066-.158.123.123 0 0 1 .158-.071zm-11.2 20.691.001.002c-.154.226-.291.43-.436.646a.414.414 0 0 1-.598.094l-11.768-9.225a.14.14 0 0 1-.027-.19.14.14 0 0 1 .194-.034c4.171 2.874 8.341 5.747 12.633 8.707zM.052 101.146l16.513-.587a.123.123 0 0 1 .126.117.12.12 0 0 1-.109.124c-2.412.214-4.824.421-7.233.649a872 872 0 0 0-8.073.801c-.743.077-1.452.179-1.224-1.104q0-.002 0 0m59.391 84.612c-.122.322-.534.448-.842.295-.279-.139-.36-.453-.233-.738l6.295-14.102a.12.12 0 0 1 .151-.063.12.12 0 0 1 .071.155zM1.784 105.49c-.817.104-1.92-.764-1.13-.998q.198-.057.481-.072c4.036-.243 8.068-.528 12.103-.806.527-.037.55.345.025.412zM68.4 21.237a.124.124 0 0 1-.15-.07L62.21 7.188a.587.587 0 0 1 .297-.762.58.58 0 0 1 .788.334l5.185 14.32a.12.12 0 0 1-.08.158zm24.888-4.467a.1.1 0 0 1-.095-.09c-.508-5.175-1.03-10.349-1.494-15.526-.026-.285.226-.594.437-.9a.384.384 0 0 1 .442-.152.35.35 0 0 1 .229.315l.584 16.25a.1.1 0 0 1-.103.102zm61.704 23.009a.136.136 0 0 1-.002-.187c3.294-3.586 6.588-7.173 10.008-10.894a.61.61 0 0 1 .882-.004.593.593 0 0 1-.024.844l-10.669 10.244a.14.14 0 0 1-.195-.003M2.292 74.973q0-.003.002-.003c.394-.177.844-.582 1.175-.499 5.195 1.267 10.374 2.597 15.522 4.09L2.91 75.527a.76.76 0 0 1-.524-.382zM74.903 2.642h.002l.252-.059a.906.906 0 0 1 1.09.695l3.284 15.491a.1.1 0 0 1-.078.121.1.1 0 0 1-.12-.072c-1.466-5.348-2.93-10.697-4.432-16.171zm54.098 20.233a.124.124 0 0 1-.042-.144l5.443-14.426c.112-.297.411-.46.71-.351.313.114.496.483.36.788l-6.281 14.083a.126.126 0 0 1-.19.05M144.2 12.422c.323.137.473.535.297.838l-8.124 14.057a.105.105 0 0 1-.139.042.11.11 0 0 1-.049-.148l7.283-14.504a.567.567 0 0 1 .732-.285M81.544 1.256c.674 0 1.246.497 1.34 1.165l2.184 15.513a.1.1 0 0 1-.084.114.104.104 0 0 1-.118-.082L81.541 1.259q0-.003.003-.003M181.85 143.837h-.001c-.175.317-.314.57-.456.832a.245.245 0 0 1-.338.095c-4.65-2.683-9.23-5.325-13.806-7.967a.123.123 0 0 1-.049-.162.123.123 0 0 1 .166-.056l14.483 7.259zm-76.642 49.959-.001.001c-.291-.27-.814-.521-.836-.813-.414-5.269-.77-10.541-1.135-15.813-.009-.141.222-.134.239.006l2.05 16.087a.44.44 0 0 1-.156.398zm-70.431-43.308a25304 25304 0 0 1-10.473 9.897.58.58 0 0 1-.856-.044.61.61 0 0 1 .07-.843l10.894-9.091a.22.22 0 0 1 .3.016l.064.064zm97.08 36.921-.001.003-.403.187a.694.694 0 0 1-.945-.394l-5.167-14.254a.124.124 0 0 1 .072-.156.124.124 0 0 1 .158.066l6.286 14.547zm-9.814 2.609a.59.59 0 0 1-.372.727.57.57 0 0 1-.745-.411c-1.208-4.867-2.399-9.67-3.587-14.47a.13.13 0 0 1 .089-.155.126.126 0 0 1 .155.083zM157.41 22.055c.199-.268.603-.302.867-.096.267.208.285.58.067.838-3.09 3.659-6.153 7.289-9.214 10.916a.145.145 0 0 1-.202.02.15.15 0 0 1-.027-.204zm-66.985-4.657.001-.002C89.7 11.71 89.001 6.216 88.3.721a.3.3 0 0 1 .073-.234.32.32 0 0 1 .41-.048c.304.192.662.38.68.593.414 5.308.765 10.622 1.124 15.932.005.08-.058.166-.163.432zm79.56 15.854v.002l.541.633a.385.385 0 0 1-.046.546l-11.085 9.263a.154.154 0 0 1-.21-.013.15.15 0 0 1 .006-.213c3.585-3.391 7.167-6.785 10.795-10.216zM6.991 131.735a.58.58 0 0 1-.763-.306.577.577 0 0 1 .334-.768c4.815-1.746 9.592-3.475 14.368-5.207a.12.12 0 0 1 .154.07.12.12 0 0 1-.064.154zm10.875-89.78a.61.61 0 0 1-.15-.87.58.58 0 0 1 .82-.111c3.837 2.799 7.623 5.562 11.412 8.322a.154.154 0 0 1-.174.254zm15.607 3.2-11.569-8.58a.597.597 0 0 1-.123-.832.594.594 0 0 1 .862-.1c3.649 3.075 7.262 6.12 10.876 9.163a.197.197 0 0 1 .012.29zm9.962-10.235-9.888-10.456a.577.577 0 0 1 .03-.843.606.606 0 0 1 .852.055c3.09 3.7 6.133 7.344 9.174 10.988a.08.08 0 0 1-.008.114zm9.247-6.983a.15.15 0 0 1-.203-.04l-8.21-11.521c-.183-.258-.166-.588.083-.783.277-.218.716-.173.903.127 2.525 4.057 5.001 8.033 7.474 12.01a.15.15 0 0 1-.047.207m19.2 162.707a.41.41 0 0 1-.506-.173c-.172-.284-.36-.572-.298-.788 1.342-4.764 2.743-9.509 4.356-14.21q-1.67 7.456-3.337 14.911a.37.37 0 0 1-.215.26m88.42-21.041c.248.261.186.697-.105.909-.253.184-.583.124-.784-.117l-9.132-10.94a.155.155 0 0 1 .017-.214.15.15 0 0 1 .207.01zm16.612-78.902c-.103 0-.047-.191.056-.204l16.313-2.073a.3.3 0 0 1 .227.068.32.32 0 0 1 .055.41c-.187.305-.37.663-.578.679-5.356.414-10.714.761-16.073 1.12M67.327 172.556c.05.03.073.092.054.148l-4.842 14.347a.566.566 0 0 1-.715.367.586.586 0 0 1-.364-.767c1.91-4.716 3.796-9.377 5.684-14.035a.126.126 0 0 1 .183-.06M19.137 72.81 4.708 69.05a.56.56 0 0 1-.42-.679c.08-.327.426-.535.746-.43 4.759 1.553 9.44 3.083 14.121 4.612a.054.054 0 0 1 .035.066q-.028.094-.054.19zm132.889-54.792c.174-.274.499-.38.776-.21.296.181.411.6.206.88l-8.301 11.38a.15.15 0 0 1-.204.04.15.15 0 0 1-.046-.21zM18.52 75.463a.115.115 0 0 1-.137.087q-7.448-1.667-14.891-3.335a.3.3 0 0 1-.174-.113.33.33 0 0 1 .06-.442c.286-.241.584-.528.784-.47 4.771 1.339 9.523 2.744 14.278 4.136a.116.116 0 0 1 .08.137m157.458 76.646a.596.596 0 1 1-.673.985l-11.416-8.327a.156.156 0 0 1-.039-.21.153.153 0 0 1 .209-.045zM131.296 7.016a.586.586 0 0 1 .759-.351.566.566 0 0 1 .322.751c-1.904 4.706-3.797 9.377-5.689 14.05a.124.124 0 0 1-.155.07.126.126 0 0 1-.078-.158zm-84.463 155.55c.066.051.08.145.032.213-2.574 3.738-5.148 7.479-7.774 11.29-.18.262-.503.355-.775.191-.308-.186-.412-.618-.19-.901 2.86-3.627 5.672-7.199 8.485-10.767a.157.157 0 0 1 .222-.026m132.788-16.1c.298.162.388.56.21.849a.576.576 0 0 1-.807.173l-11.778-7.387a.155.155 0 0 1-.054-.205.155.155 0 0 1 .209-.061c4.024 2.184 8.049 4.37 12.22 6.631M121.798 3.436c.886-.005 1.24.185.975 1.071-1.404 4.698-2.76 9.413-4.362 14.075l3.383-15.143zm67.255 65.246c.309-.108.655.087.755.398.101.312-.085.619-.401.709-4.799 1.367-9.541 2.72-14.282 4.07a.13.13 0 0 1-.161-.086.13.13 0 0 1 .08-.16c4.62-1.626 9.24-3.254 14.009-4.93zm1.49 53.332c.1.173.041.397-.12.514-.274.199-.553.416-.754.36-4.798-1.352-9.576-2.768-14.307-4.389l14.949 3.345a.36.36 0 0 1 .232.17M72.555 174.73c.069.019.11.09.093.158l-3.731 14.335a.57.57 0 0 1-.72.411.59.59 0 0 1-.394-.739l4.596-14.08a.13.13 0 0 1 .156-.085m-54.918-21.924-.002-.001-.236-.308a.79.79 0 0 1 .187-1.136c3.832-2.571 7.599-5.095 11.362-7.62a.156.156 0 0 1 .21.036.15.15 0 0 1-.028.21c-3.803 2.92-7.609 5.838-11.49 8.819zm123.529 13.343a.15.15 0 0 1 .205.038c2.72 3.816 5.44 7.636 8.202 11.508.187.262.159.604-.1.796-.277.206-.7.153-.883-.14l-7.469-11.997a.15.15 0 0 1 .045-.205m-102.9-11.272a.146.146 0 0 1 .007.205l-9.407 10.274a.6.6 0 0 1-.9-.004.613.613 0 0 1 .031-.843c3.41-3.265 6.737-6.449 10.064-9.631a.15.15 0 0 1 .205-.001M126.218 4.616l.001.005-4.786 14.629a.13.13 0 0 1-.159.085.13.13 0 0 1-.088-.157l3.647-13.987a.92.92 0 0 1 1.175-.644l.208.068zM50.096 181.921v-.001c-.325-.164-.57-.289-.859-.438a.23.23 0 0 1-.095-.321l7.999-13.84a.121.121 0 0 1 .214.114c-2.396 4.781-4.792 9.565-7.26 14.486zm137.471-50.338.002.002-.283.667a.48.48 0 0 1-.623.26l-14.12-5.718a.126.126 0 0 1-.072-.156.127.127 0 0 1 .16-.08zM6.86 62.682a.57.57 0 0 1-.369-.725.59.59 0 0 1 .773-.364l14.064 5.695a.125.125 0 0 1-.087.234zM1.157 82.084c-.149-1.005.287-1.22 1.18-1.052 4.714.883 9.432 1.734 14.13 2.813q-7.656-.881-15.307-1.758zm46.021 98.118q0 .002-.002.001l-.655-.351a.443.443 0 0 1-.165-.626l7.497-11.936a.156.156 0 0 1 .207-.053.154.154 0 0 1 .06.209c-2.298 4.225-4.6 8.454-6.942 12.755zm99.507-166.39v.001l.792.522c.13.085.168.259.085.39l-7.55 12.006a.15.15 0 0 1-.261-.153c2.282-4.198 4.563-8.4 6.935-12.765h-.001zM26.652 54.191a.16.16 0 0 1-.214.06L14.233 47.6a.587.587 0 0 1-.236-.797.59.59 0 0 1 .83-.217c3.982 2.497 7.876 4.943 11.772 7.387a.16.16 0 0 1 .053.218M4.797 125.383a.58.58 0 0 1-.74-.344.587.587 0 0 1 .387-.77l13.48-3.82a.145.145 0 0 1 .089.277c-4.386 1.545-8.772 3.093-13.216 4.657m43.992 39.377a.18.18 0 0 1 .06.251l-7.036 11.041c-.177.276-.51.379-.788.204-.291-.184-.4-.597-.197-.875 2.601-3.561 5.164-7.067 7.727-10.573a.177.177 0 0 1 .234-.048M181.116 50.15c.285-.174.636-.116.806.17.174.293.087.706-.214.865-4.058 2.141-8.093 4.268-12.128 6.395a.155.155 0 0 1-.15-.271zm-27.354-13.486h.001c2.901-3.393 5.8-6.788 8.746-10.232.205-.24.535-.297.784-.104.279.215.334.645.09.898l-9.303 9.61a.1.1 0 0 1-.145.001l-.173-.171zM7.717 135.13q0 .002 0 0l-.378-.961a.197.197 0 0 1 .11-.255c4.366-1.747 8.65-3.46 12.93-5.176a.156.156 0 0 1 .2.083.16.16 0 0 1-.077.206zm169.631-24.783a.114.114 0 0 1 .127-.118l13.174 1.524c1.102.128 1.989 1.48.898 1.281-4.704-.85-9.402-1.716-14.103-2.578a.12.12 0 0 1-.096-.109m-171.49 18.24a.59.59 0 0 1-.772-.351.594.594 0 0 1 .377-.762l13.202-4.243a.142.142 0 0 1 .096.268zm138.287 53.136c-.235.13-.444.248-.662.37a.445.445 0 0 1-.612-.181l-6.465-12.219a.157.157 0 0 1 .06-.211.16.16 0 0 1 .218.055l7.46 12.187zM59.08 8.462a.583.583 0 0 1 .3-.8.605.605 0 0 1 .786.324c1.695 4.225 3.36 8.383 5.028 12.541a.16.16 0 0 1-.083.203.157.157 0 0 1-.205-.075zm108.48 154.123c.244.208.29.557.089.807-.218.272-.634.312-.885.07-3.208-3.108-6.379-6.177-9.549-9.247a.17.17 0 0 1-.007-.241.17.17 0 0 1 .24-.015zm6.529-94.725 12.713-5.52a.576.576 0 0 1 .751.252c.167.318.022.726-.316.847l-13.065 4.687a.026.026 0 0 1-.034-.02zm-39.05 118.326h-.001l-.453.179a.744.744 0 0 1-.966-.415l-4.97-12.404a.16.16 0 0 1 .084-.205.156.156 0 0 1 .203.076 23431 23431 0 0 0 6.103 12.769m39.903-115.422a.145.145 0 0 1 .084-.184l12.957-5.092a.57.57 0 0 1 .758.327c.114.312-.047.675-.364.777-4.466 1.436-8.858 2.851-13.251 4.263a.147.147 0 0 1-.184-.091M16.23 149.659a.613.613 0 0 1-.873-.189.59.59 0 0 1 .207-.811l11.144-6.893a.164.164 0 0 1 .222.049.16.16 0 0 1-.04.222zm14.7 18.45-.002-.001-.25-.234a.87.87 0 0 1-.027-1.241c3.046-3.14 6.05-6.243 9.056-9.343a.173.173 0 0 1 .24-.009c.071.064.08.175.017.248-2.978 3.489-5.958 6.976-9.031 10.579zm13.368 10.356h-.002l-.233-.151a.946.946 0 0 1-.267-1.328l6.988-10.257a.17.17 0 0 1 .232-.048c.079.05.104.154.057.234-2.23 3.805-4.465 7.611-6.772 11.549zM185.542 59.21a.603.603 0 0 1 .818.34.587.587 0 0 1-.34.75l-12.575 5.03a.156.156 0 0 1-.201-.082.154.154 0 0 1 .075-.2c4.033-1.928 8.066-3.854 12.223-5.839zm-18.595-6.942a.166.166 0 0 1 .026-.247l10.642-7.613c.268-.192.626-.151.819.115.204.281.141.696-.155.88-3.742 2.318-7.432 4.606-11.122 6.894a.166.166 0 0 1-.21-.03zM25.814 31.083q-.002 0-.001-.002l.57-.62a.37.37 0 0 1 .53-.014c3.267 3.165 6.495 6.29 9.723 9.414a.17.17 0 0 1 .01.234.17.17 0 0 1-.241.017c-3.49-2.974-6.978-5.948-10.59-9.029z"/></g><defs><clipPath id="a"><path fill="#fff" d="M0 0h194v194H0z"/></clipPath></defs></svg>