<svg xmlns="http://www.w3.org/2000/svg" width="258" height="264" fill="none"><g clip-path="url(#a)" style="mix-blend-mode:multiply"><path stroke="url(#b)" stroke-opacity=".8" stroke-width=".8" d="M173.176 0H184v10.833M173.176 0v10.833m0-10.833h-10.823m10.823 10.833H184m-10.824 0h-10.823m10.823 0v10.834M184 10.833v10.834M162.353 0v10.833m0-10.833h-10.824m10.824 10.833h-10.824m10.824 0v10.834M151.529 0v10.833m0-10.833h-10.823m10.823 10.833h-10.823m10.823 0v10.834M140.706 0v10.833m0-10.833h-10.824m10.824 10.833h-10.824m10.824 0v10.834M129.882 0v10.833m0-10.833h-10.823m10.823 10.833h-10.823m10.823 0v10.834M119.059 0v10.833m0-10.833h-10.824m10.824 10.833h-10.824m10.824 0v10.834M108.235 0v10.833m0-10.833H97.412m10.823 10.833H97.412m10.823 0v10.834M97.412 0v10.833m0-10.833H86.588m10.824 10.833H86.588m10.824 0v10.834M86.588 0v10.833m0-10.833H75.765m10.823 10.833H75.765m10.823 0v10.834M75.765 0v10.833m0-10.833H64.94m10.824 10.833H64.94m10.824 0v10.834M64.94 0v10.833M64.94 0H54.118M64.94 10.833H54.118m10.823 0v10.834M54.118 0v10.833m0-10.833H43.294m10.824 10.833H43.294m10.824 0v10.834M43.294 0v10.833m0-10.833H32.471m10.823 10.833H32.471m10.823 0v10.834M32.471 0v10.833M32.47 0H21.647m10.824 10.833H21.647m10.824 0v10.834M21.647 0v10.833m0-10.833H10.824m10.823 10.833H10.824m10.823 0v10.834M10.824 0v10.833m0-10.833H0v10.833m10.823 0H0m10.823 0v10.834M0 10.833v10.834m173.176 0H184m-10.824 0h-10.823m10.823 0V32.5M184 21.667V32.5m-21.647-10.833h-10.824m10.824 0V32.5m-10.824-10.833h-10.823m10.823 0V32.5m-10.823-10.833h-10.824m10.824 0V32.5m-10.824-10.833h-10.823m10.823 0V32.5m-10.823-10.833h-10.824m10.824 0V32.5m-10.824-10.833H97.412m10.823 0V32.5M97.412 21.667H86.588m10.824 0V32.5M86.588 21.667H75.765m10.823 0V32.5M75.765 21.667H64.94m10.824 0V32.5M64.94 21.667H54.118m10.823 0V32.5M54.118 21.667H43.294m10.824 0V32.5M43.294 21.667H32.471m10.823 0V32.5M32.471 21.667H21.647m10.824 0V32.5M21.647 21.667H10.824m10.823 0V32.5M10.824 21.667H0m10.823 0V32.5M0 21.667V32.5m173.176 0H184m-10.824 0h-10.823m10.823 0v10.833M184 32.5v10.833M162.353 32.5h-10.824m10.824 0v10.833M151.529 32.5h-10.823m10.823 0v10.833M140.706 32.5h-10.824m10.824 0v10.833M129.882 32.5h-10.823m10.823 0v10.833M119.059 32.5h-10.824m10.824 0v10.833M108.235 32.5H97.412m10.823 0v10.833M97.412 32.5H86.588m10.824 0v10.833M86.588 32.5H75.765m10.823 0v10.833M75.765 32.5H64.94m10.824 0v10.833M64.94 32.5H54.118m10.823 0v10.833M54.118 32.5H43.294m10.824 0v10.833M43.294 32.5H32.471m10.823 0v10.833M32.471 32.5H21.647m10.824 0v10.833M21.647 32.5H10.824m10.823 0v10.833M10.824 32.5H0m10.823 0v10.833M0 32.5v10.833m173.176 0H184m-10.824 0h-10.823m10.823 0v10.834M184 43.333v10.834m-21.647-10.834h-10.824m10.824 0v10.834m-10.824-10.834h-10.823m10.823 0v10.834m-10.823-10.834h-10.824m10.824 0v10.834m-10.824-10.834h-10.823m10.823 0v10.834m-10.823-10.834h-10.824m10.824 0v10.834m-10.824-10.834H97.412m10.823 0v10.834M97.412 43.333H86.588m10.824 0v10.834M86.588 43.333H75.765m10.823 0v10.834M75.765 43.333H64.94m10.824 0v10.834M64.94 43.333H54.118m10.823 0v10.834M54.118 43.333H43.294m10.824 0v10.834M43.294 43.333H32.471m10.823 0v10.834M32.471 43.333H21.647m10.824 0v10.834M21.647 43.333H10.824m10.823 0v10.834M10.824 43.333H0m10.823 0v10.834M0 43.333v10.834m173.176 0H184m-10.824 0h-10.823m10.823 0V65M184 54.167V65m-21.647-10.833h-10.824m10.824 0V65m-10.824-10.833h-10.823m10.823 0V65m-10.823-10.833h-10.824m10.824 0V65m-10.824-10.833h-10.823m10.823 0V65m-10.823-10.833h-10.824m10.824 0V65m-10.824-10.833H97.412m10.823 0V65M97.412 54.167H86.588m10.824 0V65M86.588 54.167H75.765m10.823 0V65M75.765 54.167H64.94m10.824 0V65M64.94 54.167H54.118m10.823 0V65M54.118 54.167H43.294m10.824 0V65M43.294 54.167H32.471m10.823 0V65M32.471 54.167H21.647m10.824 0V65M21.647 54.167H10.824m10.823 0V65M10.824 54.167H0m10.823 0V65M0 54.167V65m173.176 0H184m-10.824 0h-10.823m10.823 0v10.833M184 65v10.833M162.353 65h-10.824m10.824 0v10.833M151.529 65h-10.823m10.823 0v10.833M140.706 65h-10.824m10.824 0v10.833M129.882 65h-10.823m10.823 0v10.833M119.059 65h-10.824m10.824 0v10.833M108.235 65H97.412m10.823 0v10.833M97.412 65H86.588m10.824 0v10.833M86.588 65H75.765m10.823 0v10.833M75.765 65H64.94m10.824 0v10.833M64.94 65H54.118m10.823 0v10.833M54.118 65H43.294m10.824 0v10.833M43.294 65H32.471m10.823 0v10.833M32.471 65H21.647m10.824 0v10.833M21.647 65H10.824m10.823 0v10.833M10.824 65H0m10.823 0v10.833M0 65v10.833m173.176 0H184m-10.824 0h-10.823m10.823 0v10.834M184 75.833v10.834m-21.647-10.834h-10.824m10.824 0v10.834m-10.824-10.834h-10.823m10.823 0v10.834m-10.823-10.834h-10.824m10.824 0v10.834m-10.824-10.834h-10.823m10.823 0v10.834m-10.823-10.834h-10.824m10.824 0v10.834m-10.824-10.834H97.412m10.823 0v10.834M97.412 75.833H86.588m10.824 0v10.834M86.588 75.833H75.765m10.823 0v10.834M75.765 75.833H64.94m10.824 0v10.834M64.94 75.833H54.118m10.823 0v10.834M54.118 75.833H43.294m10.824 0v10.834M43.294 75.833H32.471m10.823 0v10.834M32.471 75.833H21.647m10.824 0v10.834M21.647 75.833H10.824m10.823 0v10.834M10.824 75.833H0m10.823 0v10.834M0 75.833v10.834m173.176 0H184m-10.824 0h-10.823m10.823 0V97.5M184 86.667V97.5m-21.647-10.833h-10.824m10.824 0V97.5m-10.824-10.833h-10.823m10.823 0V97.5m-10.823-10.833h-10.824m10.824 0V97.5m-10.824-10.833h-10.823m10.823 0V97.5m-10.823-10.833h-10.824m10.824 0V97.5m-10.824-10.833H97.412m10.823 0V97.5M97.412 86.667H86.588m10.824 0V97.5M86.588 86.667H75.765m10.823 0V97.5M75.765 86.667H64.94m10.824 0V97.5M64.94 86.667H54.118m10.823 0V97.5M54.118 86.667H43.294m10.824 0V97.5M43.294 86.667H32.471m10.823 0V97.5M32.471 86.667H21.647m10.824 0V97.5M21.647 86.667H10.824m10.823 0V97.5M10.824 86.667H0m10.823 0V97.5M0 86.667V97.5m173.176 0H184m-10.824 0h-10.823m10.823 0v10.833M184 97.5v10.833M162.353 97.5h-10.824m10.824 0v10.833M151.529 97.5h-10.823m10.823 0v10.833M140.706 97.5h-10.824m10.824 0v10.833M129.882 97.5h-10.823m10.823 0v10.833M119.059 97.5h-10.824m10.824 0v10.833M108.235 97.5H97.412m10.823 0v10.833M97.412 97.5H86.588m10.824 0v10.833M86.588 97.5H75.765m10.823 0v10.833M75.765 97.5H64.94m10.824 0v10.833M64.94 97.5H54.118m10.823 0v10.833M54.118 97.5H43.294m10.824 0v10.833M43.294 97.5H32.471m10.823 0v10.833M32.471 97.5H21.647m10.824 0v10.833M21.647 97.5H10.824m10.823 0v10.833M10.824 97.5H0m10.823 0v10.833M0 97.5v10.833m173.176 0H184m-10.824 0h-10.823m10.823 0v10.834M184 108.333v10.834m-21.647-10.834h-10.824m10.824 0v10.834m-10.824-10.834h-10.823m10.823 0v10.834m-10.823-10.834h-10.824m10.824 0v10.834m-10.824-10.834h-10.823m10.823 0v10.834m-10.823-10.834h-10.824m10.824 0v10.834m-10.824-10.834H97.412m10.823 0v10.834m-10.823-10.834H86.588m10.824 0v10.834m-10.824-10.834H75.765m10.823 0v10.834m-10.823-10.834H64.94m10.824 0v10.834M64.94 108.333H54.118m10.823 0v10.834m-10.823-10.834H43.294m10.824 0v10.834m-10.824-10.834H32.471m10.823 0v10.834m-10.823-10.834H21.647m10.824 0v10.834m-10.824-10.834H10.824m10.823 0v10.834m-10.823-10.834H0m10.823 0v10.834M0 108.333v10.834m173.176 0H184m-10.824 0h-10.823m10.823 0V130M184 119.167V130h-10.824m-10.823-10.833h-10.824m10.824 0V130m-10.824-10.833h-10.823m10.823 0V130m-10.823-10.833h-10.824m10.824 0V130m-10.824-10.833h-10.823m10.823 0V130m-10.823-10.833h-10.824m10.824 0V130m-10.824-10.833H97.412m10.823 0V130m-10.823-10.833H86.588m10.824 0V130m-10.824-10.833H75.765m10.823 0V130m-10.823-10.833H64.94m10.824 0V130M64.94 119.167H54.118m10.823 0V130m-10.823-10.833H43.294m10.824 0V130m-10.824-10.833H32.471m10.823 0V130m-10.823-10.833H21.647m10.824 0V130m-10.824-10.833H10.824m10.823 0V130m-10.823-10.833H0m10.823 0V130M0 119.167V130h10.823m162.353 0h-10.823m0 0h-10.824m0 0h-10.823m0 0h-10.824m0 0h-10.823m0 0h-10.824m0 0H97.412m0 0H86.588m0 0H75.765m0 0H64.94m0 0H54.118m0 0H43.294m0 0H32.471m0 0H21.647m0 0H10.824"/></g><defs><radialGradient id="b" cx="0" cy="0" r="1" gradientTransform="matrix(221.00025 246.50002 -369.97266 331.69998 -57.5 -112.5)" gradientUnits="userSpaceOnUse"><stop stop-color="#fff"/><stop offset=".943" stop-color="#fff" stop-opacity="0"/></radialGradient><clipPath id="a"><path fill="#fff" d="M0 0h258v264H0z"/></clipPath></defs></svg>