<svg xmlns="http://www.w3.org/2000/svg" width="126" height="42" fill="none"><g fill="#3D3D3D" clip-path="url(#a)"><path d="M18.327 8.468c6.133-3.44 14.895-.62 19.573 6.304s3.502 15.323-2.628 18.763c5.212-2.923 6.212-10.066 2.235-15.95s-11.428-8.282-16.637-5.36c-5.213 2.927-6.212 10.066-2.239 15.953 3.977 5.884 11.425 8.283 16.637 5.357-6.133 3.443-14.895.62-19.573-6.305-4.676-6.92-3.498-15.323 2.632-18.762"/><path d="M22.885 10.693c5.025-2.82 12.205-.507 16.035 5.165 3.833 5.67 2.868 12.553-2.156 15.374 4.271-2.396 5.09-8.249 1.831-13.068-3.255-4.819-9.36-6.787-13.629-4.39-4.271 2.395-5.089 8.248-1.83 13.07 3.258 4.822 9.36 6.787 13.631 4.388-5.024 2.82-12.205.51-16.034-5.165-3.834-5.671-2.869-12.557 2.156-15.374z"/><path d="M29.943 10.467c5.325.335 10.202 4.963 10.89 10.336.685 5.374-3.076 9.457-8.402 9.125 4.528.284 7.725-3.187 7.143-7.756-.585-4.569-4.727-8.501-9.255-8.785s-7.728 3.186-7.143 7.755c.586 4.57 4.73 8.502 9.255 8.786-5.326-.336-10.2-4.963-10.887-10.336s3.073-9.457 8.402-9.125z"/><path d="M35.532 12.64c4.213 2.53 6.202 7.674 4.446 11.486-1.76 3.813-6.599 4.853-10.812 2.324 3.583 2.15 7.697 1.267 9.19-1.975 1.495-3.24-.2-7.611-3.78-9.764-3.582-2.15-7.696-1.267-9.189 1.975-1.495 3.24.195 7.611 3.779 9.76-4.213-2.529-6.202-7.673-4.443-11.485 1.76-3.813 6.6-4.854 10.812-2.324z"/></g><path fill="#3D3D3D" d="M107.649 29.408q-1.138 0-1.926-.428a3.03 3.03 0 0 1-1.196-1.158 3.2 3.2 0 0 1-.398-1.585q0-.759.252-1.361a2.7 2.7 0 0 1 .778-1.05q.525-.448 1.362-.73.632-.205 1.478-.37.856-.165 1.848-.3a494 494 0 0 0 2.091-.312l-.837.476q.01-1.088-.486-1.604-.496-.515-1.673-.515-.71 0-1.371.33-.662.33-.924 1.138l-2.139-.671a3.97 3.97 0 0 1 1.478-2.14q1.1-.807 2.956-.807 1.4 0 2.461.457a3.06 3.06 0 0 1 1.585 1.498 3.2 3.2 0 0 1 .34 1.138q.059.573.059 1.254v6.448h-2.052V26.84l.34.37q-.71 1.137-1.663 1.672-.944.526-2.363.526m.467-1.868q.797 0 1.361-.282t.895-.69q.34-.408.457-.768.184-.448.204-1.021.03-.585.029-.944l.72.214q-1.06.165-1.819.292t-1.303.243a8 8 0 0 0-.962.243q-.41.145-.691.34a1.5 1.5 0 0 0-.438.448 1.17 1.17 0 0 0-.145.593q0 .39.194.69.195.292.564.467.38.175.934.175m-8.315 1.576v-5.057q0-.495-.068-1.099a3.8 3.8 0 0 0-.32-1.157 2.2 2.2 0 0 0-.74-.924q-.486-.36-1.322-.36-.448 0-.885.146a2 2 0 0 0-.798.506q-.35.35-.564.972-.213.614-.214 1.575l-1.39-.593q0-1.342.515-2.43a4.14 4.14 0 0 1 1.537-1.732q1.011-.652 2.49-.652 1.166 0 1.925.39.757.389 1.206.991.447.603.661 1.284.214.68.272 1.294.069.603.068.982v5.864zm-7.284 0V18.613h2.091v3.258h.282v7.245zM87.28 17.018V14.87h2.344v2.15H87.28zm0 12.098V18.613h2.344v10.503zm-5.074 0v-6.38q0-1.08-.535-1.682-.535-.613-1.45-.613a1.96 1.96 0 0 0-1.01.263 1.8 1.8 0 0 0-.71.758q-.263.497-.263 1.187l-1.04-.613q-.01-1.088.486-1.916a3.55 3.55 0 0 1 1.361-1.303 3.9 3.9 0 0 1 1.906-.466q1.74 0 2.665 1.05.933 1.041.933 2.742v6.973zm-12.633 0V18.613h2.071v3.258h.292v7.245zm6.33 0v-6.35q0-1.099-.534-1.712-.535-.613-1.459-.613-.894 0-1.439.613-.535.613-.535 1.595l-1.05-.7q0-1.022.506-1.838a3.6 3.6 0 0 1 1.361-1.284 3.95 3.95 0 0 1 1.935-.476q1.177 0 1.965.505.797.496 1.186 1.362.399.855.399 1.935v6.963h-2.334zm-14.547.302q-1.167 0-1.925-.39a3.4 3.4 0 0 1-1.206-.991 4.3 4.3 0 0 1-.662-1.284 7 7 0 0 1-.282-1.284 11 11 0 0 1-.058-.992v-5.864h2.373v5.057q0 .486.068 1.1.068.602.311 1.166.253.554.74.914.495.36 1.331.36.448 0 .885-.146.438-.145.788-.496.36-.36.574-.982.213-.623.214-1.575l1.39.593q0 1.342-.525 2.431a4.14 4.14 0 0 1-1.526 1.74q-1.013.643-2.49.643m3.433-.302v-3.258h-.282v-7.245h2.353v10.503zm-17.548 0V15.112h2.344v11.806h6.185v2.198z"/><defs><clipPath id="a"><path fill="#fff" d="M12.833 7h28.435v28H12.833z"/></clipPath></defs></svg>