<svg xmlns="http://www.w3.org/2000/svg" width="25" height="24" fill="none"><path fill="#923CF6" fill-rule="evenodd" d="M12.333 16a7 7 0 1 0 0-14 7 7 0 0 0 0 14m0-10c-.284 0-.474.34-.854 1.023l-.098.176c-.108.194-.162.29-.246.354s-.19.088-.399.135l-.19.044c-.739.167-1.108.25-1.195.532-.088.283.163.577.666 1.165l.13.152c.143.167.215.25.247.354s.021.215 0 .438l-.02.203c-.076.785-.114 1.178.116 1.352s.575.015 1.266-.303l.179-.082c.196-.09.294-.135.398-.135s.203.045.399.135l.179.082c.69.319 1.036.477 1.266.303s.191-.567.116-1.352l-.02-.203c-.022-.223-.033-.334 0-.438.032-.103.103-.187.246-.354l.13-.152c.503-.588.755-.882.667-1.165-.088-.282-.457-.365-1.195-.532l-.19-.044c-.21-.047-.315-.07-.4-.135-.083-.064-.137-.16-.245-.354l-.099-.176C12.807 6.34 12.617 6 12.333 6" clip-rule="evenodd"/><path fill="#923CF6" d="M4.828 12.995 3.325 14.55c-.54.56-.81.839-.903 1.075-.213.54-.031 1.139.433 1.423.203.124.57.163 1.304.24.415.044.622.066.795.133.389.149.691.462.835.864.064.18.085.394.128.823.075.76.112 1.14.233 1.351.274.48.852.669 1.373.448.229-.096.499-.376 1.039-.935l2.482-2.57a8.5 8.5 0 0 1-6.216-4.408zm8.795 4.408 2.482 2.57c.54.559.81.839 1.039.935.52.22 1.099.032 1.373-.448.12-.21.158-.59.233-1.35.042-.43.063-.644.128-.824.143-.402.446-.715.834-.864.174-.067.381-.089.795-.133.734-.077 1.101-.116 1.305-.24.464-.284.646-.883.433-1.422-.094-.237-.364-.517-.904-1.076l-1.503-1.556a8.5 8.5 0 0 1-6.215 4.408"/></svg>