<svg xmlns="http://www.w3.org/2000/svg" width="48" height="48" fill="none"><g clip-path="url(#a)"><rect width="48" height="48" fill="url(#b)" rx="12"/><g style="mix-blend-mode:plus-lighter"><g filter="url(#c)"><g filter="url(#d)" opacity=".8"><path fill="url(#e)" d="m-38.71-48.553 2.418-2.54L6.148-6.535 34.33 24.55 3.728-3.995z"/></g><g filter="url(#f)" opacity=".8"><path fill="url(#g)" d="m-48.055-38.655 2.42-2.54L-3.197 3.362l28.183 31.085L-5.616 5.902z"/></g><g filter="url(#h)" opacity=".8" style="mix-blend-mode:soft-light"><path fill="url(#i)" d="m-40.72-62.259 2.418-2.54L4.138-20.24 32.32 10.844 1.718-17.701z"/></g><g filter="url(#j)" opacity=".2" style="mix-blend-mode:plus-lighter"><path fill="url(#k)" d="m-39.232-51.556 2.419-2.54L5.626-9.537 33.81 21.547 3.207-6.998z"/></g><g filter="url(#l)" opacity=".2" style="mix-blend-mode:plus-lighter"><path fill="url(#m)" d="m-26.414-29.54 2.419-2.54 42.44 44.558 28.183 31.084-30.603-28.545z"/></g></g><g filter="url(#n)" opacity=".2" style="mix-blend-mode:plus-lighter"><path fill="url(#o)" d="m-39.693-41.082 2.419-2.54L5.165.936 33.349 32.02 2.746 3.475l-42.44-44.557z"/></g><g filter="url(#p)" opacity=".8"><path fill="url(#q)" d="m-49.09-40.424 2.42-2.54L-4.232 1.594l28.183 31.085L-6.65 4.134z"/></g><g filter="url(#r)" opacity=".8" style="mix-blend-mode:soft-light"><path fill="url(#s)" d="m-40.713-62.26 2.42-2.54L4.145-20.241l28.183 31.085L1.727-17.702z"/></g><g filter="url(#t)" opacity=".2" style="mix-blend-mode:plus-lighter"><path fill="url(#u)" d="m-39.695-41.087 2.419-2.54L5.164.931l28.183 31.085L2.744 3.47z"/></g><g filter="url(#v)" opacity=".8"><path fill="url(#w)" d="m-48.047-38.652 2.42-2.54L-3.19 3.365 24.995 34.45-5.608 5.905z"/></g><g filter="url(#x)" opacity=".2" style="mix-blend-mode:plus-lighter"><path fill="url(#y)" d="m-26.406-29.538 2.419-2.54L18.452 12.48l28.184 31.085-30.603-28.546z"/></g></g></g><defs><linearGradient id="b" x1="24" x2="24" y1="0" y2="48" gradientUnits="userSpaceOnUse"><stop stop-color="#770BF4"/><stop offset="1" stop-color="#A054F7"/></linearGradient><linearGradient id="e" x1="-37.501" x2="7.003" y1="-49.823" y2="-7.434" gradientUnits="userSpaceOnUse"><stop stop-color="#fff"/><stop offset=".557" stop-color="#00CBFF"/><stop offset="1" stop-color="#501BE5"/></linearGradient><linearGradient id="g" x1="-46.845" x2="-2.341" y1="-39.925" y2="2.464" gradientUnits="userSpaceOnUse"><stop stop-color="#fff"/><stop offset="1" stop-color="#5C7EF5"/></linearGradient><linearGradient id="i" x1="-39.511" x2="4.993" y1="-63.529" y2="-21.14" gradientUnits="userSpaceOnUse"><stop stop-color="#fff"/><stop offset=".557" stop-color="#00CBFF"/><stop offset="1" stop-color="#501BE5"/></linearGradient><linearGradient id="k" x1="-38.023" x2="6.482" y1="-52.826" y2="-10.437" gradientUnits="userSpaceOnUse"><stop stop-color="#fff"/><stop offset="1" stop-color="#fff"/></linearGradient><linearGradient id="m" x1="-25.204" x2="19.3" y1="-30.81" y2="11.579" gradientUnits="userSpaceOnUse"><stop stop-color="#fff"/><stop offset="1" stop-color="#fff"/></linearGradient><linearGradient id="o" x1="-38.484" x2="6.021" y1="-42.352" y2=".037" gradientUnits="userSpaceOnUse"><stop stop-color="#fff"/><stop offset="1" stop-color="#fff"/></linearGradient><linearGradient id="q" x1="-47.88" x2="-3.375" y1="-41.694" y2=".695" gradientUnits="userSpaceOnUse"><stop stop-color="#fff"/><stop offset="1" stop-color="#5C7EF5"/></linearGradient><linearGradient id="s" x1="-39.503" x2="5.001" y1="-63.53" y2="-21.141" gradientUnits="userSpaceOnUse"><stop stop-color="#fff"/><stop offset="1" stop-color="#5C7EF5"/></linearGradient><linearGradient id="u" x1="-38.486" x2="6.019" y1="-42.357" y2=".032" gradientUnits="userSpaceOnUse"><stop stop-color="#fff"/><stop offset="1" stop-color="#fff"/></linearGradient><linearGradient id="w" x1="-46.837" x2="-2.333" y1="-39.922" y2="2.467" gradientUnits="userSpaceOnUse"><stop stop-color="#fff"/><stop offset="1" stop-color="#5C7EF5"/></linearGradient><linearGradient id="y" x1="-25.197" x2="19.308" y1="-30.808" y2="11.581" gradientUnits="userSpaceOnUse"><stop stop-color="#fff"/><stop offset="1" stop-color="#fff"/></linearGradient><filter id="c" width="253.572" height="267.251" x="-127.5" y="-144.244" color-interpolation-filters="sRGB" filterUnits="userSpaceOnUse"><feFlood flood-opacity="0" result="BackgroundImageFix"/><feBlend in="SourceGraphic" in2="BackgroundImageFix" result="shape"/><feGaussianBlur result="effect1_foregroundBlur_457_46" stdDeviation="39.722"/></filter><filter id="d" width="209.864" height="212.465" x="-107.122" y="-119.504" color-interpolation-filters="sRGB" filterUnits="userSpaceOnUse"><feFlood flood-opacity="0" result="BackgroundImageFix"/><feBlend in="SourceGraphic" in2="BackgroundImageFix" result="shape"/><feGaussianBlur result="effect1_foregroundBlur_457_46" stdDeviation="34.206"/></filter><filter id="f" width="209.864" height="212.465" x="-116.466" y="-109.606" color-interpolation-filters="sRGB" filterUnits="userSpaceOnUse"><feFlood flood-opacity="0" result="BackgroundImageFix"/><feBlend in="SourceGraphic" in2="BackgroundImageFix" result="shape"/><feGaussianBlur result="effect1_foregroundBlur_457_46" stdDeviation="34.206"/></filter><filter id="h" width="209.864" height="212.465" x="-109.132" y="-133.21" color-interpolation-filters="sRGB" filterUnits="userSpaceOnUse"><feFlood flood-opacity="0" result="BackgroundImageFix"/><feBlend in="SourceGraphic" in2="BackgroundImageFix" result="shape"/><feGaussianBlur result="effect1_foregroundBlur_457_46" stdDeviation="34.206"/></filter><filter id="j" width="150.88" height="153.481" x="-78.152" y="-93.015" color-interpolation-filters="sRGB" filterUnits="userSpaceOnUse"><feFlood flood-opacity="0" result="BackgroundImageFix"/><feBlend in="SourceGraphic" in2="BackgroundImageFix" result="shape"/><feGaussianBlur result="effect1_foregroundBlur_457_46" stdDeviation="19.46"/></filter><filter id="l" width="150.88" height="153.481" x="-65.333" y="-70.999" color-interpolation-filters="sRGB" filterUnits="userSpaceOnUse"><feFlood flood-opacity="0" result="BackgroundImageFix"/><feBlend in="SourceGraphic" in2="BackgroundImageFix" result="shape"/><feGaussianBlur result="effect1_foregroundBlur_457_46" stdDeviation="19.46"/></filter><filter id="n" width="109.042" height="111.643" x="-57.693" y="-61.622" color-interpolation-filters="sRGB" filterUnits="userSpaceOnUse"><feFlood flood-opacity="0" result="BackgroundImageFix"/><feBlend in="SourceGraphic" in2="BackgroundImageFix" result="shape"/><feGaussianBlur result="effect1_foregroundBlur_457_46" stdDeviation="9"/></filter><filter id="p" width="93.042" height="95.643" x="-59.09" y="-52.964" color-interpolation-filters="sRGB" filterUnits="userSpaceOnUse"><feFlood flood-opacity="0" result="BackgroundImageFix"/><feBlend in="SourceGraphic" in2="BackgroundImageFix" result="shape"/><feGaussianBlur result="effect1_foregroundBlur_457_46" stdDeviation="5"/></filter><filter id="r" width="93.042" height="95.643" x="-50.713" y="-74.8" color-interpolation-filters="sRGB" filterUnits="userSpaceOnUse"><feFlood flood-opacity="0" result="BackgroundImageFix"/><feBlend in="SourceGraphic" in2="BackgroundImageFix" result="shape"/><feGaussianBlur result="effect1_foregroundBlur_457_46" stdDeviation="5"/></filter><filter id="t" width="113.042" height="115.643" x="-59.695" y="-63.627" color-interpolation-filters="sRGB" filterUnits="userSpaceOnUse"><feFlood flood-opacity="0" result="BackgroundImageFix"/><feBlend in="SourceGraphic" in2="BackgroundImageFix" result="shape"/><feGaussianBlur result="effect1_foregroundBlur_457_46" stdDeviation="10"/></filter><filter id="v" width="209.864" height="212.465" x="-116.458" y="-109.603" color-interpolation-filters="sRGB" filterUnits="userSpaceOnUse"><feFlood flood-opacity="0" result="BackgroundImageFix"/><feBlend in="SourceGraphic" in2="BackgroundImageFix" result="shape"/><feGaussianBlur result="effect1_foregroundBlur_457_46" stdDeviation="34.206"/></filter><filter id="x" width="93.042" height="95.643" x="-36.406" y="-42.078" color-interpolation-filters="sRGB" filterUnits="userSpaceOnUse"><feFlood flood-opacity="0" result="BackgroundImageFix"/><feBlend in="SourceGraphic" in2="BackgroundImageFix" result="shape"/><feGaussianBlur result="effect1_foregroundBlur_457_46" stdDeviation="5"/></filter><clipPath id="a"><rect width="48" height="48" fill="#fff" rx="12"/></clipPath></defs></svg>