<svg xmlns="http://www.w3.org/2000/svg" width="258" height="264" fill="none"><g clip-path="url(#a)" style="mix-blend-mode:multiply"><g filter="url(#b)"><g filter="url(#c)" opacity=".8"><path fill="url(#d)" d="m738.215-696.32-20.927-25.84-367.151 453.345-243.824 316.27 264.752-290.43z"/></g><g filter="url(#e)" opacity=".8"><path fill="url(#f)" d="m828.041-613.615-20.928-25.84-367.15 453.345-243.824 316.271L460.89-160.27z"/></g><g filter="url(#g)" opacity=".8"><path fill="url(#h)" d="m738.215-696.32-20.927-25.84-367.151 453.345-243.824 316.27 264.752-290.43z"/></g><g filter="url(#i)" opacity=".8"><path fill="url(#j)" d="m828.041-613.615-20.928-25.84-367.15 453.345-243.824 316.271L460.89-160.27z"/></g><g filter="url(#k)" opacity=".8"><path fill="url(#l)" d="m738.215-696.32-20.927-25.84-367.151 453.345-243.824 316.27 264.752-290.43z"/></g><g filter="url(#m)" opacity=".8"><path fill="url(#n)" d="m828.041-613.615-20.928-25.84-367.15 453.345-243.824 316.271L460.89-160.27z"/></g><g filter="url(#o)" opacity=".8"><path fill="url(#p)" d="m738.198-696.322-20.927-25.84L350.12-268.817 106.296 47.453l264.752-290.43z"/></g><g filter="url(#q)" opacity=".8"><path fill="url(#r)" d="m819.002-595.629-20.928-25.841-367.15 453.345L187.1 148.147l264.751-290.431z"/></g></g><g filter="url(#s)" opacity=".8"><path fill="url(#t)" d="m738.215-696.32-20.927-25.84-367.151 453.345-243.824 316.27 264.752-290.43z"/></g><g filter="url(#u)" opacity=".8"><path fill="url(#v)" d="m828.041-613.615-20.928-25.84-367.15 453.345-243.824 316.271L460.89-160.27z"/></g><g filter="url(#w)" opacity=".8"><path fill="url(#x)" d="m738.215-696.32-20.927-25.84-367.151 453.345-243.824 316.27 264.752-290.43z"/></g><g filter="url(#y)" opacity=".8"><path fill="url(#z)" d="m828.041-613.615-20.928-25.84-367.15 453.345-243.824 316.271L460.89-160.27z"/></g><g filter="url(#A)" opacity=".8"><path fill="url(#B)" d="m738.215-696.32-20.927-25.84-367.151 453.345-243.824 316.27 264.752-290.43z"/></g><g filter="url(#C)" opacity=".8"><path fill="url(#D)" d="m828.041-613.615-20.928-25.84-367.15 453.345-243.824 316.271L460.89-160.27z"/></g><g filter="url(#E)" opacity=".8"><path fill="url(#F)" d="m738.198-696.322-20.927-25.84L350.12-268.817 106.296 47.453l264.752-290.43z"/></g><g filter="url(#G)" opacity=".8"><path fill="url(#H)" d="m770.146-655.527-20.928-25.841-367.151 453.346-243.823 316.27 264.751-290.43z"/></g><g filter="url(#I)" opacity=".8"><path fill="url(#J)" d="m819.002-595.629-20.928-25.841-367.15 453.345L187.1 148.147l264.751-290.431z"/></g></g><defs><filter id="b" width="880.634" height="1168.66" x="26.851" y="-941.07" color-interpolation-filters="sRGB" filterUnits="userSpaceOnUse"><feFlood flood-opacity="0" result="BackgroundImageFix"/><feBlend in="SourceGraphic" in2="BackgroundImageFix" result="shape"/><feGaussianBlur result="effect1_foregroundBlur_522_6676" stdDeviation="39.722"/></filter><filter id="c" width="768.724" height="906.438" x="37.902" y="-790.572" color-interpolation-filters="sRGB" filterUnits="userSpaceOnUse"><feFlood flood-opacity="0" result="BackgroundImageFix"/><feBlend in="SourceGraphic" in2="BackgroundImageFix" result="shape"/><feGaussianBlur result="effect1_foregroundBlur_522_6676" stdDeviation="34.206"/></filter><filter id="e" width="768.724" height="906.438" x="127.728" y="-707.867" color-interpolation-filters="sRGB" filterUnits="userSpaceOnUse"><feFlood flood-opacity="0" result="BackgroundImageFix"/><feBlend in="SourceGraphic" in2="BackgroundImageFix" result="shape"/><feGaussianBlur result="effect1_foregroundBlur_522_6676" stdDeviation="34.206"/></filter><filter id="g" width="768.724" height="906.438" x="37.902" y="-790.572" color-interpolation-filters="sRGB" filterUnits="userSpaceOnUse"><feFlood flood-opacity="0" result="BackgroundImageFix"/><feBlend in="SourceGraphic" in2="BackgroundImageFix" result="shape"/><feGaussianBlur result="effect1_foregroundBlur_522_6676" stdDeviation="34.206"/></filter><filter id="i" width="768.724" height="906.438" x="127.728" y="-707.867" color-interpolation-filters="sRGB" filterUnits="userSpaceOnUse"><feFlood flood-opacity="0" result="BackgroundImageFix"/><feBlend in="SourceGraphic" in2="BackgroundImageFix" result="shape"/><feGaussianBlur result="effect1_foregroundBlur_522_6676" stdDeviation="34.206"/></filter><filter id="k" width="768.724" height="906.438" x="37.902" y="-790.572" color-interpolation-filters="sRGB" filterUnits="userSpaceOnUse"><feFlood flood-opacity="0" result="BackgroundImageFix"/><feBlend in="SourceGraphic" in2="BackgroundImageFix" result="shape"/><feGaussianBlur result="effect1_foregroundBlur_522_6676" stdDeviation="34.206"/></filter><filter id="m" width="768.724" height="906.438" x="127.728" y="-707.867" color-interpolation-filters="sRGB" filterUnits="userSpaceOnUse"><feFlood flood-opacity="0" result="BackgroundImageFix"/><feBlend in="SourceGraphic" in2="BackgroundImageFix" result="shape"/><feGaussianBlur result="effect1_foregroundBlur_522_6676" stdDeviation="34.206"/></filter><filter id="o" width="768.724" height="906.438" x="37.885" y="-790.574" color-interpolation-filters="sRGB" filterUnits="userSpaceOnUse"><feFlood flood-opacity="0" result="BackgroundImageFix"/><feBlend in="SourceGraphic" in2="BackgroundImageFix" result="shape"/><feGaussianBlur result="effect1_foregroundBlur_522_6676" stdDeviation="34.206"/></filter><filter id="q" width="768.724" height="906.438" x="118.689" y="-689.881" color-interpolation-filters="sRGB" filterUnits="userSpaceOnUse"><feFlood flood-opacity="0" result="BackgroundImageFix"/><feBlend in="SourceGraphic" in2="BackgroundImageFix" result="shape"/><feGaussianBlur result="effect1_foregroundBlur_522_6676" stdDeviation="34.206"/></filter><filter id="s" width="768.724" height="906.438" x="37.902" y="-790.572" color-interpolation-filters="sRGB" filterUnits="userSpaceOnUse"><feFlood flood-opacity="0" result="BackgroundImageFix"/><feBlend in="SourceGraphic" in2="BackgroundImageFix" result="shape"/><feGaussianBlur result="effect1_foregroundBlur_522_6676" stdDeviation="34.206"/></filter><filter id="u" width="768.724" height="906.438" x="127.728" y="-707.867" color-interpolation-filters="sRGB" filterUnits="userSpaceOnUse"><feFlood flood-opacity="0" result="BackgroundImageFix"/><feBlend in="SourceGraphic" in2="BackgroundImageFix" result="shape"/><feGaussianBlur result="effect1_foregroundBlur_522_6676" stdDeviation="34.206"/></filter><filter id="w" width="768.724" height="906.438" x="37.902" y="-790.572" color-interpolation-filters="sRGB" filterUnits="userSpaceOnUse"><feFlood flood-opacity="0" result="BackgroundImageFix"/><feBlend in="SourceGraphic" in2="BackgroundImageFix" result="shape"/><feGaussianBlur result="effect1_foregroundBlur_522_6676" stdDeviation="34.206"/></filter><filter id="y" width="768.724" height="906.438" x="127.728" y="-707.867" color-interpolation-filters="sRGB" filterUnits="userSpaceOnUse"><feFlood flood-opacity="0" result="BackgroundImageFix"/><feBlend in="SourceGraphic" in2="BackgroundImageFix" result="shape"/><feGaussianBlur result="effect1_foregroundBlur_522_6676" stdDeviation="34.206"/></filter><filter id="A" width="768.724" height="906.438" x="37.902" y="-790.572" color-interpolation-filters="sRGB" filterUnits="userSpaceOnUse"><feFlood flood-opacity="0" result="BackgroundImageFix"/><feBlend in="SourceGraphic" in2="BackgroundImageFix" result="shape"/><feGaussianBlur result="effect1_foregroundBlur_522_6676" stdDeviation="34.206"/></filter><filter id="C" width="768.724" height="906.438" x="127.728" y="-707.867" color-interpolation-filters="sRGB" filterUnits="userSpaceOnUse"><feFlood flood-opacity="0" result="BackgroundImageFix"/><feBlend in="SourceGraphic" in2="BackgroundImageFix" result="shape"/><feGaussianBlur result="effect1_foregroundBlur_522_6676" stdDeviation="34.206"/></filter><filter id="E" width="768.724" height="906.438" x="37.885" y="-790.574" color-interpolation-filters="sRGB" filterUnits="userSpaceOnUse"><feFlood flood-opacity="0" result="BackgroundImageFix"/><feBlend in="SourceGraphic" in2="BackgroundImageFix" result="shape"/><feGaussianBlur result="effect1_foregroundBlur_522_6676" stdDeviation="34.206"/></filter><filter id="G" width="768.724" height="906.438" x="69.832" y="-749.779" color-interpolation-filters="sRGB" filterUnits="userSpaceOnUse"><feFlood flood-opacity="0" result="BackgroundImageFix"/><feBlend in="SourceGraphic" in2="BackgroundImageFix" result="shape"/><feGaussianBlur result="effect1_foregroundBlur_522_6676" stdDeviation="34.206"/></filter><filter id="I" width="768.724" height="906.438" x="118.689" y="-689.881" color-interpolation-filters="sRGB" filterUnits="userSpaceOnUse"><feFlood flood-opacity="0" result="BackgroundImageFix"/><feBlend in="SourceGraphic" in2="BackgroundImageFix" result="shape"/><feGaussianBlur result="effect1_foregroundBlur_522_6676" stdDeviation="34.206"/></filter><linearGradient id="d" x1="727.752" x2="284.304" y1="-709.24" y2="-350.105" gradientUnits="userSpaceOnUse"><stop stop-color="#fff"/><stop offset="1" stop-color="#b0e562"/></linearGradient><linearGradient id="f" x1="817.577" x2="374.129" y1="-626.535" y2="-267.4" gradientUnits="userSpaceOnUse"><stop stop-color="#fff"/><stop offset="1" stop-color="#b0e562"/></linearGradient><linearGradient id="h" x1="727.752" x2="284.304" y1="-709.24" y2="-350.105" gradientUnits="userSpaceOnUse"><stop stop-color="#fff"/><stop offset="1" stop-color="#b0e562"/></linearGradient><linearGradient id="j" x1="817.577" x2="374.129" y1="-626.535" y2="-267.4" gradientUnits="userSpaceOnUse"><stop stop-color="#fff"/><stop offset="1" stop-color="#b0e562"/></linearGradient><linearGradient id="l" x1="727.752" x2="284.304" y1="-709.24" y2="-350.105" gradientUnits="userSpaceOnUse"><stop stop-color="#fff"/><stop offset="1" stop-color="#b0e562"/></linearGradient><linearGradient id="n" x1="817.577" x2="374.129" y1="-626.535" y2="-267.4" gradientUnits="userSpaceOnUse"><stop stop-color="#fff"/><stop offset="1" stop-color="#b0e562"/></linearGradient><linearGradient id="p" x1="727.735" x2="284.287" y1="-709.242" y2="-350.107" gradientUnits="userSpaceOnUse"><stop stop-color="#fff"/><stop offset=".557" stop-color="#b0e562"/><stop offset="1" stop-color="#b0e562"/></linearGradient><linearGradient id="r" x1="808.538" x2="365.09" y1="-608.549" y2="-249.414" gradientUnits="userSpaceOnUse"><stop stop-color="#fff"/><stop offset="1" stop-color="#b0e562"/></linearGradient><linearGradient id="t" x1="727.752" x2="284.304" y1="-709.24" y2="-350.105" gradientUnits="userSpaceOnUse"><stop stop-color="#fff"/><stop offset="1" stop-color="#b0e562"/></linearGradient><linearGradient id="v" x1="817.577" x2="374.129" y1="-626.535" y2="-267.4" gradientUnits="userSpaceOnUse"><stop stop-color="#fff"/><stop offset="1" stop-color="#b0e562"/></linearGradient><linearGradient id="x" x1="727.752" x2="284.304" y1="-709.24" y2="-350.105" gradientUnits="userSpaceOnUse"><stop stop-color="#fff"/><stop offset="1" stop-color="#b0e562"/></linearGradient><linearGradient id="z" x1="817.577" x2="374.129" y1="-626.535" y2="-267.4" gradientUnits="userSpaceOnUse"><stop stop-color="#fff"/><stop offset="1" stop-color="#b0e562"/></linearGradient><linearGradient id="B" x1="727.752" x2="284.304" y1="-709.24" y2="-350.105" gradientUnits="userSpaceOnUse"><stop stop-color="#fff"/><stop offset="1" stop-color="#b0e562"/></linearGradient><linearGradient id="D" x1="817.577" x2="374.129" y1="-626.535" y2="-267.4" gradientUnits="userSpaceOnUse"><stop stop-color="#fff"/><stop offset="1" stop-color="#b0e562"/></linearGradient><linearGradient id="F" x1="727.735" x2="284.287" y1="-709.242" y2="-350.107" gradientUnits="userSpaceOnUse"><stop stop-color="#fff"/><stop offset=".557" stop-color="#b0e562"/><stop offset="1" stop-color="#b0e562"/></linearGradient><linearGradient id="H" x1="759.682" x2="316.234" y1="-668.447" y2="-309.312" gradientUnits="userSpaceOnUse"><stop stop-color="#fff"/><stop offset=".557" stop-color="#b0e562"/><stop offset="1" stop-color="#b0e562"/></linearGradient><linearGradient id="J" x1="808.538" x2="365.09" y1="-608.549" y2="-249.414" gradientUnits="userSpaceOnUse"><stop stop-color="#fff"/><stop offset="1" stop-color="#b0e562"/></linearGradient><clipPath id="a"><path fill="#fff" d="M258 0H0v264h258z"/></clipPath></defs></svg>