<svg xmlns="http://www.w3.org/2000/svg" width="23" height="23" fill="none"><path fill="#0a0a0c" fill-rule="evenodd" d="M11.33 20.994a9.167 9.167 0 1 0 0-18.333 9.167 9.167 0 0 0 0 18.333m-3.301-5.91a.69.69 0 0 1 .961-.142 3.9 3.9 0 0 0 2.34.781 3.9 3.9 0 0 0 2.341-.781.688.688 0 1 1 .82 1.105 5.3 5.3 0 0 1-3.16 1.052 5.3 5.3 0 0 1-3.16-1.052.69.69 0 0 1-.142-.962zm6.969-4.631c0 .76-.41 1.375-.917 1.375-.506 0-.917-.616-.917-1.375 0-.76.41-1.375.917-1.375.506 0 .917.615.917 1.375M8.58 11.828c.506 0 .917-.616.917-1.375 0-.76-.41-1.375-.917-1.375-.506 0-.917.615-.917 1.375s.41 1.375.917 1.375" clip-rule="evenodd"/></svg>