<svg xmlns="http://www.w3.org/2000/svg" width="212" height="217" fill="none"><g clip-path="url(#a)" style="mix-blend-mode:multiply"><g filter="url(#b)"><g filter="url(#c)" opacity=".8"><path fill="url(#d)" d="m606.596-572.354-17.196-21.24-301.69 372.636L87.359 39.007l217.547-238.725z"/></g><g filter="url(#e)" opacity=".8"><path fill="url(#f)" d="m680.406-504.373-17.197-21.24L361.52-152.977 161.168 106.988l217.548-238.725z"/></g><path fill="url(#g)" d="m620.864-686.99-17.196-21.24-301.69 372.636L101.627-75.629l217.547-238.725z" opacity=".8"/><g filter="url(#h)" opacity=".2" style="mix-blend-mode:plus-lighter"><path fill="url(#i)" d="m613.613-509.923-17.197-21.24-301.689 372.636L94.375 101.438l217.548-238.725z"/></g><g filter="url(#j)" opacity=".8"><path fill="url(#k)" d="m606.596-572.354-17.196-21.24-301.69 372.636L87.359 39.007l217.547-238.725z"/></g><g filter="url(#l)" opacity=".8"><path fill="url(#m)" d="m680.406-504.373-17.197-21.24L361.52-152.977 161.168 106.988l217.548-238.725z"/></g><path fill="url(#n)" d="m620.864-686.99-17.196-21.24-301.69 372.636L101.627-75.629l217.547-238.725z" opacity=".8"/><g filter="url(#o)" opacity=".2" style="mix-blend-mode:plus-lighter"><path fill="url(#p)" d="m613.613-509.923-17.197-21.24-301.689 372.636L94.375 101.438l217.548-238.725z"/></g><g filter="url(#q)" opacity=".8"><path fill="url(#r)" d="m606.596-572.354-17.196-21.24-301.69 372.636L87.359 39.007l217.547-238.725z"/></g><g filter="url(#s)" opacity=".8"><path fill="url(#t)" d="m680.406-504.373-17.197-21.24L361.52-152.977 161.168 106.988l217.548-238.725z"/></g><path fill="url(#u)" d="m620.864-686.99-17.196-21.24-301.69 372.636L101.627-75.629l217.547-238.725z" opacity=".8"/><g filter="url(#v)" opacity=".2" style="mix-blend-mode:plus-lighter"><path fill="url(#w)" d="m613.613-509.923-17.197-21.24-301.689 372.636L94.375 101.438l217.548-238.725z"/></g><g filter="url(#x)" opacity=".8"><path fill="url(#y)" d="m606.582-572.355-17.197-21.24-301.689 372.636L87.344 39.006l217.548-238.725z"/></g><g filter="url(#z)" opacity=".8"><path fill="url(#A)" d="m672.978-489.589-17.196-21.24-301.69 372.636-200.351 259.965 217.548-238.725z"/></g><path fill="url(#B)" d="m620.854-686.988-17.197-21.241-301.689 372.636L101.616-75.627l217.548-238.725z" opacity=".8"/><g filter="url(#C)" opacity=".2" style="mix-blend-mode:plus-lighter"><path fill="url(#D)" d="m610.266-597.471-17.196-21.24-301.69 372.635L91.029 13.89l217.547-238.725z"/></g><g filter="url(#E)" opacity=".2" style="mix-blend-mode:plus-lighter"><path fill="url(#F)" d="m519.13-413.352-17.196-21.24-301.69 372.636L-.107 198.009 217.44-40.716z"/></g></g><g filter="url(#G)" opacity=".8"><path fill="url(#H)" d="m606.596-572.354-17.196-21.24-301.69 372.636L87.359 39.007l217.547-238.725z"/></g><g filter="url(#I)" opacity=".8"><path fill="url(#J)" d="m680.406-504.373-17.197-21.24L361.52-152.977 161.168 106.988l217.548-238.725z"/></g><path fill="url(#K)" d="m620.864-686.99-17.196-21.24-301.69 372.636L101.627-75.629l217.547-238.725z" opacity=".8"/><g filter="url(#L)" opacity=".2" style="mix-blend-mode:plus-lighter"><path fill="url(#M)" d="m613.613-509.923-17.197-21.24-301.689 372.636L94.375 101.438l217.548-238.725z"/></g><g filter="url(#N)" opacity=".8"><path fill="url(#O)" d="m606.596-572.354-17.196-21.24-301.69 372.636L87.359 39.007l217.547-238.725z"/></g><g filter="url(#P)" opacity=".8"><path fill="url(#Q)" d="m680.406-504.373-17.197-21.24L361.52-152.977 161.168 106.988l217.548-238.725z"/></g><path fill="url(#R)" d="m620.864-686.99-17.196-21.24-301.69 372.636L101.627-75.629l217.547-238.725z" opacity=".8"/><g filter="url(#S)" opacity=".2" style="mix-blend-mode:plus-lighter"><path fill="url(#T)" d="m613.613-509.923-17.197-21.24-301.689 372.636L94.375 101.438l217.548-238.725z"/></g><g filter="url(#U)" opacity=".8"><path fill="url(#V)" d="m606.596-572.354-17.196-21.24-301.69 372.636L87.359 39.007l217.547-238.725z"/></g><g filter="url(#W)" opacity=".8"><path fill="url(#X)" d="m680.406-504.373-17.197-21.24L361.52-152.977 161.168 106.988l217.548-238.725z"/></g><path fill="url(#Y)" d="m620.864-686.99-17.196-21.24-301.69 372.636L101.627-75.629l217.547-238.725z" opacity=".8"/><g filter="url(#Z)" opacity=".2" style="mix-blend-mode:plus-lighter"><path fill="url(#aa)" d="m613.613-509.923-17.197-21.24-301.689 372.636L94.375 101.438l217.548-238.725z"/></g><g filter="url(#ab)" opacity=".8"><path fill="url(#ac)" d="m606.582-572.355-17.197-21.24-301.689 372.636L87.344 39.006l217.548-238.725z"/></g><g filter="url(#ad)" opacity=".8"><path fill="url(#ae)" d="m632.833-538.823-17.196-21.24-301.69 372.635L113.596 72.538l217.547-238.725z"/></g><g filter="url(#af)" opacity=".8"><path fill="url(#ag)" d="m672.978-489.589-17.196-21.24-301.69 372.636-200.351 259.965 217.548-238.725z"/></g><path fill="url(#ah)" d="m620.854-686.988-17.197-21.241-301.689 372.636L101.616-75.627l217.548-238.725z" opacity=".8"/><g filter="url(#ai)" opacity=".2" style="mix-blend-mode:plus-lighter"><path fill="url(#aj)" d="m610.266-597.471-17.196-21.24-301.69 372.635L91.029 13.89l217.547-238.725z"/></g><g filter="url(#ak)" opacity=".2" style="mix-blend-mode:plus-lighter"><path fill="url(#al)" d="m519.13-413.352-17.196-21.24-301.69 372.636L-.107 198.009 217.44-40.716z"/></g></g><defs><linearGradient id="d" x1="597.998" x2="233.521" y1="-582.974" y2="-287.89" gradientUnits="userSpaceOnUse"><stop stop-color="#fff"/><stop offset="1" stop-color="#770BF4"/></linearGradient><linearGradient id="f" x1="671.808" x2="307.331" y1="-514.993" y2="-219.909" gradientUnits="userSpaceOnUse"><stop stop-color="#fff"/><stop offset="1" stop-color="#770BF4"/></linearGradient><linearGradient id="g" x1="612.266" x2="247.789" y1="-697.61" y2="-402.526" gradientUnits="userSpaceOnUse"><stop stop-color="#fff"/><stop offset="1" stop-color="#770BF4"/></linearGradient><linearGradient id="i" x1="605.014" x2="240.538" y1="-520.543" y2="-225.459" gradientUnits="userSpaceOnUse"><stop stop-color="#fff"/><stop offset="1" stop-color="#fff"/></linearGradient><linearGradient id="k" x1="597.998" x2="233.521" y1="-582.974" y2="-287.89" gradientUnits="userSpaceOnUse"><stop stop-color="#fff"/><stop offset="1" stop-color="#770BF4"/></linearGradient><linearGradient id="m" x1="671.808" x2="307.331" y1="-514.993" y2="-219.909" gradientUnits="userSpaceOnUse"><stop stop-color="#fff"/><stop offset="1" stop-color="#770BF4"/></linearGradient><linearGradient id="n" x1="612.266" x2="247.789" y1="-697.61" y2="-402.526" gradientUnits="userSpaceOnUse"><stop stop-color="#fff"/><stop offset="1" stop-color="#770BF4"/></linearGradient><linearGradient id="p" x1="605.014" x2="240.538" y1="-520.543" y2="-225.459" gradientUnits="userSpaceOnUse"><stop stop-color="#fff"/><stop offset="1" stop-color="#fff"/></linearGradient><linearGradient id="r" x1="597.998" x2="233.521" y1="-582.974" y2="-287.89" gradientUnits="userSpaceOnUse"><stop stop-color="#fff"/><stop offset="1" stop-color="#770BF4"/></linearGradient><linearGradient id="t" x1="671.808" x2="307.331" y1="-514.993" y2="-219.909" gradientUnits="userSpaceOnUse"><stop stop-color="#fff"/><stop offset="1" stop-color="#770BF4"/></linearGradient><linearGradient id="u" x1="612.266" x2="247.789" y1="-697.61" y2="-402.526" gradientUnits="userSpaceOnUse"><stop stop-color="#fff"/><stop offset="1" stop-color="#770BF4"/></linearGradient><linearGradient id="w" x1="605.014" x2="240.538" y1="-520.543" y2="-225.459" gradientUnits="userSpaceOnUse"><stop stop-color="#fff"/><stop offset="1" stop-color="#fff"/></linearGradient><linearGradient id="y" x1="597.984" x2="233.507" y1="-582.975" y2="-287.891" gradientUnits="userSpaceOnUse"><stop stop-color="#fff"/><stop offset=".557" stop-color="#770BF4"/><stop offset="1" stop-color="#770BF4"/></linearGradient><linearGradient id="A" x1="664.38" x2="299.904" y1="-500.209" y2="-205.125" gradientUnits="userSpaceOnUse"><stop stop-color="#fff"/><stop offset="1" stop-color="#770BF4"/></linearGradient><linearGradient id="B" x1="612.255" x2="247.779" y1="-697.608" y2="-402.524" gradientUnits="userSpaceOnUse"><stop stop-color="#fff"/><stop offset=".557" stop-color="#770BF4"/><stop offset="1" stop-color="#770BF4"/></linearGradient><linearGradient id="D" x1="601.668" x2="237.191" y1="-608.091" y2="-313.007" gradientUnits="userSpaceOnUse"><stop stop-color="#fff"/><stop offset="1" stop-color="#fff"/></linearGradient><linearGradient id="F" x1="510.532" x2="146.055" y1="-423.972" y2="-128.888" gradientUnits="userSpaceOnUse"><stop stop-color="#fff"/><stop offset="1" stop-color="#fff"/></linearGradient><linearGradient id="H" x1="597.998" x2="233.521" y1="-582.974" y2="-287.89" gradientUnits="userSpaceOnUse"><stop stop-color="#fff"/><stop offset="1" stop-color="#770BF4"/></linearGradient><linearGradient id="J" x1="671.808" x2="307.331" y1="-514.993" y2="-219.909" gradientUnits="userSpaceOnUse"><stop stop-color="#fff"/><stop offset="1" stop-color="#770BF4"/></linearGradient><linearGradient id="K" x1="612.266" x2="247.789" y1="-697.61" y2="-402.526" gradientUnits="userSpaceOnUse"><stop stop-color="#fff"/><stop offset="1" stop-color="#770BF4"/></linearGradient><linearGradient id="M" x1="605.014" x2="240.538" y1="-520.543" y2="-225.459" gradientUnits="userSpaceOnUse"><stop stop-color="#fff"/><stop offset="1" stop-color="#fff"/></linearGradient><linearGradient id="O" x1="597.998" x2="233.521" y1="-582.974" y2="-287.89" gradientUnits="userSpaceOnUse"><stop stop-color="#fff"/><stop offset="1" stop-color="#770BF4"/></linearGradient><linearGradient id="Q" x1="671.808" x2="307.331" y1="-514.993" y2="-219.909" gradientUnits="userSpaceOnUse"><stop stop-color="#fff"/><stop offset="1" stop-color="#770BF4"/></linearGradient><linearGradient id="R" x1="612.266" x2="247.789" y1="-697.61" y2="-402.526" gradientUnits="userSpaceOnUse"><stop stop-color="#fff"/><stop offset="1" stop-color="#770BF4"/></linearGradient><linearGradient id="T" x1="605.014" x2="240.538" y1="-520.543" y2="-225.459" gradientUnits="userSpaceOnUse"><stop stop-color="#fff"/><stop offset="1" stop-color="#fff"/></linearGradient><linearGradient id="V" x1="597.998" x2="233.521" y1="-582.974" y2="-287.89" gradientUnits="userSpaceOnUse"><stop stop-color="#fff"/><stop offset="1" stop-color="#770BF4"/></linearGradient><linearGradient id="X" x1="671.808" x2="307.331" y1="-514.993" y2="-219.909" gradientUnits="userSpaceOnUse"><stop stop-color="#fff"/><stop offset="1" stop-color="#770BF4"/></linearGradient><linearGradient id="Y" x1="612.266" x2="247.789" y1="-697.61" y2="-402.526" gradientUnits="userSpaceOnUse"><stop stop-color="#fff"/><stop offset="1" stop-color="#770BF4"/></linearGradient><linearGradient id="aa" x1="605.014" x2="240.538" y1="-520.543" y2="-225.459" gradientUnits="userSpaceOnUse"><stop stop-color="#fff"/><stop offset="1" stop-color="#fff"/></linearGradient><linearGradient id="ac" x1="597.984" x2="233.507" y1="-582.975" y2="-287.891" gradientUnits="userSpaceOnUse"><stop stop-color="#fff"/><stop offset=".557" stop-color="#770BF4"/><stop offset="1" stop-color="#770BF4"/></linearGradient><linearGradient id="ae" x1="624.235" x2="259.758" y1="-549.443" y2="-254.359" gradientUnits="userSpaceOnUse"><stop stop-color="#fff"/><stop offset=".557" stop-color="#770BF4"/><stop offset="1" stop-color="#770BF4"/></linearGradient><linearGradient id="ag" x1="664.38" x2="299.904" y1="-500.209" y2="-205.125" gradientUnits="userSpaceOnUse"><stop stop-color="#fff"/><stop offset="1" stop-color="#770BF4"/></linearGradient><linearGradient id="ah" x1="612.255" x2="247.779" y1="-697.608" y2="-402.524" gradientUnits="userSpaceOnUse"><stop stop-color="#fff"/><stop offset=".557" stop-color="#770BF4"/><stop offset="1" stop-color="#770BF4"/></linearGradient><linearGradient id="aj" x1="601.668" x2="237.191" y1="-608.091" y2="-313.007" gradientUnits="userSpaceOnUse"><stop stop-color="#fff"/><stop offset="1" stop-color="#fff"/></linearGradient><linearGradient id="al" x1="510.532" x2="146.055" y1="-423.972" y2="-128.888" gradientUnits="userSpaceOnUse"><stop stop-color="#fff"/><stop offset="1" stop-color="#fff"/></linearGradient><filter id="b" width="839.403" height="1065.13" x="-79.552" y="-787.675" color-interpolation-filters="sRGB" filterUnits="userSpaceOnUse"><feFlood flood-opacity="0" result="BackgroundImageFix"/><feBlend in="SourceGraphic" in2="BackgroundImageFix" result="shape"/><feGaussianBlur result="effect1_foregroundBlur_455_12249" stdDeviation="39.722"/></filter><filter id="c" width="656.06" height="769.423" x="18.947" y="-662.005" color-interpolation-filters="sRGB" filterUnits="userSpaceOnUse"><feFlood flood-opacity="0" result="BackgroundImageFix"/><feBlend in="SourceGraphic" in2="BackgroundImageFix" result="shape"/><feGaussianBlur result="effect1_foregroundBlur_455_12249" stdDeviation="34.206"/></filter><filter id="e" width="656.059" height="769.423" x="92.757" y="-594.024" color-interpolation-filters="sRGB" filterUnits="userSpaceOnUse"><feFlood flood-opacity="0" result="BackgroundImageFix"/><feBlend in="SourceGraphic" in2="BackgroundImageFix" result="shape"/><feGaussianBlur result="effect1_foregroundBlur_455_12249" stdDeviation="34.206"/></filter><filter id="h" width="597.076" height="710.44" x="55.456" y="-570.082" color-interpolation-filters="sRGB" filterUnits="userSpaceOnUse"><feFlood flood-opacity="0" result="BackgroundImageFix"/><feBlend in="SourceGraphic" in2="BackgroundImageFix" result="shape"/><feGaussianBlur result="effect1_foregroundBlur_455_12249" stdDeviation="19.46"/></filter><filter id="j" width="656.06" height="769.423" x="18.947" y="-662.005" color-interpolation-filters="sRGB" filterUnits="userSpaceOnUse"><feFlood flood-opacity="0" result="BackgroundImageFix"/><feBlend in="SourceGraphic" in2="BackgroundImageFix" result="shape"/><feGaussianBlur result="effect1_foregroundBlur_455_12249" stdDeviation="34.206"/></filter><filter id="l" width="656.059" height="769.423" x="92.757" y="-594.024" color-interpolation-filters="sRGB" filterUnits="userSpaceOnUse"><feFlood flood-opacity="0" result="BackgroundImageFix"/><feBlend in="SourceGraphic" in2="BackgroundImageFix" result="shape"/><feGaussianBlur result="effect1_foregroundBlur_455_12249" stdDeviation="34.206"/></filter><filter id="o" width="597.076" height="710.44" x="55.456" y="-570.082" color-interpolation-filters="sRGB" filterUnits="userSpaceOnUse"><feFlood flood-opacity="0" result="BackgroundImageFix"/><feBlend in="SourceGraphic" in2="BackgroundImageFix" result="shape"/><feGaussianBlur result="effect1_foregroundBlur_455_12249" stdDeviation="19.46"/></filter><filter id="q" width="656.06" height="769.423" x="18.947" y="-662.005" color-interpolation-filters="sRGB" filterUnits="userSpaceOnUse"><feFlood flood-opacity="0" result="BackgroundImageFix"/><feBlend in="SourceGraphic" in2="BackgroundImageFix" result="shape"/><feGaussianBlur result="effect1_foregroundBlur_455_12249" stdDeviation="34.206"/></filter><filter id="s" width="656.059" height="769.423" x="92.757" y="-594.024" color-interpolation-filters="sRGB" filterUnits="userSpaceOnUse"><feFlood flood-opacity="0" result="BackgroundImageFix"/><feBlend in="SourceGraphic" in2="BackgroundImageFix" result="shape"/><feGaussianBlur result="effect1_foregroundBlur_455_12249" stdDeviation="34.206"/></filter><filter id="v" width="597.076" height="710.44" x="55.456" y="-570.082" color-interpolation-filters="sRGB" filterUnits="userSpaceOnUse"><feFlood flood-opacity="0" result="BackgroundImageFix"/><feBlend in="SourceGraphic" in2="BackgroundImageFix" result="shape"/><feGaussianBlur result="effect1_foregroundBlur_455_12249" stdDeviation="19.46"/></filter><filter id="x" width="656.06" height="769.423" x="18.933" y="-662.006" color-interpolation-filters="sRGB" filterUnits="userSpaceOnUse"><feFlood flood-opacity="0" result="BackgroundImageFix"/><feBlend in="SourceGraphic" in2="BackgroundImageFix" result="shape"/><feGaussianBlur result="effect1_foregroundBlur_455_12249" stdDeviation="34.206"/></filter><filter id="z" width="656.06" height="769.424" x="85.33" y="-579.24" color-interpolation-filters="sRGB" filterUnits="userSpaceOnUse"><feFlood flood-opacity="0" result="BackgroundImageFix"/><feBlend in="SourceGraphic" in2="BackgroundImageFix" result="shape"/><feGaussianBlur result="effect1_foregroundBlur_455_12249" stdDeviation="34.206"/></filter><filter id="C" width="597.076" height="710.439" x="52.109" y="-657.631" color-interpolation-filters="sRGB" filterUnits="userSpaceOnUse"><feFlood flood-opacity="0" result="BackgroundImageFix"/><feBlend in="SourceGraphic" in2="BackgroundImageFix" result="shape"/><feGaussianBlur result="effect1_foregroundBlur_455_12249" stdDeviation="19.46"/></filter><filter id="E" width="597.076" height="710.439" x="-39.027" y="-473.511" color-interpolation-filters="sRGB" filterUnits="userSpaceOnUse"><feFlood flood-opacity="0" result="BackgroundImageFix"/><feBlend in="SourceGraphic" in2="BackgroundImageFix" result="shape"/><feGaussianBlur result="effect1_foregroundBlur_455_12249" stdDeviation="19.46"/></filter><filter id="G" width="656.06" height="769.423" x="18.947" y="-662.005" color-interpolation-filters="sRGB" filterUnits="userSpaceOnUse"><feFlood flood-opacity="0" result="BackgroundImageFix"/><feBlend in="SourceGraphic" in2="BackgroundImageFix" result="shape"/><feGaussianBlur result="effect1_foregroundBlur_455_12249" stdDeviation="34.206"/></filter><filter id="I" width="656.059" height="769.423" x="92.757" y="-594.024" color-interpolation-filters="sRGB" filterUnits="userSpaceOnUse"><feFlood flood-opacity="0" result="BackgroundImageFix"/><feBlend in="SourceGraphic" in2="BackgroundImageFix" result="shape"/><feGaussianBlur result="effect1_foregroundBlur_455_12249" stdDeviation="34.206"/></filter><filter id="L" width="597.076" height="710.44" x="55.456" y="-570.082" color-interpolation-filters="sRGB" filterUnits="userSpaceOnUse"><feFlood flood-opacity="0" result="BackgroundImageFix"/><feBlend in="SourceGraphic" in2="BackgroundImageFix" result="shape"/><feGaussianBlur result="effect1_foregroundBlur_455_12249" stdDeviation="19.46"/></filter><filter id="N" width="656.06" height="769.423" x="18.947" y="-662.005" color-interpolation-filters="sRGB" filterUnits="userSpaceOnUse"><feFlood flood-opacity="0" result="BackgroundImageFix"/><feBlend in="SourceGraphic" in2="BackgroundImageFix" result="shape"/><feGaussianBlur result="effect1_foregroundBlur_455_12249" stdDeviation="34.206"/></filter><filter id="P" width="656.059" height="769.423" x="92.757" y="-594.024" color-interpolation-filters="sRGB" filterUnits="userSpaceOnUse"><feFlood flood-opacity="0" result="BackgroundImageFix"/><feBlend in="SourceGraphic" in2="BackgroundImageFix" result="shape"/><feGaussianBlur result="effect1_foregroundBlur_455_12249" stdDeviation="34.206"/></filter><filter id="S" width="597.076" height="710.44" x="55.456" y="-570.082" color-interpolation-filters="sRGB" filterUnits="userSpaceOnUse"><feFlood flood-opacity="0" result="BackgroundImageFix"/><feBlend in="SourceGraphic" in2="BackgroundImageFix" result="shape"/><feGaussianBlur result="effect1_foregroundBlur_455_12249" stdDeviation="19.46"/></filter><filter id="U" width="656.06" height="769.423" x="18.947" y="-662.005" color-interpolation-filters="sRGB" filterUnits="userSpaceOnUse"><feFlood flood-opacity="0" result="BackgroundImageFix"/><feBlend in="SourceGraphic" in2="BackgroundImageFix" result="shape"/><feGaussianBlur result="effect1_foregroundBlur_455_12249" stdDeviation="34.206"/></filter><filter id="W" width="656.059" height="769.423" x="92.757" y="-594.024" color-interpolation-filters="sRGB" filterUnits="userSpaceOnUse"><feFlood flood-opacity="0" result="BackgroundImageFix"/><feBlend in="SourceGraphic" in2="BackgroundImageFix" result="shape"/><feGaussianBlur result="effect1_foregroundBlur_455_12249" stdDeviation="34.206"/></filter><filter id="Z" width="597.076" height="710.44" x="55.456" y="-570.082" color-interpolation-filters="sRGB" filterUnits="userSpaceOnUse"><feFlood flood-opacity="0" result="BackgroundImageFix"/><feBlend in="SourceGraphic" in2="BackgroundImageFix" result="shape"/><feGaussianBlur result="effect1_foregroundBlur_455_12249" stdDeviation="19.46"/></filter><filter id="ab" width="656.06" height="769.423" x="18.933" y="-662.006" color-interpolation-filters="sRGB" filterUnits="userSpaceOnUse"><feFlood flood-opacity="0" result="BackgroundImageFix"/><feBlend in="SourceGraphic" in2="BackgroundImageFix" result="shape"/><feGaussianBlur result="effect1_foregroundBlur_455_12249" stdDeviation="34.206"/></filter><filter id="ad" width="656.059" height="769.424" x="45.185" y="-628.475" color-interpolation-filters="sRGB" filterUnits="userSpaceOnUse"><feFlood flood-opacity="0" result="BackgroundImageFix"/><feBlend in="SourceGraphic" in2="BackgroundImageFix" result="shape"/><feGaussianBlur result="effect1_foregroundBlur_455_12249" stdDeviation="34.206"/></filter><filter id="af" width="656.06" height="769.424" x="85.33" y="-579.24" color-interpolation-filters="sRGB" filterUnits="userSpaceOnUse"><feFlood flood-opacity="0" result="BackgroundImageFix"/><feBlend in="SourceGraphic" in2="BackgroundImageFix" result="shape"/><feGaussianBlur result="effect1_foregroundBlur_455_12249" stdDeviation="34.206"/></filter><filter id="ai" width="597.076" height="710.439" x="52.109" y="-657.631" color-interpolation-filters="sRGB" filterUnits="userSpaceOnUse"><feFlood flood-opacity="0" result="BackgroundImageFix"/><feBlend in="SourceGraphic" in2="BackgroundImageFix" result="shape"/><feGaussianBlur result="effect1_foregroundBlur_455_12249" stdDeviation="19.46"/></filter><filter id="ak" width="597.076" height="710.439" x="-39.027" y="-473.511" color-interpolation-filters="sRGB" filterUnits="userSpaceOnUse"><feFlood flood-opacity="0" result="BackgroundImageFix"/><feBlend in="SourceGraphic" in2="BackgroundImageFix" result="shape"/><feGaussianBlur result="effect1_foregroundBlur_455_12249" stdDeviation="19.46"/></filter><clipPath id="a"><path fill="#fff" d="M212 0H0v217h212z"/></clipPath></defs></svg>