<svg xmlns="http://www.w3.org/2000/svg" width="23" height="23" fill="none"><path fill="#fff" fill-rule="evenodd" d="m20.905 11.027-.21 2.232c-.346 3.678-.52 5.517-1.604 6.626-1.084 1.11-2.709 1.11-5.958 1.11H10.64c-3.25 0-4.874 0-5.959-1.11-1.084-1.109-1.257-2.948-1.603-6.626l-.21-2.232c-.165-1.753-.247-2.63.052-2.992a.9.9 0 0 1 .62-.337c.435-.039.983.585 2.078 1.832.567.645.85.967 1.166 1.017a.85.85 0 0 0 .515-.082c.291-.147.486-.546.875-1.343l2.05-4.202c.736-1.506 1.103-2.259 1.662-2.259.56 0 .927.753 1.662 2.26l2.05 4.201c.39.797.584 1.196.876 1.343.162.081.34.11.515.082.316-.05.6-.373 1.166-1.017 1.095-1.247 1.642-1.87 2.079-1.832a.9.9 0 0 1 .618.337c.3.362.218 1.239.053 2.992m-12.456 6.3c0-.379.308-.687.687-.687h5.5a.687.687 0 1 1 0 1.375h-5.5a.69.69 0 0 1-.687-.687z" clip-rule="evenodd"/></svg>