<svg xmlns="http://www.w3.org/2000/svg" width="72" height="71" fill="none"><g clip-path="url(#a)"><rect width="67" height="67" x="2.833" y="2" fill="url(#b)" rx="18"/><path stroke="url(#c)" stroke-opacity=".5" stroke-width=".8" d="M-11.755-2.5h-6.412v6.417m6.412-6.417v6.417m0-6.417h6.412m-6.412 6.417h-6.412m6.412 0h6.412m-6.412 0v6.416m-6.412-6.416v6.416M-5.343-2.5v6.417m0-6.417h6.412m-6.412 6.417h6.412m-6.412 0v6.416M1.069-2.5v6.417m0-6.417H7.48M1.07 3.917h6.41m-6.411 0v6.416M7.48-2.5v6.417m0-6.417h6.412M7.48 3.917h6.412m-6.412 0v6.416M13.892-2.5v6.417m0-6.417h6.412m-6.412 6.417h6.412m-6.412 0v6.416M20.304-2.5v6.417m0-6.417h6.412m-6.412 6.417h6.412m-6.412 0v6.416M26.716-2.5v6.417m0-6.417h6.411m-6.411 6.417h6.411m-6.411 0v6.416M33.127-2.5v6.417m0-6.417h6.412m-6.412 6.417h6.412m-6.412 0v6.416M39.54-2.5v6.417m0-6.417h6.412M39.54 3.917h6.412m-6.412 0v6.416M45.951-2.5v6.417m0-6.417h6.412M45.95 3.917h6.412m-6.412 0v6.416M52.363-2.5v6.417m0-6.417h6.412m-6.412 6.417h6.412m-6.412 0v6.416M58.775-2.5v6.417m0-6.417h6.411m-6.412 6.417h6.412m-6.412 0v6.416M65.187-2.5v6.417m0-6.417h6.412m-6.412 6.417h6.412m-6.412 0v6.416M71.598-2.5v6.417m0-6.417h6.412m-6.412 6.417h6.412m-6.412 0v6.416M78.01-2.5v6.417m0-6.417h6.412M78.01 3.917h6.412m-6.412 0v6.416M84.422-2.5v6.417m0-6.417h6.411v6.417m-6.411 0h6.411m-6.411 0v6.416m6.411-6.416v6.416m-102.588 0h-6.412m6.412 0h6.412m-6.412 0v6.417m-6.412-6.417v6.417m12.824-6.417h6.412m-6.412 0v6.417m6.412-6.417H7.48m-6.411 0v6.417m6.411-6.417h6.412m-6.412 0v6.417m6.412-6.417h6.412m-6.412 0v6.417m6.412-6.417h6.412m-6.412 0v6.417m6.412-6.417h6.411m-6.411 0v6.417m6.411-6.417h6.412m-6.412 0v6.417m6.412-6.417h6.412m-6.412 0v6.417m6.412-6.417h6.412m-6.412 0v6.417m6.412-6.417h6.412m-6.412 0v6.417m6.412-6.417h6.411m-6.412 0v6.417m6.412-6.417h6.412m-6.412 0v6.417m6.412-6.417h6.412m-6.412 0v6.417m6.412-6.417h6.412m-6.412 0v6.417m6.412-6.417h6.411m-6.411 0v6.417m6.411-6.417v6.417m-102.588 0h-6.412m6.412 0h6.412m-6.412 0v6.417m-6.412-6.417v6.417m12.824-6.417h6.412m-6.412 0v6.417m6.412-6.417H7.48m-6.411 0v6.417M7.48 16.75h6.412m-6.412 0v6.417m6.412-6.417h6.412m-6.412 0v6.417m6.412-6.417h6.412m-6.412 0v6.417m6.412-6.417h6.411m-6.411 0v6.417m6.411-6.417h6.412m-6.412 0v6.417m6.412-6.417h6.412m-6.412 0v6.417m6.412-6.417h6.412m-6.412 0v6.417m6.412-6.417h6.412m-6.412 0v6.417m6.412-6.417h6.411m-6.412 0v6.417m6.412-6.417h6.412m-6.412 0v6.417m6.412-6.417h6.412m-6.412 0v6.417m6.412-6.417h6.412m-6.412 0v6.417m6.412-6.417h6.411m-6.411 0v6.417m6.411-6.417v6.417m-102.588 0h-6.412m6.412 0h6.412m-6.412 0v6.416m-6.412-6.416v6.416m12.824-6.416h6.412m-6.412 0v6.416m6.412-6.416H7.48m-6.411 0v6.416m6.411-6.416h6.412m-6.412 0v6.416m6.412-6.416h6.412m-6.412 0v6.416m6.412-6.416h6.412m-6.412 0v6.416m6.412-6.416h6.411m-6.411 0v6.416m6.411-6.416h6.412m-6.412 0v6.416m6.412-6.416h6.412m-6.412 0v6.416m6.412-6.416h6.412m-6.412 0v6.416m6.412-6.416h6.412m-6.412 0v6.416m6.412-6.416h6.411m-6.412 0v6.416m6.412-6.416h6.412m-6.412 0v6.416m6.412-6.416h6.412m-6.412 0v6.416m6.412-6.416h6.412m-6.412 0v6.416m6.412-6.416h6.411m-6.411 0v6.416m6.411-6.416v6.416m-102.588 0h-6.412m6.412 0h6.412m-6.412 0V36m-6.412-6.417V36m12.824-6.417h6.412m-6.412 0V36m6.412-6.417H7.48m-6.411 0V36m6.411-6.417h6.412m-6.412 0V36m6.412-6.417h6.412m-6.412 0V36m6.412-6.417h6.412m-6.412 0V36m6.412-6.417h6.411m-6.411 0V36m6.411-6.417h6.412m-6.412 0V36m6.412-6.417h6.412m-6.412 0V36m6.412-6.417h6.412m-6.412 0V36m6.412-6.417h6.412m-6.412 0V36m6.412-6.417h6.411m-6.412 0V36m6.412-6.417h6.412m-6.412 0V36m6.412-6.417h6.412m-6.412 0V36m6.412-6.417h6.412m-6.412 0V36m6.412-6.417h6.411m-6.411 0V36m6.411-6.417V36m-102.588 0h-6.412m6.412 0h6.412m-6.412 0v6.417M-18.167 36v6.417M-5.343 36h6.412m-6.412 0v6.417M1.069 36H7.48m-6.41 0v6.417M7.48 36h6.412M7.48 36v6.417M13.892 36h6.412m-6.412 0v6.417M20.304 36h6.412m-6.412 0v6.417M26.716 36h6.411m-6.411 0v6.417M33.127 36h6.412m-6.412 0v6.417M39.54 36h6.412m-6.412 0v6.417M45.951 36h6.412m-6.412 0v6.417M52.363 36h6.412m-6.412 0v6.417M58.775 36h6.411m-6.412 0v6.417M65.187 36h6.412m-6.412 0v6.417M71.598 36h6.412m-6.412 0v6.417M78.01 36h6.412m-6.412 0v6.417M84.422 36h6.411m-6.411 0v6.417M90.833 36v6.417m-102.588 0h-6.412m6.412 0h6.412m-6.412 0v6.416m-6.412-6.416v6.416m12.824-6.416h6.412m-6.412 0v6.416m6.412-6.416H7.48m-6.411 0v6.416m6.411-6.416h6.412m-6.412 0v6.416m6.412-6.416h6.412m-6.412 0v6.416m6.412-6.416h6.412m-6.412 0v6.416m6.412-6.416h6.411m-6.411 0v6.416m6.411-6.416h6.412m-6.412 0v6.416m6.412-6.416h6.412m-6.412 0v6.416m6.412-6.416h6.412m-6.412 0v6.416m6.412-6.416h6.412m-6.412 0v6.416m6.412-6.416h6.411m-6.412 0v6.416m6.412-6.416h6.412m-6.412 0v6.416m6.412-6.416h6.412m-6.412 0v6.416m6.412-6.416h6.412m-6.412 0v6.416m6.412-6.416h6.411m-6.411 0v6.416m6.411-6.416v6.416m-102.588 0h-6.412m6.412 0h6.412m-6.412 0v6.417m-6.412-6.417v6.417m12.824-6.417h6.412m-6.412 0v6.417m6.412-6.417H7.48m-6.411 0v6.417m6.411-6.417h6.412m-6.412 0v6.417m6.412-6.417h6.412m-6.412 0v6.417m6.412-6.417h6.412m-6.412 0v6.417m6.412-6.417h6.411m-6.411 0v6.417m6.411-6.417h6.412m-6.412 0v6.417m6.412-6.417h6.412m-6.412 0v6.417m6.412-6.417h6.412m-6.412 0v6.417m6.412-6.417h6.412m-6.412 0v6.417m6.412-6.417h6.411m-6.412 0v6.417m6.412-6.417h6.412m-6.412 0v6.417m6.412-6.417h6.412m-6.412 0v6.417m6.412-6.417h6.412m-6.412 0v6.417m6.412-6.417h6.411m-6.411 0v6.417m6.411-6.417v6.417m-102.588 0h-6.412m6.412 0h6.412m-6.412 0v6.417m-6.412-6.417v6.417m12.824-6.417h6.412m-6.412 0v6.417m6.412-6.417H7.48m-6.411 0v6.417M7.48 55.25h6.412m-6.412 0v6.417m6.412-6.417h6.412m-6.412 0v6.417m6.412-6.417h6.412m-6.412 0v6.417m6.412-6.417h6.411m-6.411 0v6.417m6.411-6.417h6.412m-6.412 0v6.417m6.412-6.417h6.412m-6.412 0v6.417m6.412-6.417h6.412m-6.412 0v6.417m6.412-6.417h6.412m-6.412 0v6.417m6.412-6.417h6.411m-6.412 0v6.417m6.412-6.417h6.412m-6.412 0v6.417m6.412-6.417h6.412m-6.412 0v6.417m6.412-6.417h6.412m-6.412 0v6.417m6.412-6.417h6.411m-6.411 0v6.417m6.411-6.417v6.417m-102.588 0h-6.412m6.412 0h6.412m-6.412 0v6.416m-6.412-6.416v6.416m12.824-6.416h6.412m-6.412 0v6.416m6.412-6.416H7.48m-6.411 0v6.416m6.411-6.416h6.412m-6.412 0v6.416m6.412-6.416h6.412m-6.412 0v6.416m6.412-6.416h6.412m-6.412 0v6.416m6.412-6.416h6.411m-6.411 0v6.416m6.411-6.416h6.412m-6.412 0v6.416m6.412-6.416h6.412m-6.412 0v6.416m6.412-6.416h6.412m-6.412 0v6.416m6.412-6.416h6.412m-6.412 0v6.416m6.412-6.416h6.411m-6.412 0v6.416m6.412-6.416h6.412m-6.412 0v6.416m6.412-6.416h6.412m-6.412 0v6.416m6.412-6.416h6.412m-6.412 0v6.416m6.412-6.416h6.411m-6.411 0v6.416m6.411-6.416v6.416m-102.588 0h-6.412m6.412 0h6.412m-6.412 0V74.5m-6.412-6.417V74.5h6.412m6.412-6.417h6.412m-6.412 0V74.5m6.412-6.417H7.48m-6.411 0V74.5m6.411-6.417h6.412m-6.412 0V74.5m6.412-6.417h6.412m-6.412 0V74.5m6.412-6.417h6.412m-6.412 0V74.5m6.412-6.417h6.411m-6.411 0V74.5m6.411-6.417h6.412m-6.412 0V74.5m6.412-6.417h6.412m-6.412 0V74.5m6.412-6.417h6.412m-6.412 0V74.5m6.412-6.417h6.412m-6.412 0V74.5m6.412-6.417h6.411m-6.412 0V74.5m6.412-6.417h6.412m-6.412 0V74.5m6.412-6.417h6.412m-6.412 0V74.5m6.412-6.417h6.412m-6.412 0V74.5m6.412-6.417h6.411m-6.411 0V74.5m6.411-6.417V74.5h-6.411m-96.177 0h6.412m0 0h6.412m0 0H7.48m0 0h6.412m0 0h6.412m0 0h6.412m0 0h6.411m0 0h6.412m0 0h6.412m0 0h6.412m0 0h6.412m0 0h6.411m0 0h6.412m0 0h6.412m0 0h6.412"/></g><rect width="69" height="69" x="1.833" y="1" stroke="#fff" stroke-width="2" rx="19"/><defs><radialGradient id="c" cx="0" cy="0" r="1" gradientTransform="matrix(0 153.418 -230.298 0 36.333 -79)" gradientUnits="userSpaceOnUse"><stop stop-color="#fff"/><stop offset=".943" stop-color="#fff" stop-opacity="0"/></radialGradient><linearGradient id="b" x1="36.333" x2="36.333" y1="2" y2="69" gradientUnits="userSpaceOnUse"><stop stop-color="#B0E562"/><stop offset="1" stop-color="#b0e562"/></linearGradient><clipPath id="a"><rect width="67" height="67" x="2.833" y="2" fill="#0a0a0c" rx="18"/></clipPath></defs></svg>