<svg xmlns="http://www.w3.org/2000/svg" width="258" height="264" fill="none"><g clip-path="url(#a)" style="mix-blend-mode:multiply"><path stroke="url(#b)" stroke-opacity=".8" stroke-width=".8" d="M84.823 0H74v10.833M84.823 0v10.833m0-10.833h10.824M84.823 10.833H74m10.823 0h10.824m-10.824 0v10.834M74 10.833v10.834M95.647 0v10.833m0-10.833h10.824M95.647 10.833h10.824m-10.824 0v10.834M106.471 0v10.833m0-10.833h10.823m-10.823 10.833h10.823m-10.823 0v10.834M117.294 0v10.833m0-10.833h10.824m-10.824 10.833h10.824m-10.824 0v10.834M128.118 0v10.833m0-10.833h10.823m-10.823 10.833h10.823m-10.823 0v10.834M138.941 0v10.833m0-10.833h10.824m-10.824 10.833h10.824m-10.824 0v10.834M149.765 0v10.833m0-10.833h10.823m-10.823 10.833h10.823m-10.823 0v10.834M160.588 0v10.833m0-10.833h10.824m-10.824 10.833h10.824m-10.824 0v10.834M171.412 0v10.833m0-10.833h10.823m-10.823 10.833h10.823m-10.823 0v10.834M182.235 0v10.833m0-10.833h10.824m-10.824 10.833h10.824m-10.824 0v10.834M193.059 0v10.833m0-10.833h10.823m-10.823 10.833h10.823m-10.823 0v10.834M203.882 0v10.833m0-10.833h10.824m-10.824 10.833h10.824m-10.824 0v10.834M214.706 0v10.833m0-10.833h10.823m-10.823 10.833h10.823m-10.823 0v10.834M225.529 0v10.833m0-10.833h10.824m-10.824 10.833h10.824m-10.824 0v10.834M236.353 0v10.833m0-10.833h10.823m-10.823 10.833h10.823m-10.823 0v10.834M247.176 0v10.833m0-10.833H258v10.833m-10.824 0H258m-10.824 0v10.834M258 10.833v10.834m-173.177 0H74m10.823 0h10.824m-10.824 0V32.5M74 21.667V32.5m21.647-10.833h10.824m-10.824 0V32.5m10.824-10.833h10.823m-10.823 0V32.5m10.823-10.833h10.824m-10.824 0V32.5m10.824-10.833h10.823m-10.823 0V32.5m10.823-10.833h10.824m-10.824 0V32.5m10.824-10.833h10.823m-10.823 0V32.5m10.823-10.833h10.824m-10.824 0V32.5m10.824-10.833h10.823m-10.823 0V32.5m10.823-10.833h10.824m-10.824 0V32.5m10.824-10.833h10.823m-10.823 0V32.5m10.823-10.833h10.824m-10.824 0V32.5m10.824-10.833h10.823m-10.823 0V32.5m10.823-10.833h10.824m-10.824 0V32.5m10.824-10.833h10.823m-10.823 0V32.5m10.823-10.833H258m-10.824 0V32.5M258 21.667V32.5m-173.177 0H74m10.823 0h10.824m-10.824 0v10.833M74 32.5v10.833M95.647 32.5h10.824m-10.824 0v10.833M106.471 32.5h10.823m-10.823 0v10.833M117.294 32.5h10.824m-10.824 0v10.833M128.118 32.5h10.823m-10.823 0v10.833M138.941 32.5h10.824m-10.824 0v10.833M149.765 32.5h10.823m-10.823 0v10.833M160.588 32.5h10.824m-10.824 0v10.833M171.412 32.5h10.823m-10.823 0v10.833M182.235 32.5h10.824m-10.824 0v10.833M193.059 32.5h10.823m-10.823 0v10.833M203.882 32.5h10.824m-10.824 0v10.833M214.706 32.5h10.823m-10.823 0v10.833M225.529 32.5h10.824m-10.824 0v10.833M236.353 32.5h10.823m-10.823 0v10.833M247.176 32.5H258m-10.824 0v10.833M258 32.5v10.833m-173.177 0H74m10.823 0h10.824m-10.824 0v10.834M74 43.333v10.834m21.647-10.834h10.824m-10.824 0v10.834m10.824-10.834h10.823m-10.823 0v10.834m10.823-10.834h10.824m-10.824 0v10.834m10.824-10.834h10.823m-10.823 0v10.834m10.823-10.834h10.824m-10.824 0v10.834m10.824-10.834h10.823m-10.823 0v10.834m10.823-10.834h10.824m-10.824 0v10.834m10.824-10.834h10.823m-10.823 0v10.834m10.823-10.834h10.824m-10.824 0v10.834m10.824-10.834h10.823m-10.823 0v10.834m10.823-10.834h10.824m-10.824 0v10.834m10.824-10.834h10.823m-10.823 0v10.834m10.823-10.834h10.824m-10.824 0v10.834m10.824-10.834h10.823m-10.823 0v10.834m10.823-10.834H258m-10.824 0v10.834M258 43.333v10.834m-173.177 0H74m10.823 0h10.824m-10.824 0V65M74 54.167V65m21.647-10.833h10.824m-10.824 0V65m10.824-10.833h10.823m-10.823 0V65m10.823-10.833h10.824m-10.824 0V65m10.824-10.833h10.823m-10.823 0V65m10.823-10.833h10.824m-10.824 0V65m10.824-10.833h10.823m-10.823 0V65m10.823-10.833h10.824m-10.824 0V65m10.824-10.833h10.823m-10.823 0V65m10.823-10.833h10.824m-10.824 0V65m10.824-10.833h10.823m-10.823 0V65m10.823-10.833h10.824m-10.824 0V65m10.824-10.833h10.823m-10.823 0V65m10.823-10.833h10.824m-10.824 0V65m10.824-10.833h10.823m-10.823 0V65m10.823-10.833H258m-10.824 0V65M258 54.167V65M84.823 65H74m10.823 0h10.824m-10.824 0v10.833M74 65v10.833M95.647 65h10.824m-10.824 0v10.833M106.471 65h10.823m-10.823 0v10.833M117.294 65h10.824m-10.824 0v10.833M128.118 65h10.823m-10.823 0v10.833M138.941 65h10.824m-10.824 0v10.833M149.765 65h10.823m-10.823 0v10.833M160.588 65h10.824m-10.824 0v10.833M171.412 65h10.823m-10.823 0v10.833M182.235 65h10.824m-10.824 0v10.833M193.059 65h10.823m-10.823 0v10.833M203.882 65h10.824m-10.824 0v10.833M214.706 65h10.823m-10.823 0v10.833M225.529 65h10.824m-10.824 0v10.833M236.353 65h10.823m-10.823 0v10.833M247.176 65H258m-10.824 0v10.833M258 65v10.833m-173.177 0H74m10.823 0h10.824m-10.824 0v10.834M74 75.833v10.834m21.647-10.834h10.824m-10.824 0v10.834m10.824-10.834h10.823m-10.823 0v10.834m10.823-10.834h10.824m-10.824 0v10.834m10.824-10.834h10.823m-10.823 0v10.834m10.823-10.834h10.824m-10.824 0v10.834m10.824-10.834h10.823m-10.823 0v10.834m10.823-10.834h10.824m-10.824 0v10.834m10.824-10.834h10.823m-10.823 0v10.834m10.823-10.834h10.824m-10.824 0v10.834m10.824-10.834h10.823m-10.823 0v10.834m10.823-10.834h10.824m-10.824 0v10.834m10.824-10.834h10.823m-10.823 0v10.834m10.823-10.834h10.824m-10.824 0v10.834m10.824-10.834h10.823m-10.823 0v10.834m10.823-10.834H258m-10.824 0v10.834M258 75.833v10.834m-173.177 0H74m10.823 0h10.824m-10.824 0V97.5M74 86.667V97.5m21.647-10.833h10.824m-10.824 0V97.5m10.824-10.833h10.823m-10.823 0V97.5m10.823-10.833h10.824m-10.824 0V97.5m10.824-10.833h10.823m-10.823 0V97.5m10.823-10.833h10.824m-10.824 0V97.5m10.824-10.833h10.823m-10.823 0V97.5m10.823-10.833h10.824m-10.824 0V97.5m10.824-10.833h10.823m-10.823 0V97.5m10.823-10.833h10.824m-10.824 0V97.5m10.824-10.833h10.823m-10.823 0V97.5m10.823-10.833h10.824m-10.824 0V97.5m10.824-10.833h10.823m-10.823 0V97.5m10.823-10.833h10.824m-10.824 0V97.5m10.824-10.833h10.823m-10.823 0V97.5m10.823-10.833H258m-10.824 0V97.5M258 86.667V97.5m-173.177 0H74m10.823 0h10.824m-10.824 0v10.833M74 97.5v10.833M95.647 97.5h10.824m-10.824 0v10.833M106.471 97.5h10.823m-10.823 0v10.833M117.294 97.5h10.824m-10.824 0v10.833M128.118 97.5h10.823m-10.823 0v10.833M138.941 97.5h10.824m-10.824 0v10.833M149.765 97.5h10.823m-10.823 0v10.833M160.588 97.5h10.824m-10.824 0v10.833M171.412 97.5h10.823m-10.823 0v10.833M182.235 97.5h10.824m-10.824 0v10.833M193.059 97.5h10.823m-10.823 0v10.833M203.882 97.5h10.824m-10.824 0v10.833M214.706 97.5h10.823m-10.823 0v10.833M225.529 97.5h10.824m-10.824 0v10.833M236.353 97.5h10.823m-10.823 0v10.833M247.176 97.5H258m-10.824 0v10.833M258 97.5v10.833m-173.177 0H74m10.823 0h10.824m-10.824 0v10.834M74 108.333v10.834m21.647-10.834h10.824m-10.824 0v10.834m10.824-10.834h10.823m-10.823 0v10.834m10.823-10.834h10.824m-10.824 0v10.834m10.824-10.834h10.823m-10.823 0v10.834m10.823-10.834h10.824m-10.824 0v10.834m10.824-10.834h10.823m-10.823 0v10.834m10.823-10.834h10.824m-10.824 0v10.834m10.824-10.834h10.823m-10.823 0v10.834m10.823-10.834h10.824m-10.824 0v10.834m10.824-10.834h10.823m-10.823 0v10.834m10.823-10.834h10.824m-10.824 0v10.834m10.824-10.834h10.823m-10.823 0v10.834m10.823-10.834h10.824m-10.824 0v10.834m10.824-10.834h10.823m-10.823 0v10.834m10.823-10.834H258m-10.824 0v10.834M258 108.333v10.834m-173.177 0H74m10.823 0h10.824m-10.824 0V130M74 119.167V130h10.823m10.824-10.833h10.824m-10.824 0V130m10.824-10.833h10.823m-10.823 0V130m10.823-10.833h10.824m-10.824 0V130m10.824-10.833h10.823m-10.823 0V130m10.823-10.833h10.824m-10.824 0V130m10.824-10.833h10.823m-10.823 0V130m10.823-10.833h10.824m-10.824 0V130m10.824-10.833h10.823m-10.823 0V130m10.823-10.833h10.824m-10.824 0V130m10.824-10.833h10.823m-10.823 0V130m10.823-10.833h10.824m-10.824 0V130m10.824-10.833h10.823m-10.823 0V130m10.823-10.833h10.824m-10.824 0V130m10.824-10.833h10.823m-10.823 0V130m10.823-10.833H258m-10.824 0V130M258 119.167V130h-10.824m-162.352 0h10.823m0 0h10.824m0 0h10.823m0 0h10.824m0 0h10.823m0 0h10.824m0 0h10.823m0 0h10.824m0 0h10.823m0 0h10.824m0 0h10.823m0 0h10.824m0 0h10.823m0 0h10.824m0 0h10.823"/></g><defs><radialGradient id="b" cx="0" cy="0" r="1" gradientTransform="rotate(131.878 182.866 14.186)scale(331.064 496.895)" gradientUnits="userSpaceOnUse"><stop stop-color="#fff"/><stop offset=".943" stop-color="#fff" stop-opacity="0"/></radialGradient><clipPath id="a"><path fill="#fff" d="M258 0H0v264h258z"/></clipPath></defs></svg>