<svg xmlns="http://www.w3.org/2000/svg" width="25" height="24" fill="none"><circle cx="12" cy="12" r="10" fill="#B0E562"/><path fill="#0a0a0c" fill-rule="evenodd" d="M12.5 2.75a9.25 9.25 0 1 0 0 18.5 9.25 9.25 0 0 0 0-18.5M1.75 12c0-5.937 4.813-10.75 10.75-10.75S23.25 6.063 23.25 12 18.437 22.75 12.5 22.75 1.75 17.937 1.75 12M12.5 7.75c-.621 0-1.125.504-1.125 1.125a.75.75 0 0 1-1.5 0 2.625 2.625 0 1 1 3.96 2.26 1.9 1.9 0 0 0-.465.369c-.102.12-.12.2-.12.246V13a.75.75 0 0 1-1.5 0v-1.25c0-.506.222-.916.477-1.217.252-.297.566-.524.845-.689A1.124 1.124 0 0 0 12.5 7.75m0 9.25a1 1 0 1 0 0-2 1 1 0 0 0 0 2" clip-rule="evenodd"/></svg>