<svg xmlns="http://www.w3.org/2000/svg" width="84" height="83" fill="none"><g clip-path="url(#a)"><rect width="79" height="79" x="2.5" y="2" fill="url(#b)" rx="39.5"/><path stroke="url(#c)" stroke-opacity=".5" stroke-width=".8" d="M-16.235-12H-24v7.667M-16.235-12v7.667m0-7.667h7.764m-7.764 7.667H-24m7.765 0h7.764m-7.764 0v7.666M-24-4.333v7.666M-8.47-12v7.667m0-7.667h7.764M-8.47-4.333h7.765m-7.765 0v7.666M-.706-12v7.667m0-7.667H7.06M-.706-4.333H7.06m-7.765 0v7.666M7.06-12v7.667m0-7.667h7.764M7.06-4.333h7.764m-7.764 0v7.666M14.823-12v7.667m0-7.667h7.765m-7.765 7.667h7.765m-7.765 0v7.666M22.588-12v7.667m0-7.667h7.765m-7.765 7.667h7.765m-7.765 0v7.666M30.353-12v7.667m0-7.667h7.765m-7.765 7.667h7.765m-7.765 0v7.666M38.118-12v7.667m0-7.667h7.764m-7.764 7.667h7.764m-7.764 0v7.666M45.882-12v7.667m0-7.667h7.765m-7.765 7.667h7.765m-7.765 0v7.666M53.647-12v7.667m0-7.667h7.765m-7.765 7.667h7.765m-7.765 0v7.666M61.412-12v7.667m0-7.667h7.765m-7.765 7.667h7.765m-7.765 0v7.666M69.177-12v7.667m0-7.667h7.764m-7.764 7.667h7.764m-7.764 0v7.666M76.94-12v7.667m0-7.667h7.765M76.94-4.333h7.765m-7.765 0v7.666M84.706-12v7.667m0-7.667h7.765m-7.765 7.667h7.765m-7.765 0v7.666M92.47-12v7.667m0-7.667h7.764M92.47-4.333h7.764m-7.764 0v7.666M100.235-12v7.667m0-7.667H108v7.667m-7.765 0H108m-7.765 0v7.666M108-4.333v7.666m-124.235 0H-24m7.765 0h7.764m-7.764 0V11M-24 3.333V11m15.53-7.667h7.764m-7.765 0V11m7.765-7.667H7.06m-7.765 0V11M7.06 3.333h7.764m-7.764 0V11m7.764-7.667h7.765m-7.765 0V11m7.765-7.667h7.765m-7.765 0V11m7.765-7.667h7.765m-7.765 0V11m7.765-7.667h7.764m-7.764 0V11m7.764-7.667h7.765m-7.765 0V11m7.765-7.667h7.765m-7.765 0V11m7.765-7.667h7.765m-7.765 0V11m7.765-7.667h7.764m-7.764 0V11m7.764-7.667h7.765m-7.765 0V11m7.765-7.667h7.765m-7.765 0V11m7.765-7.667h7.764m-7.764 0V11m7.764-7.667H108m-7.765 0V11M108 3.333V11m-124.235 0H-24m7.765 0h7.764m-7.764 0v7.667M-24 11v7.667M-8.47 11h7.764m-7.765 0v7.667M-.706 11H7.06m-7.765 0v7.667M7.06 11h7.764M7.06 11v7.667M14.823 11h7.765m-7.765 0v7.667M22.588 11h7.765m-7.765 0v7.667M30.353 11h7.765m-7.765 0v7.667M38.118 11h7.764m-7.764 0v7.667M45.882 11h7.765m-7.765 0v7.667M53.647 11h7.765m-7.765 0v7.667M61.412 11h7.765m-7.765 0v7.667M69.177 11h7.764m-7.764 0v7.667M76.94 11h7.765m-7.765 0v7.667M84.706 11h7.765m-7.765 0v7.667M92.47 11h7.764m-7.764 0v7.667M100.235 11H108m-7.765 0v7.667M108 11v7.667m-124.235 0H-24m7.765 0h7.764m-7.764 0v7.666M-24 18.667v7.666m15.53-7.666h7.764m-7.765 0v7.666m7.765-7.666H7.06m-7.765 0v7.666m7.765-7.666h7.764m-7.764 0v7.666m7.764-7.666h7.765m-7.765 0v7.666m7.765-7.666h7.765m-7.765 0v7.666m7.765-7.666h7.765m-7.765 0v7.666m7.765-7.666h7.764m-7.764 0v7.666m7.764-7.666h7.765m-7.765 0v7.666m7.765-7.666h7.765m-7.765 0v7.666m7.765-7.666h7.765m-7.765 0v7.666m7.765-7.666h7.764m-7.764 0v7.666m7.764-7.666h7.765m-7.765 0v7.666m7.765-7.666h7.765m-7.765 0v7.666m7.765-7.666h7.764m-7.764 0v7.666m7.764-7.666H108m-7.765 0v7.666M108 18.667v7.666m-124.235 0H-24m7.765 0h7.764m-7.764 0V34M-24 26.333V34m15.53-7.667h7.764m-7.765 0V34m7.765-7.667H7.06m-7.765 0V34m7.765-7.667h7.764m-7.764 0V34m7.764-7.667h7.765m-7.765 0V34m7.765-7.667h7.765m-7.765 0V34m7.765-7.667h7.765m-7.765 0V34m7.765-7.667h7.764m-7.764 0V34m7.764-7.667h7.765m-7.765 0V34m7.765-7.667h7.765m-7.765 0V34m7.765-7.667h7.765m-7.765 0V34m7.765-7.667h7.764m-7.764 0V34m7.764-7.667h7.765m-7.765 0V34m7.765-7.667h7.765m-7.765 0V34m7.765-7.667h7.764m-7.764 0V34m7.764-7.667H108m-7.765 0V34M108 26.333V34m-124.235 0H-24m7.765 0h7.764m-7.764 0v7.667M-24 34v7.667M-8.47 34h7.764m-7.765 0v7.667M-.706 34H7.06m-7.765 0v7.667M7.06 34h7.764M7.06 34v7.667M14.823 34h7.765m-7.765 0v7.667M22.588 34h7.765m-7.765 0v7.667M30.353 34h7.765m-7.765 0v7.667M38.118 34h7.764m-7.764 0v7.667M45.882 34h7.765m-7.765 0v7.667M53.647 34h7.765m-7.765 0v7.667M61.412 34h7.765m-7.765 0v7.667M69.177 34h7.764m-7.764 0v7.667M76.94 34h7.765m-7.765 0v7.667M84.706 34h7.765m-7.765 0v7.667M92.47 34h7.764m-7.764 0v7.667M100.235 34H108m-7.765 0v7.667M108 34v7.667m-124.235 0H-24m7.765 0h7.764m-7.764 0v7.666M-24 41.667v7.666m15.53-7.666h7.764m-7.765 0v7.666m7.765-7.666H7.06m-7.765 0v7.666m7.765-7.666h7.764m-7.764 0v7.666m7.764-7.666h7.765m-7.765 0v7.666m7.765-7.666h7.765m-7.765 0v7.666m7.765-7.666h7.765m-7.765 0v7.666m7.765-7.666h7.764m-7.764 0v7.666m7.764-7.666h7.765m-7.765 0v7.666m7.765-7.666h7.765m-7.765 0v7.666m7.765-7.666h7.765m-7.765 0v7.666m7.765-7.666h7.764m-7.764 0v7.666m7.764-7.666h7.765m-7.765 0v7.666m7.765-7.666h7.765m-7.765 0v7.666m7.765-7.666h7.764m-7.764 0v7.666m7.764-7.666H108m-7.765 0v7.666M108 41.667v7.666m-124.235 0H-24m7.765 0h7.764m-7.764 0V57M-24 49.333V57m15.53-7.667h7.764m-7.765 0V57m7.765-7.667H7.06m-7.765 0V57m7.765-7.667h7.764m-7.764 0V57m7.764-7.667h7.765m-7.765 0V57m7.765-7.667h7.765m-7.765 0V57m7.765-7.667h7.765m-7.765 0V57m7.765-7.667h7.764m-7.764 0V57m7.764-7.667h7.765m-7.765 0V57m7.765-7.667h7.765m-7.765 0V57m7.765-7.667h7.765m-7.765 0V57m7.765-7.667h7.764m-7.764 0V57m7.764-7.667h7.765m-7.765 0V57m7.765-7.667h7.765m-7.765 0V57m7.765-7.667h7.764m-7.764 0V57m7.764-7.667H108m-7.765 0V57M108 49.333V57m-124.235 0H-24m7.765 0h7.764m-7.764 0v7.667M-24 57v7.667M-8.47 57h7.764m-7.765 0v7.667M-.706 57H7.06m-7.765 0v7.667M7.06 57h7.764M7.06 57v7.667M14.823 57h7.765m-7.765 0v7.667M22.588 57h7.765m-7.765 0v7.667M30.353 57h7.765m-7.765 0v7.667M38.118 57h7.764m-7.764 0v7.667M45.882 57h7.765m-7.765 0v7.667M53.647 57h7.765m-7.765 0v7.667M61.412 57h7.765m-7.765 0v7.667M69.177 57h7.764m-7.764 0v7.667M76.94 57h7.765m-7.765 0v7.667M84.706 57h7.765m-7.765 0v7.667M92.47 57h7.764m-7.764 0v7.667M100.235 57H108m-7.765 0v7.667M108 57v7.667m-124.235 0H-24m7.765 0h7.764m-7.764 0v7.666M-24 64.667v7.666m15.53-7.666h7.764m-7.765 0v7.666m7.765-7.666H7.06m-7.765 0v7.666m7.765-7.666h7.764m-7.764 0v7.666m7.764-7.666h7.765m-7.765 0v7.666m7.765-7.666h7.765m-7.765 0v7.666m7.765-7.666h7.765m-7.765 0v7.666m7.765-7.666h7.764m-7.764 0v7.666m7.764-7.666h7.765m-7.765 0v7.666m7.765-7.666h7.765m-7.765 0v7.666m7.765-7.666h7.765m-7.765 0v7.666m7.765-7.666h7.764m-7.764 0v7.666m7.764-7.666h7.765m-7.765 0v7.666m7.765-7.666h7.765m-7.765 0v7.666m7.765-7.666h7.764m-7.764 0v7.666m7.764-7.666H108m-7.765 0v7.666M108 64.667v7.666m-124.235 0H-24m7.765 0h7.764m-7.764 0V80M-24 72.333V80h7.765m7.764-7.667h7.765m-7.765 0V80m7.765-7.667H7.06m-7.765 0V80m7.765-7.667h7.764m-7.764 0V80m7.764-7.667h7.765m-7.765 0V80m7.765-7.667h7.765m-7.765 0V80m7.765-7.667h7.765m-7.765 0V80m7.765-7.667h7.764m-7.764 0V80m7.764-7.667h7.765m-7.765 0V80m7.765-7.667h7.765m-7.765 0V80m7.765-7.667h7.765m-7.765 0V80m7.765-7.667h7.764m-7.764 0V80m7.764-7.667h7.765m-7.765 0V80m7.765-7.667h7.765m-7.765 0V80m7.765-7.667h7.764m-7.764 0V80m7.764-7.667H108m-7.765 0V80M108 72.333V80h-7.765m-116.47 0h7.764m0 0h7.765m0 0H7.06m0 0h7.764m0 0h7.765m0 0h7.765m0 0h7.765m0 0h7.764m0 0h7.765m0 0h7.765m0 0h7.765m0 0h7.764m0 0h7.765m0 0h7.765m0 0h7.764"/></g><rect width="81" height="81" x="1.5" y="1" stroke="#fff" stroke-width="2" rx="40.5"/><defs><radialGradient id="c" cx="0" cy="0" r="1" gradientTransform="matrix(0 183.304 -278.893 0 42 -103.403)" gradientUnits="userSpaceOnUse"><stop stop-color="#fff"/><stop offset=".943" stop-color="#fff" stop-opacity="0"/></radialGradient><linearGradient id="b" x1="42" x2="42" y1="2" y2="81" gradientUnits="userSpaceOnUse"><stop stop-color="#846DF8"/><stop offset=".226" stop-color="#8554F7"/><stop offset="1" stop-color="#800BF4"/></linearGradient><clipPath id="a"><rect width="79" height="79" x="2.5" y="2" fill="#fff" rx="39.5"/></clipPath></defs></svg>