<svg xmlns="http://www.w3.org/2000/svg" width="259" height="264" fill="none"><g clip-path="url(#a)" style="mix-blend-mode:multiply"><g filter="url(#b)"><g filter="url(#c)" opacity=".2" style="mix-blend-mode:plus-lighter"><path fill="url(#d)" d="m-488.255-620.367 20.928-25.841 367.151 453.345 243.824 316.271-264.752-290.43z"/></g><g filter="url(#e)" opacity=".2" style="mix-blend-mode:plus-lighter"><path fill="url(#f)" d="m-488.255-620.367 20.928-25.841 367.151 453.345 243.824 316.271-264.752-290.43z"/></g><g filter="url(#g)" opacity=".2" style="mix-blend-mode:plus-lighter"><path fill="url(#h)" d="m-488.255-620.367 20.928-25.841 367.151 453.345 243.824 316.271-264.752-290.43z"/></g><g filter="url(#i)" opacity=".2" style="mix-blend-mode:plus-lighter"><path fill="url(#j)" d="m-484.182-726.878 20.927-25.841 367.151 453.345L147.72 16.898l-264.751-290.431z"/></g><g filter="url(#k)" opacity=".2" style="mix-blend-mode:plus-lighter"><path fill="url(#l)" d="m-373.271-502.88 20.927-25.841L14.807-75.375l243.824 316.271L-6.121-49.534-373.27-502.88z"/></g></g><g filter="url(#m)" opacity=".2" style="mix-blend-mode:plus-lighter"><path fill="url(#n)" d="m-488.255-620.367 20.928-25.841 367.151 453.345 243.824 316.271-264.752-290.43z"/></g><g filter="url(#o)" opacity=".2" style="mix-blend-mode:plus-lighter"><path fill="url(#p)" d="m-488.255-620.367 20.928-25.841 367.151 453.345 243.824 316.271-264.752-290.43z"/></g><g filter="url(#q)" opacity=".2" style="mix-blend-mode:plus-lighter"><path fill="url(#r)" d="m-488.255-620.367 20.928-25.841 367.151 453.345 243.824 316.271-264.752-290.43z"/></g><g filter="url(#s)" opacity=".2" style="mix-blend-mode:plus-lighter"><path fill="url(#t)" d="m-484.182-726.878 20.927-25.841 367.151 453.345L147.72 16.898l-264.751-290.431z"/></g><g filter="url(#u)" opacity=".2" style="mix-blend-mode:plus-lighter"><path fill="url(#v)" d="m-373.271-502.88 20.927-25.841L14.807-75.375l243.824 316.271L-6.121-49.534-373.27-502.88z"/></g></g><defs><filter id="b" width="905.775" height="1152.5" x="-567.7" y="-832.164" color-interpolation-filters="sRGB" filterUnits="userSpaceOnUse"><feFlood flood-opacity="0" result="BackgroundImageFix"/><feBlend in="SourceGraphic" in2="BackgroundImageFix" result="shape"/><feGaussianBlur result="effect1_foregroundBlur_468_966" stdDeviation="39.722"/></filter><filter id="c" width="709.74" height="847.455" x="-527.174" y="-685.127" color-interpolation-filters="sRGB" filterUnits="userSpaceOnUse"><feFlood flood-opacity="0" result="BackgroundImageFix"/><feBlend in="SourceGraphic" in2="BackgroundImageFix" result="shape"/><feGaussianBlur result="effect1_foregroundBlur_468_966" stdDeviation="19.46"/></filter><filter id="e" width="709.74" height="847.455" x="-527.174" y="-685.127" color-interpolation-filters="sRGB" filterUnits="userSpaceOnUse"><feFlood flood-opacity="0" result="BackgroundImageFix"/><feBlend in="SourceGraphic" in2="BackgroundImageFix" result="shape"/><feGaussianBlur result="effect1_foregroundBlur_468_966" stdDeviation="19.46"/></filter><filter id="g" width="709.74" height="847.455" x="-527.174" y="-685.127" color-interpolation-filters="sRGB" filterUnits="userSpaceOnUse"><feFlood flood-opacity="0" result="BackgroundImageFix"/><feBlend in="SourceGraphic" in2="BackgroundImageFix" result="shape"/><feGaussianBlur result="effect1_foregroundBlur_468_966" stdDeviation="19.46"/></filter><filter id="i" width="709.741" height="847.455" x="-523.101" y="-791.638" color-interpolation-filters="sRGB" filterUnits="userSpaceOnUse"><feFlood flood-opacity="0" result="BackgroundImageFix"/><feBlend in="SourceGraphic" in2="BackgroundImageFix" result="shape"/><feGaussianBlur result="effect1_foregroundBlur_468_966" stdDeviation="19.46"/></filter><filter id="k" width="709.74" height="847.455" x="-412.19" y="-567.64" color-interpolation-filters="sRGB" filterUnits="userSpaceOnUse"><feFlood flood-opacity="0" result="BackgroundImageFix"/><feBlend in="SourceGraphic" in2="BackgroundImageFix" result="shape"/><feGaussianBlur result="effect1_foregroundBlur_468_966" stdDeviation="19.46"/></filter><filter id="m" width="709.74" height="847.455" x="-527.174" y="-685.127" color-interpolation-filters="sRGB" filterUnits="userSpaceOnUse"><feFlood flood-opacity="0" result="BackgroundImageFix"/><feBlend in="SourceGraphic" in2="BackgroundImageFix" result="shape"/><feGaussianBlur result="effect1_foregroundBlur_468_966" stdDeviation="19.46"/></filter><filter id="o" width="709.74" height="847.455" x="-527.174" y="-685.127" color-interpolation-filters="sRGB" filterUnits="userSpaceOnUse"><feFlood flood-opacity="0" result="BackgroundImageFix"/><feBlend in="SourceGraphic" in2="BackgroundImageFix" result="shape"/><feGaussianBlur result="effect1_foregroundBlur_468_966" stdDeviation="19.46"/></filter><filter id="q" width="709.74" height="847.455" x="-527.174" y="-685.127" color-interpolation-filters="sRGB" filterUnits="userSpaceOnUse"><feFlood flood-opacity="0" result="BackgroundImageFix"/><feBlend in="SourceGraphic" in2="BackgroundImageFix" result="shape"/><feGaussianBlur result="effect1_foregroundBlur_468_966" stdDeviation="19.46"/></filter><filter id="s" width="709.741" height="847.455" x="-523.101" y="-791.638" color-interpolation-filters="sRGB" filterUnits="userSpaceOnUse"><feFlood flood-opacity="0" result="BackgroundImageFix"/><feBlend in="SourceGraphic" in2="BackgroundImageFix" result="shape"/><feGaussianBlur result="effect1_foregroundBlur_468_966" stdDeviation="19.46"/></filter><filter id="u" width="709.74" height="847.455" x="-412.19" y="-567.64" color-interpolation-filters="sRGB" filterUnits="userSpaceOnUse"><feFlood flood-opacity="0" result="BackgroundImageFix"/><feBlend in="SourceGraphic" in2="BackgroundImageFix" result="shape"/><feGaussianBlur result="effect1_foregroundBlur_468_966" stdDeviation="19.46"/></filter><linearGradient id="d" x1="-477.791" x2="-34.343" y1="-633.288" y2="-274.152" gradientUnits="userSpaceOnUse"><stop stop-color="#fff"/><stop offset="1" stop-color="#fff"/></linearGradient><linearGradient id="f" x1="-477.791" x2="-34.343" y1="-633.288" y2="-274.152" gradientUnits="userSpaceOnUse"><stop stop-color="#fff"/><stop offset="1" stop-color="#fff"/></linearGradient><linearGradient id="h" x1="-477.791" x2="-34.343" y1="-633.288" y2="-274.152" gradientUnits="userSpaceOnUse"><stop stop-color="#fff"/><stop offset="1" stop-color="#fff"/></linearGradient><linearGradient id="j" x1="-473.718" x2="-30.27" y1="-739.798" y2="-380.663" gradientUnits="userSpaceOnUse"><stop stop-color="#fff"/><stop offset="1" stop-color="#fff"/></linearGradient><linearGradient id="l" x1="-362.807" x2="80.641" y1="-515.8" y2="-156.665" gradientUnits="userSpaceOnUse"><stop stop-color="#fff"/><stop offset="1" stop-color="#fff"/></linearGradient><linearGradient id="n" x1="-477.791" x2="-34.343" y1="-633.288" y2="-274.152" gradientUnits="userSpaceOnUse"><stop stop-color="#fff"/><stop offset="1" stop-color="#fff"/></linearGradient><linearGradient id="p" x1="-477.791" x2="-34.343" y1="-633.288" y2="-274.152" gradientUnits="userSpaceOnUse"><stop stop-color="#fff"/><stop offset="1" stop-color="#fff"/></linearGradient><linearGradient id="r" x1="-477.791" x2="-34.343" y1="-633.288" y2="-274.152" gradientUnits="userSpaceOnUse"><stop stop-color="#fff"/><stop offset="1" stop-color="#fff"/></linearGradient><linearGradient id="t" x1="-473.718" x2="-30.27" y1="-739.798" y2="-380.663" gradientUnits="userSpaceOnUse"><stop stop-color="#fff"/><stop offset="1" stop-color="#fff"/></linearGradient><linearGradient id="v" x1="-362.807" x2="80.641" y1="-515.8" y2="-156.665" gradientUnits="userSpaceOnUse"><stop stop-color="#fff"/><stop offset="1" stop-color="#fff"/></linearGradient><clipPath id="a"><path fill="#fff" d="M.5 0h258v264H.5z"/></clipPath></defs></svg>