<svg xmlns="http://www.w3.org/2000/svg" width="258" height="264" fill="none"><g clip-path="url(#a)" style="mix-blend-mode:multiply"><g filter="url(#b)"><g filter="url(#c)" opacity=".8"><path fill="url(#d)" d="m738.215-696.32-20.927-25.841-367.151 453.345L106.313 47.455l264.752-290.43z"/></g><g filter="url(#e)" opacity=".8"><path fill="url(#f)" d="m828.041-613.614-20.928-25.841L439.962-186.11 196.138 130.161l264.752-290.43z"/></g><g filter="url(#g)" opacity=".2" style="mix-blend-mode:plus-lighter"><path fill="url(#h)" d="m746.755-620.367-20.928-25.841-367.151 453.345-243.824 316.271 264.752-290.43z"/></g><g filter="url(#i)" opacity=".8"><path fill="url(#j)" d="m738.215-696.32-20.927-25.841-367.151 453.345L106.313 47.455l264.752-290.43z"/></g><g filter="url(#k)" opacity=".8"><path fill="url(#l)" d="m828.041-613.614-20.928-25.841L439.962-186.11 196.138 130.161l264.752-290.43z"/></g><g filter="url(#m)" opacity=".2" style="mix-blend-mode:plus-lighter"><path fill="url(#n)" d="m746.755-620.367-20.928-25.841-367.151 453.345-243.824 316.271 264.752-290.43z"/></g><g filter="url(#o)" opacity=".8"><path fill="url(#p)" d="m738.215-696.32-20.927-25.841-367.151 453.345L106.313 47.455l264.752-290.43z"/></g><g filter="url(#q)" opacity=".8"><path fill="url(#r)" d="m828.041-613.614-20.928-25.841L439.962-186.11 196.138 130.161l264.752-290.43z"/></g><g filter="url(#s)" opacity=".2" style="mix-blend-mode:plus-lighter"><path fill="url(#t)" d="m746.755-620.367-20.928-25.841-367.151 453.345-243.824 316.271 264.752-290.43z"/></g><g filter="url(#u)" opacity=".8"><path fill="url(#v)" d="m738.198-696.321-20.927-25.841L350.12-268.817 106.296 47.454l264.752-290.43z"/></g><g filter="url(#w)" opacity=".8"><path fill="url(#x)" d="m819.002-595.629-20.928-25.841-367.151 453.345-243.824 316.272 264.752-290.431z"/></g><g filter="url(#y)" opacity=".2" style="mix-blend-mode:plus-lighter"><path fill="url(#z)" d="m742.682-726.878-20.927-25.841-367.151 453.345L110.78 16.898l264.751-290.431z"/></g><g filter="url(#A)" opacity=".2" style="mix-blend-mode:plus-lighter"><path fill="url(#B)" d="m631.771-502.88-20.927-25.841L243.693-75.375-.131 240.896l264.752-290.43z"/></g></g><g filter="url(#C)" opacity=".8"><path fill="url(#D)" d="m738.215-696.32-20.927-25.841-367.151 453.345L106.313 47.455l264.752-290.43z"/></g><g filter="url(#E)" opacity=".8"><path fill="url(#F)" d="m828.041-613.614-20.928-25.841L439.962-186.11 196.138 130.161l264.752-290.43z"/></g><g filter="url(#G)" opacity=".2" style="mix-blend-mode:plus-lighter"><path fill="url(#H)" d="m746.755-620.367-20.928-25.841-367.151 453.345-243.824 316.271 264.752-290.43z"/></g><g filter="url(#I)" opacity=".8"><path fill="url(#J)" d="m738.215-696.32-20.927-25.841-367.151 453.345L106.313 47.455l264.752-290.43z"/></g><g filter="url(#K)" opacity=".8"><path fill="url(#L)" d="m828.041-613.614-20.928-25.841L439.962-186.11 196.138 130.161l264.752-290.43z"/></g><g filter="url(#M)" opacity=".2" style="mix-blend-mode:plus-lighter"><path fill="url(#N)" d="m746.755-620.367-20.928-25.841-367.151 453.345-243.824 316.271 264.752-290.43z"/></g><g filter="url(#O)" opacity=".8"><path fill="url(#P)" d="m738.215-696.32-20.927-25.841-367.151 453.345L106.313 47.455l264.752-290.43z"/></g><g filter="url(#Q)" opacity=".8"><path fill="url(#R)" d="m828.041-613.614-20.928-25.841L439.962-186.11 196.138 130.161l264.752-290.43z"/></g><g filter="url(#S)" opacity=".2" style="mix-blend-mode:plus-lighter"><path fill="url(#T)" d="m746.755-620.367-20.928-25.841-367.151 453.345-243.824 316.271 264.752-290.43z"/></g><g filter="url(#U)" opacity=".8"><path fill="url(#V)" d="m738.198-696.321-20.927-25.841L350.12-268.817 106.296 47.454l264.752-290.43z"/></g><g filter="url(#W)" opacity=".8"><path fill="url(#X)" d="m770.146-655.527-20.928-25.841-367.151 453.345L138.244 88.248l264.751-290.43z"/></g><g filter="url(#Y)" opacity=".8"><path fill="url(#Z)" d="m819.002-595.629-20.928-25.841-367.151 453.345-243.824 316.272 264.752-290.431z"/></g><g filter="url(#aa)" opacity=".2" style="mix-blend-mode:plus-lighter"><path fill="url(#ab)" d="m742.682-726.878-20.927-25.841-367.151 453.345L110.78 16.898l264.751-290.431z"/></g><g filter="url(#ac)" opacity=".2" style="mix-blend-mode:plus-lighter"><path fill="url(#ad)" d="m631.771-502.88-20.927-25.841L243.693-75.375-.131 240.896l264.752-290.43z"/></g></g><defs><filter id="b" width="987.061" height="1261.41" x="-79.576" y="-941.071" color-interpolation-filters="sRGB" filterUnits="userSpaceOnUse"><feFlood flood-opacity="0" result="BackgroundImageFix"/><feBlend in="SourceGraphic" in2="BackgroundImageFix" result="shape"/><feGaussianBlur result="effect1_foregroundBlur_468_821" stdDeviation="39.722"/></filter><filter id="c" width="768.724" height="906.438" x="37.902" y="-790.572" color-interpolation-filters="sRGB" filterUnits="userSpaceOnUse"><feFlood flood-opacity="0" result="BackgroundImageFix"/><feBlend in="SourceGraphic" in2="BackgroundImageFix" result="shape"/><feGaussianBlur result="effect1_foregroundBlur_468_821" stdDeviation="34.206"/></filter><filter id="e" width="768.724" height="906.438" x="127.727" y="-707.866" color-interpolation-filters="sRGB" filterUnits="userSpaceOnUse"><feFlood flood-opacity="0" result="BackgroundImageFix"/><feBlend in="SourceGraphic" in2="BackgroundImageFix" result="shape"/><feGaussianBlur result="effect1_foregroundBlur_468_821" stdDeviation="34.206"/></filter><filter id="g" width="709.74" height="847.455" x="75.933" y="-685.127" color-interpolation-filters="sRGB" filterUnits="userSpaceOnUse"><feFlood flood-opacity="0" result="BackgroundImageFix"/><feBlend in="SourceGraphic" in2="BackgroundImageFix" result="shape"/><feGaussianBlur result="effect1_foregroundBlur_468_821" stdDeviation="19.46"/></filter><filter id="i" width="768.724" height="906.438" x="37.902" y="-790.572" color-interpolation-filters="sRGB" filterUnits="userSpaceOnUse"><feFlood flood-opacity="0" result="BackgroundImageFix"/><feBlend in="SourceGraphic" in2="BackgroundImageFix" result="shape"/><feGaussianBlur result="effect1_foregroundBlur_468_821" stdDeviation="34.206"/></filter><filter id="k" width="768.724" height="906.438" x="127.727" y="-707.866" color-interpolation-filters="sRGB" filterUnits="userSpaceOnUse"><feFlood flood-opacity="0" result="BackgroundImageFix"/><feBlend in="SourceGraphic" in2="BackgroundImageFix" result="shape"/><feGaussianBlur result="effect1_foregroundBlur_468_821" stdDeviation="34.206"/></filter><filter id="m" width="709.74" height="847.455" x="75.933" y="-685.127" color-interpolation-filters="sRGB" filterUnits="userSpaceOnUse"><feFlood flood-opacity="0" result="BackgroundImageFix"/><feBlend in="SourceGraphic" in2="BackgroundImageFix" result="shape"/><feGaussianBlur result="effect1_foregroundBlur_468_821" stdDeviation="19.46"/></filter><filter id="o" width="768.724" height="906.438" x="37.902" y="-790.572" color-interpolation-filters="sRGB" filterUnits="userSpaceOnUse"><feFlood flood-opacity="0" result="BackgroundImageFix"/><feBlend in="SourceGraphic" in2="BackgroundImageFix" result="shape"/><feGaussianBlur result="effect1_foregroundBlur_468_821" stdDeviation="34.206"/></filter><filter id="q" width="768.724" height="906.438" x="127.727" y="-707.866" color-interpolation-filters="sRGB" filterUnits="userSpaceOnUse"><feFlood flood-opacity="0" result="BackgroundImageFix"/><feBlend in="SourceGraphic" in2="BackgroundImageFix" result="shape"/><feGaussianBlur result="effect1_foregroundBlur_468_821" stdDeviation="34.206"/></filter><filter id="s" width="709.74" height="847.455" x="75.933" y="-685.127" color-interpolation-filters="sRGB" filterUnits="userSpaceOnUse"><feFlood flood-opacity="0" result="BackgroundImageFix"/><feBlend in="SourceGraphic" in2="BackgroundImageFix" result="shape"/><feGaussianBlur result="effect1_foregroundBlur_468_821" stdDeviation="19.46"/></filter><filter id="u" width="768.724" height="906.438" x="37.885" y="-790.573" color-interpolation-filters="sRGB" filterUnits="userSpaceOnUse"><feFlood flood-opacity="0" result="BackgroundImageFix"/><feBlend in="SourceGraphic" in2="BackgroundImageFix" result="shape"/><feGaussianBlur result="effect1_foregroundBlur_468_821" stdDeviation="34.206"/></filter><filter id="w" width="768.724" height="906.438" x="118.689" y="-689.881" color-interpolation-filters="sRGB" filterUnits="userSpaceOnUse"><feFlood flood-opacity="0" result="BackgroundImageFix"/><feBlend in="SourceGraphic" in2="BackgroundImageFix" result="shape"/><feGaussianBlur result="effect1_foregroundBlur_468_821" stdDeviation="34.206"/></filter><filter id="y" width="709.741" height="847.455" x="71.861" y="-791.638" color-interpolation-filters="sRGB" filterUnits="userSpaceOnUse"><feFlood flood-opacity="0" result="BackgroundImageFix"/><feBlend in="SourceGraphic" in2="BackgroundImageFix" result="shape"/><feGaussianBlur result="effect1_foregroundBlur_468_821" stdDeviation="19.46"/></filter><filter id="A" width="709.74" height="847.455" x="-39.05" y="-567.64" color-interpolation-filters="sRGB" filterUnits="userSpaceOnUse"><feFlood flood-opacity="0" result="BackgroundImageFix"/><feBlend in="SourceGraphic" in2="BackgroundImageFix" result="shape"/><feGaussianBlur result="effect1_foregroundBlur_468_821" stdDeviation="19.46"/></filter><filter id="C" width="768.724" height="906.438" x="37.902" y="-790.572" color-interpolation-filters="sRGB" filterUnits="userSpaceOnUse"><feFlood flood-opacity="0" result="BackgroundImageFix"/><feBlend in="SourceGraphic" in2="BackgroundImageFix" result="shape"/><feGaussianBlur result="effect1_foregroundBlur_468_821" stdDeviation="34.206"/></filter><filter id="E" width="768.724" height="906.438" x="127.727" y="-707.866" color-interpolation-filters="sRGB" filterUnits="userSpaceOnUse"><feFlood flood-opacity="0" result="BackgroundImageFix"/><feBlend in="SourceGraphic" in2="BackgroundImageFix" result="shape"/><feGaussianBlur result="effect1_foregroundBlur_468_821" stdDeviation="34.206"/></filter><filter id="G" width="709.74" height="847.455" x="75.933" y="-685.127" color-interpolation-filters="sRGB" filterUnits="userSpaceOnUse"><feFlood flood-opacity="0" result="BackgroundImageFix"/><feBlend in="SourceGraphic" in2="BackgroundImageFix" result="shape"/><feGaussianBlur result="effect1_foregroundBlur_468_821" stdDeviation="19.46"/></filter><filter id="I" width="768.724" height="906.438" x="37.902" y="-790.572" color-interpolation-filters="sRGB" filterUnits="userSpaceOnUse"><feFlood flood-opacity="0" result="BackgroundImageFix"/><feBlend in="SourceGraphic" in2="BackgroundImageFix" result="shape"/><feGaussianBlur result="effect1_foregroundBlur_468_821" stdDeviation="34.206"/></filter><filter id="K" width="768.724" height="906.438" x="127.727" y="-707.866" color-interpolation-filters="sRGB" filterUnits="userSpaceOnUse"><feFlood flood-opacity="0" result="BackgroundImageFix"/><feBlend in="SourceGraphic" in2="BackgroundImageFix" result="shape"/><feGaussianBlur result="effect1_foregroundBlur_468_821" stdDeviation="34.206"/></filter><filter id="M" width="709.74" height="847.455" x="75.933" y="-685.127" color-interpolation-filters="sRGB" filterUnits="userSpaceOnUse"><feFlood flood-opacity="0" result="BackgroundImageFix"/><feBlend in="SourceGraphic" in2="BackgroundImageFix" result="shape"/><feGaussianBlur result="effect1_foregroundBlur_468_821" stdDeviation="19.46"/></filter><filter id="O" width="768.724" height="906.438" x="37.902" y="-790.572" color-interpolation-filters="sRGB" filterUnits="userSpaceOnUse"><feFlood flood-opacity="0" result="BackgroundImageFix"/><feBlend in="SourceGraphic" in2="BackgroundImageFix" result="shape"/><feGaussianBlur result="effect1_foregroundBlur_468_821" stdDeviation="34.206"/></filter><filter id="Q" width="768.724" height="906.438" x="127.727" y="-707.866" color-interpolation-filters="sRGB" filterUnits="userSpaceOnUse"><feFlood flood-opacity="0" result="BackgroundImageFix"/><feBlend in="SourceGraphic" in2="BackgroundImageFix" result="shape"/><feGaussianBlur result="effect1_foregroundBlur_468_821" stdDeviation="34.206"/></filter><filter id="S" width="709.74" height="847.455" x="75.933" y="-685.127" color-interpolation-filters="sRGB" filterUnits="userSpaceOnUse"><feFlood flood-opacity="0" result="BackgroundImageFix"/><feBlend in="SourceGraphic" in2="BackgroundImageFix" result="shape"/><feGaussianBlur result="effect1_foregroundBlur_468_821" stdDeviation="19.46"/></filter><filter id="U" width="768.724" height="906.438" x="37.885" y="-790.573" color-interpolation-filters="sRGB" filterUnits="userSpaceOnUse"><feFlood flood-opacity="0" result="BackgroundImageFix"/><feBlend in="SourceGraphic" in2="BackgroundImageFix" result="shape"/><feGaussianBlur result="effect1_foregroundBlur_468_821" stdDeviation="34.206"/></filter><filter id="W" width="768.724" height="906.438" x="69.833" y="-749.779" color-interpolation-filters="sRGB" filterUnits="userSpaceOnUse"><feFlood flood-opacity="0" result="BackgroundImageFix"/><feBlend in="SourceGraphic" in2="BackgroundImageFix" result="shape"/><feGaussianBlur result="effect1_foregroundBlur_468_821" stdDeviation="34.206"/></filter><filter id="Y" width="768.724" height="906.438" x="118.689" y="-689.881" color-interpolation-filters="sRGB" filterUnits="userSpaceOnUse"><feFlood flood-opacity="0" result="BackgroundImageFix"/><feBlend in="SourceGraphic" in2="BackgroundImageFix" result="shape"/><feGaussianBlur result="effect1_foregroundBlur_468_821" stdDeviation="34.206"/></filter><filter id="aa" width="709.741" height="847.455" x="71.861" y="-791.638" color-interpolation-filters="sRGB" filterUnits="userSpaceOnUse"><feFlood flood-opacity="0" result="BackgroundImageFix"/><feBlend in="SourceGraphic" in2="BackgroundImageFix" result="shape"/><feGaussianBlur result="effect1_foregroundBlur_468_821" stdDeviation="19.46"/></filter><filter id="ac" width="709.74" height="847.455" x="-39.05" y="-567.64" color-interpolation-filters="sRGB" filterUnits="userSpaceOnUse"><feFlood flood-opacity="0" result="BackgroundImageFix"/><feBlend in="SourceGraphic" in2="BackgroundImageFix" result="shape"/><feGaussianBlur result="effect1_foregroundBlur_468_821" stdDeviation="19.46"/></filter><linearGradient id="d" x1="727.752" x2="284.303" y1="-709.241" y2="-350.105" gradientUnits="userSpaceOnUse"><stop stop-color="#fff"/><stop offset="1" stop-color="#b0e562"/></linearGradient><linearGradient id="f" x1="817.577" x2="374.129" y1="-626.535" y2="-267.399" gradientUnits="userSpaceOnUse"><stop stop-color="#fff"/><stop offset="1" stop-color="#b0e562"/></linearGradient><linearGradient id="h" x1="736.291" x2="292.843" y1="-633.288" y2="-274.152" gradientUnits="userSpaceOnUse"><stop stop-color="#fff"/><stop offset="1" stop-color="#fff"/></linearGradient><linearGradient id="j" x1="727.752" x2="284.303" y1="-709.241" y2="-350.105" gradientUnits="userSpaceOnUse"><stop stop-color="#fff"/><stop offset="1" stop-color="#b0e562"/></linearGradient><linearGradient id="l" x1="817.577" x2="374.129" y1="-626.535" y2="-267.399" gradientUnits="userSpaceOnUse"><stop stop-color="#fff"/><stop offset="1" stop-color="#b0e562"/></linearGradient><linearGradient id="n" x1="736.291" x2="292.843" y1="-633.288" y2="-274.152" gradientUnits="userSpaceOnUse"><stop stop-color="#fff"/><stop offset="1" stop-color="#fff"/></linearGradient><linearGradient id="p" x1="727.752" x2="284.303" y1="-709.241" y2="-350.105" gradientUnits="userSpaceOnUse"><stop stop-color="#fff"/><stop offset="1" stop-color="#b0e562"/></linearGradient><linearGradient id="r" x1="817.577" x2="374.129" y1="-626.535" y2="-267.399" gradientUnits="userSpaceOnUse"><stop stop-color="#fff"/><stop offset="1" stop-color="#b0e562"/></linearGradient><linearGradient id="t" x1="736.291" x2="292.843" y1="-633.288" y2="-274.152" gradientUnits="userSpaceOnUse"><stop stop-color="#fff"/><stop offset="1" stop-color="#fff"/></linearGradient><linearGradient id="v" x1="727.734" x2="284.286" y1="-709.242" y2="-350.106" gradientUnits="userSpaceOnUse"><stop stop-color="#fff"/><stop offset=".557" stop-color="#b0e562"/><stop offset="1" stop-color="#b0e562"/></linearGradient><linearGradient id="x" x1="808.538" x2="365.09" y1="-608.549" y2="-249.414" gradientUnits="userSpaceOnUse"><stop stop-color="#fff"/><stop offset="1" stop-color="#b0e562"/></linearGradient><linearGradient id="z" x1="732.218" x2="288.77" y1="-739.798" y2="-380.663" gradientUnits="userSpaceOnUse"><stop stop-color="#fff"/><stop offset="1" stop-color="#fff"/></linearGradient><linearGradient id="B" x1="621.307" x2="177.859" y1="-515.8" y2="-156.665" gradientUnits="userSpaceOnUse"><stop stop-color="#fff"/><stop offset="1" stop-color="#fff"/></linearGradient><linearGradient id="D" x1="727.752" x2="284.303" y1="-709.241" y2="-350.105" gradientUnits="userSpaceOnUse"><stop stop-color="#fff"/><stop offset="1" stop-color="#b0e562"/></linearGradient><linearGradient id="F" x1="817.577" x2="374.129" y1="-626.535" y2="-267.399" gradientUnits="userSpaceOnUse"><stop stop-color="#fff"/><stop offset="1" stop-color="#b0e562"/></linearGradient><linearGradient id="H" x1="736.291" x2="292.843" y1="-633.288" y2="-274.152" gradientUnits="userSpaceOnUse"><stop stop-color="#fff"/><stop offset="1" stop-color="#fff"/></linearGradient><linearGradient id="J" x1="727.752" x2="284.303" y1="-709.241" y2="-350.105" gradientUnits="userSpaceOnUse"><stop stop-color="#fff"/><stop offset="1" stop-color="#b0e562"/></linearGradient><linearGradient id="L" x1="817.577" x2="374.129" y1="-626.535" y2="-267.399" gradientUnits="userSpaceOnUse"><stop stop-color="#fff"/><stop offset="1" stop-color="#b0e562"/></linearGradient><linearGradient id="N" x1="736.291" x2="292.843" y1="-633.288" y2="-274.152" gradientUnits="userSpaceOnUse"><stop stop-color="#fff"/><stop offset="1" stop-color="#fff"/></linearGradient><linearGradient id="P" x1="727.752" x2="284.303" y1="-709.241" y2="-350.105" gradientUnits="userSpaceOnUse"><stop stop-color="#fff"/><stop offset="1" stop-color="#b0e562"/></linearGradient><linearGradient id="R" x1="817.577" x2="374.129" y1="-626.535" y2="-267.399" gradientUnits="userSpaceOnUse"><stop stop-color="#fff"/><stop offset="1" stop-color="#b0e562"/></linearGradient><linearGradient id="T" x1="736.291" x2="292.843" y1="-633.288" y2="-274.152" gradientUnits="userSpaceOnUse"><stop stop-color="#fff"/><stop offset="1" stop-color="#fff"/></linearGradient><linearGradient id="V" x1="727.734" x2="284.286" y1="-709.242" y2="-350.106" gradientUnits="userSpaceOnUse"><stop stop-color="#fff"/><stop offset=".557" stop-color="#b0e562"/><stop offset="1" stop-color="#b0e562"/></linearGradient><linearGradient id="X" x1="759.682" x2="316.234" y1="-668.448" y2="-309.312" gradientUnits="userSpaceOnUse"><stop stop-color="#fff"/><stop offset=".557" stop-color="#b0e562"/><stop offset="1" stop-color="#b0e562"/></linearGradient><linearGradient id="Z" x1="808.538" x2="365.09" y1="-608.549" y2="-249.414" gradientUnits="userSpaceOnUse"><stop stop-color="#fff"/><stop offset="1" stop-color="#b0e562"/></linearGradient><linearGradient id="ab" x1="732.218" x2="288.77" y1="-739.798" y2="-380.663" gradientUnits="userSpaceOnUse"><stop stop-color="#fff"/><stop offset="1" stop-color="#fff"/></linearGradient><linearGradient id="ad" x1="621.307" x2="177.859" y1="-515.8" y2="-156.665" gradientUnits="userSpaceOnUse"><stop stop-color="#fff"/><stop offset="1" stop-color="#fff"/></linearGradient><clipPath id="a"><path fill="#fff" d="M258 0H0v264h258z"/></clipPath></defs></svg>