<svg xmlns="http://www.w3.org/2000/svg" width="68" height="68" fill="none"><rect width="55" height="55" x="6.5" y="6.5" fill="#fff" rx="27.5"/><rect width="55" height="55" x="6.5" y="6.5" stroke="#E7E9EF" rx="27.5"/><g clip-path="url(#a)"><rect width="46" height="46" x="11" y="11" fill="url(#b)" rx="23"/><path stroke="url(#c)" stroke-opacity=".5" stroke-width=".8" d="M-14.588-4H-21v6.417M-14.588-4v6.417m0-6.417h6.412m-6.412 6.417H-21m6.412 0h6.412m-6.412 0v6.416M-21 2.417v6.416M-8.176-4v6.417m0-6.417h6.411m-6.411 6.417h6.411m-6.411 0v6.416M-1.765-4v6.417m0-6.417h6.412m-6.412 6.417h6.412m-6.412 0v6.416M4.647-4v6.417m0-6.417h6.412M4.647 2.417h6.412m-6.412 0v6.416M11.06-4v6.417m0-6.417h6.412M11.06 2.417h6.412m-6.412 0v6.416M17.47-4v6.417m0-6.417h6.411M17.47 2.417h6.411m-6.411 0v6.416M23.882-4v6.417m0-6.417h6.412m-6.412 6.417h6.412m-6.412 0v6.416M30.294-4v6.417m0-6.417h6.412m-6.412 6.417h6.412m-6.412 0v6.416M36.706-4v6.417m0-6.417h6.412m-6.412 6.417h6.412m-6.412 0v6.416M43.118-4v6.417m0-6.417h6.411m-6.411 6.417h6.411m-6.411 0v6.416M49.529-4v6.417m0-6.417h6.412M49.53 2.417h6.412m-6.412 0v6.416M55.941-4v6.417m0-6.417h6.412M55.94 2.417h6.412m-6.412 0v6.416M62.353-4v6.417m0-6.417h6.412m-6.412 6.417h6.412m-6.412 0v6.416M68.765-4v6.417m0-6.417h6.412m-6.412 6.417h6.412m-6.412 0v6.416M75.177-4v6.417m0-6.417h6.411m-6.411 6.417h6.411m-6.411 0v6.416M81.588-4v6.417m0-6.417H88v6.417m-6.412 0H88m-6.412 0v6.416M88 2.417v6.416m-102.588 0H-21m6.412 0h6.412m-6.412 0v6.417M-21 8.833v6.417m12.824-6.417h6.411m-6.411 0v6.417m6.411-6.417h6.412m-6.412 0v6.417m6.412-6.417h6.412m-6.412 0v6.417m6.412-6.417h6.412m-6.412 0v6.417m6.412-6.417h6.411m-6.411 0v6.417m6.411-6.417h6.412m-6.412 0v6.417m6.412-6.417h6.412m-6.412 0v6.417m6.412-6.417h6.412m-6.412 0v6.417m6.412-6.417h6.411m-6.411 0v6.417m6.411-6.417h6.412m-6.412 0v6.417m6.412-6.417h6.412m-6.412 0v6.417m6.412-6.417h6.412m-6.412 0v6.417m6.412-6.417h6.412m-6.412 0v6.417m6.412-6.417h6.411m-6.411 0v6.417m6.411-6.417H88m-6.412 0v6.417M88 8.833v6.417m-102.588 0H-21m6.412 0h6.412m-6.412 0v6.417M-21 15.25v6.417m12.824-6.417h6.411m-6.411 0v6.417m6.411-6.417h6.412m-6.412 0v6.417m6.412-6.417h6.412m-6.412 0v6.417m6.412-6.417h6.412m-6.412 0v6.417m6.412-6.417h6.411m-6.411 0v6.417m6.411-6.417h6.412m-6.412 0v6.417m6.412-6.417h6.412m-6.412 0v6.417m6.412-6.417h6.412m-6.412 0v6.417m6.412-6.417h6.411m-6.411 0v6.417m6.411-6.417h6.412m-6.412 0v6.417m6.412-6.417h6.412m-6.412 0v6.417m6.412-6.417h6.412m-6.412 0v6.417m6.412-6.417h6.412m-6.412 0v6.417m6.412-6.417h6.411m-6.411 0v6.417m6.411-6.417H88m-6.412 0v6.417M88 15.25v6.417m-102.588 0H-21m6.412 0h6.412m-6.412 0v6.416M-21 21.667v6.416m12.824-6.416h6.411m-6.411 0v6.416m6.411-6.416h6.412m-6.412 0v6.416m6.412-6.416h6.412m-6.412 0v6.416m6.412-6.416h6.412m-6.412 0v6.416m6.412-6.416h6.411m-6.411 0v6.416m6.411-6.416h6.412m-6.412 0v6.416m6.412-6.416h6.412m-6.412 0v6.416m6.412-6.416h6.412m-6.412 0v6.416m6.412-6.416h6.411m-6.411 0v6.416m6.411-6.416h6.412m-6.412 0v6.416m6.412-6.416h6.412m-6.412 0v6.416m6.412-6.416h6.412m-6.412 0v6.416m6.412-6.416h6.412m-6.412 0v6.416m6.412-6.416h6.411m-6.411 0v6.416m6.411-6.416H88m-6.412 0v6.416M88 21.667v6.416m-102.588 0H-21m6.412 0h6.412m-6.412 0V34.5M-21 28.083V34.5m12.824-6.417h6.411m-6.411 0V34.5m6.411-6.417h6.412m-6.412 0V34.5m6.412-6.417h6.412m-6.412 0V34.5m6.412-6.417h6.412m-6.412 0V34.5m6.412-6.417h6.411m-6.411 0V34.5m6.411-6.417h6.412m-6.412 0V34.5m6.412-6.417h6.412m-6.412 0V34.5m6.412-6.417h6.412m-6.412 0V34.5m6.412-6.417h6.411m-6.411 0V34.5m6.411-6.417h6.412m-6.412 0V34.5m6.412-6.417h6.412m-6.412 0V34.5m6.412-6.417h6.412m-6.412 0V34.5m6.412-6.417h6.412m-6.412 0V34.5m6.412-6.417h6.411m-6.411 0V34.5m6.411-6.417H88m-6.412 0V34.5M88 28.083V34.5m-102.588 0H-21m6.412 0h6.412m-6.412 0v6.417M-21 34.5v6.417M-8.176 34.5h6.411m-6.411 0v6.417m6.411-6.417h6.412m-6.412 0v6.417M4.647 34.5h6.412m-6.412 0v6.417M11.06 34.5h6.412m-6.412 0v6.417m6.41-6.417h6.411m-6.411 0v6.417m6.411-6.417h6.412m-6.412 0v6.417m6.412-6.417h6.412m-6.412 0v6.417m6.412-6.417h6.412m-6.412 0v6.417m6.412-6.417h6.411m-6.411 0v6.417m6.411-6.417h6.412m-6.412 0v6.417M55.94 34.5h6.412m-6.412 0v6.417m6.412-6.417h6.412m-6.412 0v6.417m6.412-6.417h6.412m-6.412 0v6.417m6.412-6.417h6.411m-6.411 0v6.417m6.411-6.417H88m-6.412 0v6.417M88 34.5v6.417m-102.588 0H-21m6.412 0h6.412m-6.412 0v6.416M-21 40.917v6.416m12.824-6.416h6.411m-6.411 0v6.416m6.411-6.416h6.412m-6.412 0v6.416m6.412-6.416h6.412m-6.412 0v6.416m6.412-6.416h6.412m-6.412 0v6.416m6.412-6.416h6.411m-6.411 0v6.416m6.411-6.416h6.412m-6.412 0v6.416m6.412-6.416h6.412m-6.412 0v6.416m6.412-6.416h6.412m-6.412 0v6.416m6.412-6.416h6.411m-6.411 0v6.416m6.411-6.416h6.412m-6.412 0v6.416m6.412-6.416h6.412m-6.412 0v6.416m6.412-6.416h6.412m-6.412 0v6.416m6.412-6.416h6.412m-6.412 0v6.416m6.412-6.416h6.411m-6.411 0v6.416m6.411-6.416H88m-6.412 0v6.416M88 40.917v6.416m-102.588 0H-21m6.412 0h6.412m-6.412 0v6.417M-21 47.333v6.417m12.824-6.417h6.411m-6.411 0v6.417m6.411-6.417h6.412m-6.412 0v6.417m6.412-6.417h6.412m-6.412 0v6.417m6.412-6.417h6.412m-6.412 0v6.417m6.412-6.417h6.411m-6.411 0v6.417m6.411-6.417h6.412m-6.412 0v6.417m6.412-6.417h6.412m-6.412 0v6.417m6.412-6.417h6.412m-6.412 0v6.417m6.412-6.417h6.411m-6.411 0v6.417m6.411-6.417h6.412m-6.412 0v6.417m6.412-6.417h6.412m-6.412 0v6.417m6.412-6.417h6.412m-6.412 0v6.417m6.412-6.417h6.412m-6.412 0v6.417m6.412-6.417h6.411m-6.411 0v6.417m6.411-6.417H88m-6.412 0v6.417M88 47.333v6.417m-102.588 0H-21m6.412 0h6.412m-6.412 0v6.417M-21 53.75v6.417m12.824-6.417h6.411m-6.411 0v6.417m6.411-6.417h6.412m-6.412 0v6.417m6.412-6.417h6.412m-6.412 0v6.417m6.412-6.417h6.412m-6.412 0v6.417m6.412-6.417h6.411m-6.411 0v6.417m6.411-6.417h6.412m-6.412 0v6.417m6.412-6.417h6.412m-6.412 0v6.417m6.412-6.417h6.412m-6.412 0v6.417m6.412-6.417h6.411m-6.411 0v6.417m6.411-6.417h6.412m-6.412 0v6.417m6.412-6.417h6.412m-6.412 0v6.417m6.412-6.417h6.412m-6.412 0v6.417m6.412-6.417h6.412m-6.412 0v6.417m6.412-6.417h6.411m-6.411 0v6.417m6.411-6.417H88m-6.412 0v6.417M88 53.75v6.417m-102.588 0H-21m6.412 0h6.412m-6.412 0v6.416M-21 60.167v6.416m12.824-6.416h6.411m-6.411 0v6.416m6.411-6.416h6.412m-6.412 0v6.416m6.412-6.416h6.412m-6.412 0v6.416m6.412-6.416h6.412m-6.412 0v6.416m6.412-6.416h6.411m-6.411 0v6.416m6.411-6.416h6.412m-6.412 0v6.416m6.412-6.416h6.412m-6.412 0v6.416m6.412-6.416h6.412m-6.412 0v6.416m6.412-6.416h6.411m-6.411 0v6.416m6.411-6.416h6.412m-6.412 0v6.416m6.412-6.416h6.412m-6.412 0v6.416m6.412-6.416h6.412m-6.412 0v6.416m6.412-6.416h6.412m-6.412 0v6.416m6.412-6.416h6.411m-6.411 0v6.416m6.411-6.416H88m-6.412 0v6.416M88 60.167v6.416m-102.588 0H-21m6.412 0h6.412m-6.412 0V73M-21 66.583V73h6.412m6.412-6.417h6.411m-6.411 0V73m6.411-6.417h6.412m-6.412 0V73m6.412-6.417h6.412m-6.412 0V73m6.412-6.417h6.412m-6.412 0V73m6.412-6.417h6.411m-6.411 0V73m6.411-6.417h6.412m-6.412 0V73m6.412-6.417h6.412m-6.412 0V73m6.412-6.417h6.412m-6.412 0V73m6.412-6.417h6.411m-6.411 0V73m6.411-6.417h6.412m-6.412 0V73m6.412-6.417h6.412m-6.412 0V73m6.412-6.417h6.412m-6.412 0V73m6.412-6.417h6.412m-6.412 0V73m6.412-6.417h6.411m-6.411 0V73m6.411-6.417H88m-6.412 0V73M88 66.583V73h-6.412m-96.176 0h6.412m0 0h6.411m0 0h6.412m0 0h6.412m0 0h6.412m0 0h6.411m0 0h6.412m0 0h6.412m0 0h6.412m0 0h6.411m0 0h6.412m0 0h6.412m0 0h6.412m0 0h6.412m0 0h6.411"/></g><path fill="url(#d)" d="M68 34a34 34 0 1 0-68 0h3.792a30.208 30.208 0 1 1 60.416 0z"/><defs><linearGradient id="b" x1="34" x2="34" y1="-1.075" y2="57" gradientUnits="userSpaceOnUse"><stop stop-color="#B0E562"/><stop offset="1" stop-color="#B0E562" stop-opacity="0"/></linearGradient><linearGradient id="d" x1="34" x2="34" y1="-299" y2="34" gradientUnits="userSpaceOnUse"><stop stop-color="#b0e562"/><stop offset="1" stop-color="#b0e562" stop-opacity="0"/></linearGradient><radialGradient id="c" cx="0" cy="0" r="1" gradientTransform="matrix(0 282.918 -424.692 0 33.5 -210)" gradientUnits="userSpaceOnUse"><stop stop-color="#B0E562"/><stop offset=".943" stop-color="#B0E562" stop-opacity="0"/></radialGradient><clipPath id="a"><rect width="46" height="46" x="11" y="11" fill="#fff" rx="23"/></clipPath></defs></svg>