<svg xmlns="http://www.w3.org/2000/svg" width="22" height="22" fill="none"><path fill="#fff" fill-rule="evenodd" d="M11.917 5.5a3.667 3.667 0 1 1-7.333 0 3.667 3.667 0 0 1 7.333 0m2.75 10.084c0 2.025-2.873 3.667-6.416 3.667s-6.417-1.642-6.417-3.667 2.873-3.666 6.417-3.666 6.416 1.641 6.416 3.666m-.918-7.333a2.75 2.75 0 1 0-.941-5.335c.433.763.68 1.644.68 2.584s-.248 1.822-.681 2.585c.294.107.611.166.942.166m1.356 10.083c2.279 0 4.144-1.231 4.144-2.75s-1.868-2.75-4.146-2.75c.672.734 1.135 1.656 1.135 2.751s-.461 2.015-1.133 2.749" clip-rule="evenodd"/></svg>