<svg xmlns="http://www.w3.org/2000/svg" width="22" height="22" fill="none"><path fill="#0a0a0c" fill-rule="evenodd" d="M1.833 11V7.333c0-2.592 0-3.889.806-4.694.805-.806 2.102-.806 4.694-.806h7.334c2.592 0 3.889 0 4.694.806.806.805.806 2.102.806 4.694V11c0 2.593 0 3.89-.806 4.695-.592.592-1.45.749-2.895.79a2.94 2.94 0 0 0-.703-1.894.2.2 0 0 1-.045-.11 2.94 2.94 0 0 0-2.7-2.699.2.2 0 0 1-.11-.045 2.94 2.94 0 0 0-3.817 0 .2.2 0 0 1-.11.045 2.94 2.94 0 0 0-2.699 2.7.2.2 0 0 1-.045.11 2.93 2.93 0 0 0-.703 1.893c-1.445-.041-2.303-.198-2.895-.79-.806-.806-.806-2.102-.806-4.695m5.73-5.5c0-.38.307-.687.687-.687h5.5a.687.687 0 1 1 0 1.375h-5.5a.687.687 0 0 1-.687-.688M6.417 8.02a.688.688 0 0 0 0 1.376h9.166a.687.687 0 1 0 0-1.375z" clip-rule="evenodd"/><path fill="#0a0a0c" fill-rule="evenodd" d="M12.017 12.783c-.586-.5-1.448-.5-2.034 0a1.57 1.57 0 0 1-.892.37 1.57 1.57 0 0 0-1.438 1.438 1.57 1.57 0 0 1-.37.892c-.5.586-.5 1.448 0 2.034.214.25.343.563.37.892.06.767.67 1.377 1.438 1.438.329.026.64.156.892.37a1.57 1.57 0 0 0 2.034 0c.25-.214.563-.344.892-.37a1.57 1.57 0 0 0 1.438-1.438c.026-.329.156-.641.37-.892a1.57 1.57 0 0 0 0-2.034 1.57 1.57 0 0 1-.37-.892 1.57 1.57 0 0 0-1.438-1.438 1.57 1.57 0 0 1-.892-.37m.827 3.303a.687.687 0 1 0-.938-1.005l-1.495 1.395-.317-.295a.687.687 0 1 0-.938 1.005l.786.733a.69.69 0 0 0 .938 0z" clip-rule="evenodd"/></svg>